STARTFONT 2.1
COMMENT
COMMENT Converted from OpenType font "RuthlessSketch_Regular.ttf" by "otf2bdf 3.0".
COMMENT
FONT -FreeType-Ruthless Sketch-Medium-R-Normal--17-120-100-100-P-86-ISO10646-1
SIZE 12 100 100
FONTBOUNDINGBOX 20 18 -8 -3
STARTPROPERTIES 19
FOUNDRY "FreeType"
FAMILY_NAME "Ruthless Sketch"
WEIGHT_NAME "Medium"
SLANT "R"
SETWIDTH_NAME "Normal"
ADD_STYLE_NAME ""
PIXEL_SIZE 17
POINT_SIZE 120
RESOLUTION_X 100
RESOLUTION_Y 100
SPACING "P"
AVERAGE_WIDTH 86
CHARSET_REGISTRY "ISO10646"
CHARSET_ENCODING "1"
FONT_ASCENT 15
FONT_DESCENT 3
COPYRIGHT "© 2024 GGBotNet. All Rights Reserved."
_OTF_FONTFILE "RuthlessSketch_Regular.ttf"
_OTF_PSNAME "RuthlessSketch-Regular"
ENDPROPERTIES
CHARS 1105
STARTCHAR 0020
ENCODING 32
SWIDTH 300 0
DWIDTH 5 0
BBX 0 0 0 0
BITMAP
ENDCHAR
STARTCHAR 0021
ENCODING 33
SWIDTH 240 0
DWIDTH 4 0
BBX 5 12 0 0
BITMAP
F8
F0
F0
70
70
70
70
70
00
30
70
70
ENDCHAR
STARTCHAR 0022
ENCODING 34
SWIDTH 360 0
DWIDTH 6 0
BBX 6 6 0 6
BITMAP
EC
EC
EC
6C
4C
44
ENDCHAR
STARTCHAR 0023
ENCODING 35
SWIDTH 480 0
DWIDTH 8 0
BBX 8 12 0 0
BITMAP
10
1B
1B
FF
FF
76
36
FF
FF
6C
4C
4C
ENDCHAR
STARTCHAR 0024
ENCODING 36
SWIDTH 480 0
DWIDTH 8 0
BBX 8 16 0 -2
BITMAP
18
18
1C
3F
7F
7F
78
7C
1E
1F
7F
7E
FE
FC
18
18
ENDCHAR
STARTCHAR 0025
ENCODING 37
SWIDTH 540 0
DWIDTH 9 0
BBX 9 11 0 1
BITMAP
7300
D300
D600
F600
6C00
0F00
1F80
3680
3680
6380
4000
ENDCHAR
STARTCHAR 0026
ENCODING 38
SWIDTH 480 0
DWIDTH 8 0
BBX 8 11 0 0
BITMAP
78
6C
78
78
7B
6F
EE
E7
FF
7D
18
ENDCHAR
STARTCHAR 0027
ENCODING 39
SWIDTH 180 0
DWIDTH 3 0
BBX 3 6 0 6
BITMAP
E0
E0
E0
60
60
40
ENDCHAR
STARTCHAR 0028
ENCODING 40
SWIDTH 300 0
DWIDTH 5 0
BBX 6 15 0 -1
BITMAP
1C
38
70
60
60
C0
C0
C0
E0
E0
60
60
30
38
1C
ENDCHAR
STARTCHAR 0029
ENCODING 41
SWIDTH 300 0
DWIDTH 5 0
BBX 6 15 0 -2
BITMAP
E0
70
30
18
18
18
18
1C
1C
08
18
38
30
70
E0
ENDCHAR
STARTCHAR 002A
ENCODING 42
SWIDTH 300 0
DWIDTH 5 0
BBX 5 5 0 7
BITMAP
28
78
30
E8
20
ENDCHAR
STARTCHAR 002B
ENCODING 43
SWIDTH 420 0
DWIDTH 7 0
BBX 8 8 0 2
BITMAP
18
18
18
FF
FF
18
18
18
ENDCHAR
STARTCHAR 002C
ENCODING 44
SWIDTH 180 0
DWIDTH 3 0
BBX 3 5 0 -3
BITMAP
60
E0
60
40
C0
ENDCHAR
STARTCHAR 002D
ENCODING 45
SWIDTH 360 0
DWIDTH 6 0
BBX 6 2 0 5
BITMAP
FC
FC
ENDCHAR
STARTCHAR 002E
ENCODING 46
SWIDTH 180 0
DWIDTH 3 0
BBX 3 3 0 0
BITMAP
60
E0
60
ENDCHAR
STARTCHAR 002F
ENCODING 47
SWIDTH 420 0
DWIDTH 7 0
BBX 7 13 0 0
BITMAP
06
0E
0C
1C
1C
18
38
38
70
70
70
F0
E0
ENDCHAR
STARTCHAR 0030
ENCODING 48
SWIDTH 360 0
DWIDTH 6 0
BBX 6 12 0 0
BITMAP
20
70
78
7C
EC
EC
EC
EC
7C
7C
3C
18
ENDCHAR
STARTCHAR 0031
ENCODING 49
SWIDTH 420 0
DWIDTH 7 0
BBX 6 11 1 0
BITMAP
38
F8
F8
B8
38
38
38
78
78
7C
0C
ENDCHAR
STARTCHAR 0032
ENCODING 50
SWIDTH 480 0
DWIDTH 8 0
BBX 8 12 0 0
BITMAP
10
7C
FC
6C
0C
0C
1C
1F
3F
3F
7F
38
ENDCHAR
STARTCHAR 0033
ENCODING 51
SWIDTH 420 0
DWIDTH 7 0
BBX 8 11 0 0
BITMAP
78
78
18
38
7E
3E
06
03
86
FE
3C
ENDCHAR
STARTCHAR 0034
ENCODING 52
SWIDTH 420 0
DWIDTH 7 0
BBX 7 11 0 0
BITMAP
30
30
70
60
7E
7E
C8
18
1C
1C
3C
ENDCHAR
STARTCHAR 0035
ENCODING 53
SWIDTH 480 0
DWIDTH 8 0
BBX 8 11 0 0
BITMAP
3E
30
30
7C
7E
0E
07
07
8F
7E
3C
ENDCHAR
STARTCHAR 0036
ENCODING 54
SWIDTH 480 0
DWIDTH 8 0
BBX 8 12 0 0
BITMAP
04
1E
3E
70
60
FC
FE
E7
E7
67
7F
3E
ENDCHAR
STARTCHAR 0037
ENCODING 55
SWIDTH 420 0
DWIDTH 7 0
BBX 7 11 0 0
BITMAP
FE
FE
FE
0C
1C
1C
3C
78
78
78
80
ENDCHAR
STARTCHAR 0038
ENCODING 56
SWIDTH 480 0
DWIDTH 8 0
BBX 8 12 0 0
BITMAP
18
3C
74
3C
3C
7E
6E
E7
E3
7F
7F
1E
ENDCHAR
STARTCHAR 0039
ENCODING 57
SWIDTH 420 0
DWIDTH 7 0
BBX 7 11 0 0
BITMAP
7E
7E
E6
E6
FE
7E
06
06
6E
7E
3C
ENDCHAR
STARTCHAR 003A
ENCODING 58
SWIDTH 180 0
DWIDTH 3 0
BBX 3 8 0 0
BITMAP
E0
E0
60
00
00
60
E0
60
ENDCHAR
STARTCHAR 003B
ENCODING 59
SWIDTH 180 0
DWIDTH 3 0
BBX 3 10 0 -3
BITMAP
60
E0
60
00
00
60
E0
60
40
C0
ENDCHAR
STARTCHAR 003C
ENCODING 60
SWIDTH 420 0
DWIDTH 7 0
BBX 8 9 0 2
BITMAP
07
1F
7F
F8
F8
7F
1E
0F
03
ENDCHAR
STARTCHAR 003D
ENCODING 61
SWIDTH 480 0
DWIDTH 8 0
BBX 8 6 0 3
BITMAP
FF
FF
60
00
FF
FF
ENDCHAR
STARTCHAR 003E
ENCODING 62
SWIDTH 420 0
DWIDTH 7 0
BBX 8 9 0 1
BITMAP
E0
F8
FC
3E
0F
FF
F8
E0
80
ENDCHAR
STARTCHAR 003F
ENCODING 63
SWIDTH 420 0
DWIDTH 7 0
BBX 7 12 0 0
BITMAP
7C
7E
FE
46
06
1E
3C
38
00
10
38
38
ENDCHAR
STARTCHAR 0040
ENCODING 64
SWIDTH 660 0
DWIDTH 11 0
BBX 11 14 0 -2
BITMAP
1F00
3FC0
7FC0
71C0
E3E0
E7E0
ECE0
ECE0
EFE0
E7C0
7000
7380
7FC0
3F80
ENDCHAR
STARTCHAR 0041
ENCODING 65
SWIDTH 600 0
DWIDTH 10 0
BBX 9 11 1 0
BITMAP
0C00
1C00
1C00
1C00
3E00
3E00
6E00
7F00
FF00
E780
C780
ENDCHAR
STARTCHAR 0042
ENCODING 66
SWIDTH 480 0
DWIDTH 8 0
BBX 8 11 0 1
BITMAP
FC
FE
66
66
7C
7E
77
73
77
7E
3C
ENDCHAR
STARTCHAR 0043
ENCODING 67
SWIDTH 480 0
DWIDTH 8 0
BBX 8 11 0 0
BITMAP
3E
7F
7F
F0
F0
F0
FF
7F
7F
7E
1C
ENDCHAR
STARTCHAR 0044
ENCODING 68
SWIDTH 420 0
DWIDTH 7 0
BBX 7 11 0 0
BITMAP
F8
FC
FE
E6
E6
76
7E
7C
7C
78
20
ENDCHAR
STARTCHAR 0045
ENCODING 69
SWIDTH 480 0
DWIDTH 8 0
BBX 8 12 0 0
BITMAP
38
FC
7C
7C
70
7C
7C
30
3F
3F
3F
38
ENDCHAR
STARTCHAR 0046
ENCODING 70
SWIDTH 480 0
DWIDTH 8 0
BBX 8 12 0 0
BITMAP
0F
FF
FF
E0
E0
F8
F8
E0
E0
E0
E0
70
ENDCHAR
STARTCHAR 0047
ENCODING 71
SWIDTH 480 0
DWIDTH 8 0
BBX 8 11 0 0
BITMAP
1E
3F
70
60
63
67
E7
FF
FF
7E
38
ENDCHAR
STARTCHAR 0048
ENCODING 72
SWIDTH 540 0
DWIDTH 9 0
BBX 9 11 0 0
BITMAP
7B80
7B80
7B80
7B80
7F80
7F80
7F80
7380
7380
7780
F600
ENDCHAR
STARTCHAR 0049
ENCODING 73
SWIDTH 300 0
DWIDTH 5 0
BBX 4 11 1 0
BITMAP
F0
70
F0
F0
F0
F0
F0
F0
F0
E0
E0
ENDCHAR
STARTCHAR 004A
ENCODING 74
SWIDTH 420 0
DWIDTH 7 0
BBX 7 11 0 0
BITMAP
1E
1E
1E
1E
1E
1E
0E
EE
EE
7C
38
ENDCHAR
STARTCHAR 004B
ENCODING 75
SWIDTH 540 0
DWIDTH 9 0
BBX 9 11 0 1
BITMAP
7B00
7F00
FF00
FE00
FE00
FC00
FE00
FE00
FF00
FB80
FB00
ENDCHAR
STARTCHAR 004C
ENCODING 76
SWIDTH 480 0
DWIDTH 8 0
BBX 7 11 1 0
BITMAP
78
78
78
F8
F0
F0
F0
F0
FE
FE
FC
ENDCHAR
STARTCHAR 004D
ENCODING 77
SWIDTH 600 0
DWIDTH 10 0
BBX 10 11 0 0
BITMAP
2080
3180
71C0
7BC0
7FC0
7FC0
75C0
71C0
73C0
E3C0
E3C0
ENDCHAR
STARTCHAR 004E
ENCODING 78
SWIDTH 540 0
DWIDTH 9 0
BBX 9 11 0 0
BITMAP
7B80
7B80
7B80
7B80
7B80
7F80
7F80
7F80
F700
F700
E700
ENDCHAR
STARTCHAR 004F
ENCODING 79
SWIDTH 480 0
DWIDTH 8 0
BBX 9 12 0 0
BITMAP
1000
3C00
7E00
7F00
7F00
E780
E780
F780
7F00
7F00
7F00
1E00
ENDCHAR
STARTCHAR 0050
ENCODING 80
SWIDTH 480 0
DWIDTH 8 0
BBX 8 11 0 0
BITMAP
7E
7E
77
73
77
7F
FC
F0
F0
F0
F8
ENDCHAR
STARTCHAR 0051
ENCODING 81
SWIDTH 600 0
DWIDTH 10 0
BBX 10 13 0 -1
BITMAP
0800
3C00
7E00
7F00
6700
E380
E380
FF00
FF00
7F00
3F80
1FC0
0200
ENDCHAR
STARTCHAR 0052
ENCODING 82
SWIDTH 540 0
DWIDTH 9 0
BBX 10 11 0 0
BITMAP
FE00
F700
F300
F300
7F00
7E00
7E00
7F00
7B00
7B80
79C0
ENDCHAR
STARTCHAR 0053
ENCODING 83
SWIDTH 480 0
DWIDTH 8 0
BBX 8 12 0 0
BITMAP
08
3F
7E
7E
7E
70
3E
0E
07
FF
FE
7C
ENDCHAR
STARTCHAR 0054
ENCODING 84
SWIDTH 540 0
DWIDTH 9 0
BBX 9 11 0 0
BITMAP
FF80
FF80
FF80
CE00
0C00
0C00
0C00
0C00
0C00
0C00
0C00
ENDCHAR
STARTCHAR 0055
ENCODING 85
SWIDTH 540 0
DWIDTH 9 0
BBX 9 11 0 0
BITMAP
7380
7380
6380
6380
E380
F380
FF80
7F00
7F00
7E00
1C00
ENDCHAR
STARTCHAR 0056
ENCODING 86
SWIDTH 540 0
DWIDTH 9 0
BBX 10 11 0 0
BITMAP
C3C0
7BC0
7B80
3B80
3B80
1F80
1F00
0F00
0F00
0700
0200
ENDCHAR
STARTCHAR 0057
ENCODING 87
SWIDTH 720 0
DWIDTH 12 0
BBX 12 12 0 0
BITMAP
0040
E270
F260
72E0
7FE0
7FE0
3FE0
3FC0
1DC0
1DC0
0CC0
0800
ENDCHAR
STARTCHAR 0058
ENCODING 88
SWIDTH 540 0
DWIDTH 9 0
BBX 9 11 0 0
BITMAP
6380
F380
7700
7F00
3F00
1E00
1E00
3F00
3F00
7300
7000
ENDCHAR
STARTCHAR 0059
ENCODING 89
SWIDTH 600 0
DWIDTH 10 0
BBX 10 11 0 0
BITMAP
61C0
F180
7380
3F00
3F00
1E00
1E00
0C00
0C00
0E00
0E00
ENDCHAR
STARTCHAR 005A
ENCODING 90
SWIDTH 600 0
DWIDTH 10 0
BBX 10 12 0 0
BITMAP
0400
7F00
FE00
EE00
0C00
0C00
1C00
1C00
3800
3FC0
3F80
0F00
ENDCHAR
STARTCHAR 005B
ENCODING 91
SWIDTH 300 0
DWIDTH 5 0
BBX 6 15 0 -1
BITMAP
FC
FC
E0
E0
E0
E0
E0
E0
E0
E0
E0
E0
E0
FC
FC
ENDCHAR
STARTCHAR 005C
ENCODING 92
SWIDTH 420 0
DWIDTH 7 0
BBX 7 13 0 0
BITMAP
E0
70
70
70
38
38
38
1C
1C
0C
0E
06
04
ENDCHAR
STARTCHAR 005D
ENCODING 93
SWIDTH 300 0
DWIDTH 5 0
BBX 6 16 0 -2
BITMAP
08
FC
FC
1C
1C
1C
1C
1C
1C
1C
1C
1C
18
1C
FC
FC
ENDCHAR
STARTCHAR 005E
ENCODING 94
SWIDTH 480 0
DWIDTH 8 0
BBX 8 7 0 5
BITMAP
18
1C
3C
7E
76
E7
87
ENDCHAR
STARTCHAR 005F
ENCODING 95
SWIDTH 360 0
DWIDTH 6 0
BBX 6 2 0 -2
BITMAP
FC
FC
ENDCHAR
STARTCHAR 0060
ENCODING 96
SWIDTH 180 0
DWIDTH 3 0
BBX 3 2 1 12
BITMAP
C0
60
ENDCHAR
STARTCHAR 0061
ENCODING 97
SWIDTH 600 0
DWIDTH 10 0
BBX 9 11 1 0
BITMAP
0C00
1C00
1C00
1C00
3E00
3E00
6E00
7F00
FF00
E780
C780
ENDCHAR
STARTCHAR 0062
ENCODING 98
SWIDTH 480 0
DWIDTH 8 0
BBX 8 11 0 1
BITMAP
FC
FE
66
66
7C
7E
77
73
77
7E
3C
ENDCHAR
STARTCHAR 0063
ENCODING 99
SWIDTH 480 0
DWIDTH 8 0
BBX 8 11 0 0
BITMAP
3E
7F
7F
F0
F0
F0
FF
7F
7F
7E
1C
ENDCHAR
STARTCHAR 0064
ENCODING 100
SWIDTH 420 0
DWIDTH 7 0
BBX 7 11 0 0
BITMAP
F8
FC
FE
E6
E6
76
7E
7C
7C
78
20
ENDCHAR
STARTCHAR 0065
ENCODING 101
SWIDTH 480 0
DWIDTH 8 0
BBX 8 12 0 0
BITMAP
38
FC
7C
7C
70
7C
7C
30
3F
3F
3F
38
ENDCHAR
STARTCHAR 0066
ENCODING 102
SWIDTH 480 0
DWIDTH 8 0
BBX 8 12 0 0
BITMAP
0F
FF
FF
E0
E0
F8
F8
E0
E0
E0
E0
70
ENDCHAR
STARTCHAR 0067
ENCODING 103
SWIDTH 480 0
DWIDTH 8 0
BBX 8 11 0 0
BITMAP
1E
3F
70
60
63
67
E7
FF
FF
7E
38
ENDCHAR
STARTCHAR 0068
ENCODING 104
SWIDTH 540 0
DWIDTH 9 0
BBX 9 11 0 0
BITMAP
7B80
7B80
7B80
7B80
7F80
7F80
7F80
7380
7380
7780
F600
ENDCHAR
STARTCHAR 0069
ENCODING 105
SWIDTH 300 0
DWIDTH 5 0
BBX 4 11 1 0
BITMAP
F0
70
F0
F0
F0
F0
F0
F0
F0
E0
E0
ENDCHAR
STARTCHAR 006A
ENCODING 106
SWIDTH 420 0
DWIDTH 7 0
BBX 7 11 0 0
BITMAP
1E
1E
1E
1E
1E
1E
0E
EE
EE
7C
38
ENDCHAR
STARTCHAR 006B
ENCODING 107
SWIDTH 540 0
DWIDTH 9 0
BBX 9 11 0 1
BITMAP
7B00
7F00
FF00
FE00
FE00
FC00
FE00
FE00
FF00
FB80
FB00
ENDCHAR
STARTCHAR 006C
ENCODING 108
SWIDTH 480 0
DWIDTH 8 0
BBX 7 11 1 0
BITMAP
78
78
78
F8
F0
F0
F0
F0
FE
FE
FC
ENDCHAR
STARTCHAR 006D
ENCODING 109
SWIDTH 600 0
DWIDTH 10 0
BBX 10 11 0 0
BITMAP
2080
3180
71C0
7BC0
7FC0
7FC0
75C0
71C0
73C0
E3C0
E3C0
ENDCHAR
STARTCHAR 006E
ENCODING 110
SWIDTH 540 0
DWIDTH 9 0
BBX 9 11 0 0
BITMAP
7B80
7B80
7B80
7B80
7B80
7F80
7F80
7F80
F700
F700
E700
ENDCHAR
STARTCHAR 006F
ENCODING 111
SWIDTH 480 0
DWIDTH 8 0
BBX 9 12 0 0
BITMAP
1000
3C00
7E00
7F00
7F00
E780
E780
F780
7F00
7F00
7F00
1E00
ENDCHAR
STARTCHAR 0070
ENCODING 112
SWIDTH 480 0
DWIDTH 8 0
BBX 8 11 0 0
BITMAP
7E
7E
77
73
77
7F
FC
F0
F0
F0
F8
ENDCHAR
STARTCHAR 0071
ENCODING 113
SWIDTH 600 0
DWIDTH 10 0
BBX 10 13 0 -1
BITMAP
0800
3C00
7E00
7F00
6700
E380
E380
FF00
FF00
7F00
3F80
1FC0
0200
ENDCHAR
STARTCHAR 0072
ENCODING 114
SWIDTH 540 0
DWIDTH 9 0
BBX 10 11 0 0
BITMAP
FE00
F700
F300
F300
7F00
7E00
7E00
7F00
7B00
7B80
79C0
ENDCHAR
STARTCHAR 0073
ENCODING 115
SWIDTH 480 0
DWIDTH 8 0
BBX 8 12 0 0
BITMAP
08
3F
7E
7E
7E
70
3E
0E
07
FF
FE
7C
ENDCHAR
STARTCHAR 0074
ENCODING 116
SWIDTH 540 0
DWIDTH 9 0
BBX 9 11 0 0
BITMAP
FF80
FF80
FF80
CE00
0C00
0C00
0C00
0C00
0C00
0C00
0C00
ENDCHAR
STARTCHAR 0075
ENCODING 117
SWIDTH 540 0
DWIDTH 9 0
BBX 9 11 0 0
BITMAP
7380
7380
6380
6380
E380
F380
FF80
7F00
7F00
7E00
1C00
ENDCHAR
STARTCHAR 0076
ENCODING 118
SWIDTH 540 0
DWIDTH 9 0
BBX 10 11 0 0
BITMAP
C3C0
7BC0
7B80
3B80
3B80
1F80
1F00
0F00
0F00
0700
0200
ENDCHAR
STARTCHAR 0077
ENCODING 119
SWIDTH 720 0
DWIDTH 12 0
BBX 12 12 0 0
BITMAP
0040
E270
F260
72E0
7FE0
7FE0
3FE0
3FC0
1DC0
1DC0
0CC0
0800
ENDCHAR
STARTCHAR 0078
ENCODING 120
SWIDTH 540 0
DWIDTH 9 0
BBX 9 11 0 0
BITMAP
6380
F380
7700
7F00
3F00
1E00
1E00
3F00
3F00
7300
7000
ENDCHAR
STARTCHAR 0079
ENCODING 121
SWIDTH 600 0
DWIDTH 10 0
BBX 10 11 0 0
BITMAP
61C0
F180
7380
3F00
3F00
1E00
1E00
0C00
0C00
0E00
0E00
ENDCHAR
STARTCHAR 007A
ENCODING 122
SWIDTH 600 0
DWIDTH 10 0
BBX 10 12 0 0
BITMAP
0400
7F00
FE00
EE00
0C00
0C00
1C00
1C00
3800
3FC0
3F80
0F00
ENDCHAR
STARTCHAR 007B
ENCODING 123
SWIDTH 300 0
DWIDTH 5 0
BBX 5 16 0 -2
BITMAP
08
18
38
30
30
30
30
E0
F0
30
30
30
30
38
18
08
ENDCHAR
STARTCHAR 007C
ENCODING 124
SWIDTH 180 0
DWIDTH 3 0
BBX 3 17 0 -3
BITMAP
E0
E0
E0
E0
E0
E0
E0
E0
E0
E0
E0
E0
E0
E0
E0
E0
40
ENDCHAR
STARTCHAR 007D
ENCODING 125
SWIDTH 300 0
DWIDTH 5 0
BBX 6 16 0 -2
BITMAP
40
60
70
30
30
30
30
3C
1C
30
30
30
30
60
E0
40
ENDCHAR
STARTCHAR 007E
ENCODING 126
SWIDTH 480 0
DWIDTH 8 0
BBX 8 4 0 4
BITMAP
67
FF
FF
DE
ENDCHAR
STARTCHAR 00A0
ENCODING 160
SWIDTH 300 0
DWIDTH 5 0
BBX 0 0 0 0
BITMAP
ENDCHAR
STARTCHAR 00A1
ENCODING 161
SWIDTH 240 0
DWIDTH 4 0
BBX 5 12 0 -3
BITMAP
70
70
20
00
70
70
70
70
70
F0
F0
F8
ENDCHAR
STARTCHAR 00A2
ENCODING 162
SWIDTH 480 0
DWIDTH 8 0
BBX 8 14 0 -2
BITMAP
06
06
3E
7F
7F
7F
EC
EC
FC
F9
7F
3F
1E
38
ENDCHAR
STARTCHAR 00A3
ENCODING 163
SWIDTH 540 0
DWIDTH 9 0
BBX 9 11 0 0
BITMAP
0F00
1F80
3B80
3800
FE00
FF00
3800
3800
FF80
FF80
7F80
ENDCHAR
STARTCHAR 00A4
ENCODING 164
SWIDTH 420 0
DWIDTH 7 0
BBX 7 7 0 2
BITMAP
74
FE
6C
6C
7E
7E
04
ENDCHAR
STARTCHAR 00A5
ENCODING 165
SWIDTH 600 0
DWIDTH 10 0
BBX 10 11 0 0
BITMAP
61C0
F180
7380
3F00
3F00
7F80
7F80
7F80
7F80
3E00
0E00
ENDCHAR
STARTCHAR 00A6
ENCODING 166
SWIDTH 180 0
DWIDTH 3 0
BBX 3 17 0 -3
BITMAP
E0
E0
E0
E0
E0
E0
E0
00
00
E0
E0
E0
E0
E0
E0
E0
20
ENDCHAR
STARTCHAR 00A7
ENCODING 167
SWIDTH 480 0
DWIDTH 8 0
BBX 8 14 0 -1
BITMAP
1C
7E
7E
70
78
7E
F7
E7
7F
1E
0E
7E
7E
3C
ENDCHAR
STARTCHAR 00A8
ENCODING 168
SWIDTH 300 0
DWIDTH 5 0
BBX 5 1 0 13
BITMAP
D8
ENDCHAR
STARTCHAR 00A9
ENCODING 169
SWIDTH 660 0
DWIDTH 11 0
BBX 11 10 0 1
BITMAP
1F80
79C0
60C0
CE60
CC60
C860
CE60
6E40
71C0
3F80
ENDCHAR
STARTCHAR 00AA
ENCODING 170
SWIDTH 300 0
DWIDTH 5 0
BBX 5 6 0 5
BITMAP
30
30
30
50
78
80
ENDCHAR
STARTCHAR 00AB
ENCODING 171
SWIDTH 420 0
DWIDTH 7 0
BBX 8 8 0 0
BITMAP
11
33
77
EE
EC
77
33
11
ENDCHAR
STARTCHAR 00AC
ENCODING 172
SWIDTH 480 0
DWIDTH 8 0
BBX 8 4 0 3
BITMAP
FF
FF
07
07
ENDCHAR
STARTCHAR 00AD
ENCODING 173
SWIDTH 360 0
DWIDTH 6 0
BBX 6 2 0 5
BITMAP
FC
FC
ENDCHAR
STARTCHAR 00AE
ENCODING 174
SWIDTH 420 0
DWIDTH 7 0
BBX 7 7 0 5
BITMAP
38
64
FA
9A
9A
46
7C
ENDCHAR
STARTCHAR 00AF
ENCODING 175
SWIDTH 300 0
DWIDTH 5 0
BBX 5 1 0 12
BITMAP
F8
ENDCHAR
STARTCHAR 00B0
ENCODING 176
SWIDTH 300 0
DWIDTH 5 0
BBX 5 6 0 6
BITMAP
70
78
C8
D8
78
20
ENDCHAR
STARTCHAR 00B1
ENCODING 177
SWIDTH 420 0
DWIDTH 7 0
BBX 8 10 0 0
BITMAP
18
18
18
FF
FF
18
18
18
FF
FF
ENDCHAR
STARTCHAR 00B2
ENCODING 178
SWIDTH 240 0
DWIDTH 4 0
BBX 4 6 0 6
BITMAP
40
E0
20
20
70
F0
ENDCHAR
STARTCHAR 00B3
ENCODING 179
SWIDTH 240 0
DWIDTH 4 0
BBX 4 5 0 6
BITMAP
60
40
70
10
F0
ENDCHAR
STARTCHAR 00B4
ENCODING 180
SWIDTH 180 0
DWIDTH 3 0
BBX 3 2 0 12
BITMAP
60
C0
ENDCHAR
STARTCHAR 00B5
ENCODING 181
SWIDTH 540 0
DWIDTH 9 0
BBX 9 12 0 -3
BITMAP
E700
E300
E380
E380
E780
FF80
FF00
FF00
FC00
E000
E000
2000
ENDCHAR
STARTCHAR 00B6
ENCODING 182
SWIDTH 360 0
DWIDTH 6 0
BBX 6 13 0 -1
BITMAP
3C
7C
F4
F4
F4
F4
74
34
34
34
34
34
34
ENDCHAR
STARTCHAR 00B7
ENCODING 183
SWIDTH 180 0
DWIDTH 3 0
BBX 3 3 0 4
BITMAP
E0
E0
40
ENDCHAR
STARTCHAR 00B8
ENCODING 184
SWIDTH 300 0
DWIDTH 5 0
BBX 5 4 0 -3
BITMAP
60
30
98
70
ENDCHAR
STARTCHAR 00B9
ENCODING 185
SWIDTH 180 0
DWIDTH 3 0
BBX 2 5 1 6
BITMAP
C0
40
40
C0
C0
ENDCHAR
STARTCHAR 00BA
ENCODING 186
SWIDTH 240 0
DWIDTH 4 0
BBX 4 6 0 6
BITMAP
40
70
F0
D0
F0
70
ENDCHAR
STARTCHAR 00BB
ENCODING 187
SWIDTH 420 0
DWIDTH 7 0
BBX 8 8 0 0
BITMAP
80
CC
EE
77
77
EE
CC
88
ENDCHAR
STARTCHAR 00BC
ENCODING 188
SWIDTH 540 0
DWIDTH 9 0
BBX 8 11 1 1
BITMAP
C6
46
4C
CC
D8
1A
36
64
67
C2
82
ENDCHAR
STARTCHAR 00BD
ENCODING 189
SWIDTH 540 0
DWIDTH 9 0
BBX 8 11 1 1
BITMAP
C6
46
4C
CC
D8
1E
3E
62
62
C7
86
ENDCHAR
STARTCHAR 00BE
ENCODING 190
SWIDTH 540 0
DWIDTH 9 0
BBX 9 11 0 1
BITMAP
6300
4300
7600
1600
FC00
0D00
1B00
3200
3380
6100
4100
ENDCHAR
STARTCHAR 00BF
ENCODING 191
SWIDTH 420 0
DWIDTH 7 0
BBX 7 12 0 -3
BITMAP
18
1C
18
00
1C
1C
78
F0
E0
E6
FE
7E
ENDCHAR
STARTCHAR 00C0
ENCODING 192
SWIDTH 600 0
DWIDTH 10 0
BBX 9 14 1 0
BITMAP
3000
1800
0000
0C00
1C00
1C00
1C00
3E00
3E00
6E00
7F00
FF00
E780
C780
ENDCHAR
STARTCHAR 00C1
ENCODING 193
SWIDTH 600 0
DWIDTH 10 0
BBX 9 14 1 0
BITMAP
0600
0C00
0000
0C00
1C00
1C00
1C00
3E00
3E00
6E00
7F00
FF00
E780
C780
ENDCHAR
STARTCHAR 00C2
ENCODING 194
SWIDTH 600 0
DWIDTH 10 0
BBX 9 14 1 0
BITMAP
1C00
3600
0000
0C00
1C00
1C00
1C00
3E00
3E00
6E00
7F00
FF00
E780
C780
ENDCHAR
STARTCHAR 00C3
ENCODING 195
SWIDTH 600 0
DWIDTH 10 0
BBX 9 14 1 0
BITMAP
3E00
3E00
0000
0C00
1C00
1C00
1C00
3E00
3E00
6E00
7F00
FF00
E780
C780
ENDCHAR
STARTCHAR 00C4
ENCODING 196
SWIDTH 600 0
DWIDTH 10 0
BBX 9 13 1 1
BITMAP
3600
0000
0C00
1C00
1C00
1C00
3E00
3E00
6E00
7F00
FF00
E780
C780
ENDCHAR
STARTCHAR 00C5
ENCODING 197
SWIDTH 600 0
DWIDTH 10 0
BBX 9 14 1 0
BITMAP
3E00
3600
3600
1C00
1C00
1C00
1C00
3E00
3E00
6E00
7F00
FF00
E780
C780
ENDCHAR
STARTCHAR 00C6
ENCODING 198
SWIDTH 720 0
DWIDTH 12 0
BBX 12 12 0 0
BITMAP
0100
07C0
0FC0
0FC0
0F00
1FC0
1FC0
3700
3FF0
7FF0
73F0
E3C0
ENDCHAR
STARTCHAR 00C7
ENCODING 199
SWIDTH 480 0
DWIDTH 8 0
BBX 8 14 0 -3
BITMAP
3E
7F
7F
F0
F0
F0
FF
7F
7F
7E
1C
18
2C
3C
ENDCHAR
STARTCHAR 00C8
ENCODING 200
SWIDTH 480 0
DWIDTH 8 0
BBX 8 14 0 1
BITMAP
60
30
38
FC
7C
7C
70
7C
7C
30
3F
3F
3F
38
ENDCHAR
STARTCHAR 00C9
ENCODING 201
SWIDTH 480 0
DWIDTH 8 0
BBX 8 15 0 0
BITMAP
18
18
30
38
FC
7C
7C
70
7C
7C
30
3F
3F
3F
38
ENDCHAR
STARTCHAR 00CA
ENCODING 202
SWIDTH 480 0
DWIDTH 8 0
BBX 8 15 0 0
BITMAP
20
78
C8
38
FC
7C
7C
70
7C
7C
30
3F
3F
3F
38
ENDCHAR
STARTCHAR 00CB
ENCODING 203
SWIDTH 480 0
DWIDTH 8 0
BBX 8 14 0 0
BITMAP
18
D8
38
FC
7C
7C
70
7C
7C
30
3F
3F
3F
38
ENDCHAR
STARTCHAR 00CC
ENCODING 204
SWIDTH 300 0
DWIDTH 5 0
BBX 4 14 1 0
BITMAP
60
60
00
F0
70
F0
F0
F0
F0
F0
F0
F0
E0
E0
ENDCHAR
STARTCHAR 00CD
ENCODING 205
SWIDTH 300 0
DWIDTH 5 0
BBX 5 14 1 0
BITMAP
38
30
00
F0
70
F0
F0
F0
F0
F0
F0
F0
E0
E0
ENDCHAR
STARTCHAR 00CE
ENCODING 206
SWIDTH 300 0
DWIDTH 5 0
BBX 5 14 1 0
BITMAP
70
D8
00
F0
70
F0
F0
F0
F0
F0
F0
F0
E0
E0
ENDCHAR
STARTCHAR 00CF
ENCODING 207
SWIDTH 300 0
DWIDTH 5 0
BBX 5 13 1 1
BITMAP
D8
00
F0
70
F0
F0
F0
F0
F0
F0
F0
E0
E0
ENDCHAR
STARTCHAR 00D0
ENCODING 208
SWIDTH 480 0
DWIDTH 8 0
BBX 8 11 0 0
BITMAP
7C
7E
7E
7B
FB
F7
7E
3E
3C
38
30
ENDCHAR
STARTCHAR 00D1
ENCODING 209
SWIDTH 540 0
DWIDTH 9 0
BBX 9 14 0 0
BITMAP
1F00
1E00
0000
7B80
7B80
7B80
7B80
7B80
7F80
7F80
7F80
F700
F700
E700
ENDCHAR
STARTCHAR 00D2
ENCODING 210
SWIDTH 480 0
DWIDTH 8 0
BBX 9 14 0 0
BITMAP
6000
3000
1000
3C00
7E00
7F00
7F00
E780
E780
F780
7F00
7F00
7F00
1E00
ENDCHAR
STARTCHAR 00D3
ENCODING 211
SWIDTH 480 0
DWIDTH 8 0
BBX 9 14 0 0
BITMAP
1C00
1800
1000
3C00
7E00
7F00
7F00
E780
E780
F780
7F00
7F00
7F00
1E00
ENDCHAR
STARTCHAR 00D4
ENCODING 212
SWIDTH 480 0
DWIDTH 8 0
BBX 9 14 0 0
BITMAP
3800
6C00
1000
3C00
7E00
7F00
7F00
E780
E780
F780
7F00
7F00
7F00
1E00
ENDCHAR
STARTCHAR 00D5
ENCODING 213
SWIDTH 480 0
DWIDTH 8 0
BBX 9 14 0 1
BITMAP
7C00
7800
1000
3C00
7E00
7F00
7F00
E780
E780
F780
7F00
7F00
7F00
1E00
ENDCHAR
STARTCHAR 00D6
ENCODING 214
SWIDTH 480 0
DWIDTH 8 0
BBX 9 14 0 0
BITMAP
0800
6800
1000
3C00
7E00
7F00
7F00
E780
E780
F780
7F00
7F00
7F00
1E00
ENDCHAR
STARTCHAR 00D7
ENCODING 215
SWIDTH 420 0
DWIDTH 7 0
BBX 7 6 0 2
BITMAP
64
FE
7C
3C
7E
6C
ENDCHAR
STARTCHAR 00D8
ENCODING 216
SWIDTH 480 0
DWIDTH 8 0
BBX 9 12 0 0
BITMAP
1380
3F80
7F00
7F00
7F00
EF80
FB80
FF80
7F00
7F00
7F00
DE00
ENDCHAR
STARTCHAR 00D9
ENCODING 217
SWIDTH 540 0
DWIDTH 9 0
BBX 9 14 0 0
BITMAP
1800
0C00
0000
7380
7380
6380
6380
E380
F380
FF80
7F00
7F00
7E00
1C00
ENDCHAR
STARTCHAR 00DA
ENCODING 218
SWIDTH 540 0
DWIDTH 9 0
BBX 9 14 0 0
BITMAP
0600
0400
0000
7380
7380
6380
6380
E380
F380
FF80
7F00
7F00
7E00
1C00
ENDCHAR
STARTCHAR 00DB
ENCODING 219
SWIDTH 540 0
DWIDTH 9 0
BBX 9 14 0 0
BITMAP
0E00
1B00
0000
7380
7380
6380
6380
E380
F380
FF80
7F00
7F00
7E00
1C00
ENDCHAR
STARTCHAR 00DC
ENCODING 220
SWIDTH 540 0
DWIDTH 9 0
BBX 9 13 0 1
BITMAP
1A00
0000
7380
7380
6380
6380
E380
F380
FF80
7F00
7F00
7E00
1C00
ENDCHAR
STARTCHAR 00DD
ENCODING 221
SWIDTH 600 0
DWIDTH 10 0
BBX 10 14 0 0
BITMAP
0700
0600
0000
61C0
F180
7380
3F00
3F00
1E00
1E00
0C00
0C00
0E00
0E00
ENDCHAR
STARTCHAR 00DE
ENCODING 222
SWIDTH 480 0
DWIDTH 8 0
BBX 8 11 0 0
BITMAP
E0
FC
FE
EE
63
77
77
7F
7E
70
70
ENDCHAR
STARTCHAR 00DF
ENCODING 223
SWIDTH 540 0
DWIDTH 9 0
BBX 9 13 0 -1
BITMAP
3000
7C00
FE00
E600
E600
EC00
EF00
6F80
6380
6380
6780
6700
6000
ENDCHAR
STARTCHAR 00E0
ENCODING 224
SWIDTH 600 0
DWIDTH 10 0
BBX 9 14 1 0
BITMAP
3000
1800
0000
0C00
1C00
1C00
1C00
3E00
3E00
6E00
7F00
FF00
E780
C780
ENDCHAR
STARTCHAR 00E1
ENCODING 225
SWIDTH 600 0
DWIDTH 10 0
BBX 9 14 1 0
BITMAP
0600
0C00
0000
0C00
1C00
1C00
1C00
3E00
3E00
6E00
7F00
FF00
E780
C780
ENDCHAR
STARTCHAR 00E2
ENCODING 226
SWIDTH 600 0
DWIDTH 10 0
BBX 9 14 1 0
BITMAP
1C00
3600
0000
0C00
1C00
1C00
1C00
3E00
3E00
6E00
7F00
FF00
E780
C780
ENDCHAR
STARTCHAR 00E3
ENCODING 227
SWIDTH 600 0
DWIDTH 10 0
BBX 9 14 1 0
BITMAP
3E00
3E00
0000
0C00
1C00
1C00
1C00
3E00
3E00
6E00
7F00
FF00
E780
C780
ENDCHAR
STARTCHAR 00E4
ENCODING 228
SWIDTH 600 0
DWIDTH 10 0
BBX 9 13 1 1
BITMAP
3600
0000
0C00
1C00
1C00
1C00
3E00
3E00
6E00
7F00
FF00
E780
C780
ENDCHAR
STARTCHAR 00E5
ENCODING 229
SWIDTH 600 0
DWIDTH 10 0
BBX 9 14 1 0
BITMAP
3E00
3600
3600
1C00
1C00
1C00
1C00
3E00
3E00
6E00
7F00
FF00
E780
C780
ENDCHAR
STARTCHAR 00E6
ENCODING 230
SWIDTH 720 0
DWIDTH 12 0
BBX 12 12 0 0
BITMAP
0100
07C0
0FC0
0FC0
0F00
1FC0
1FC0
3700
3FF0
7FF0
73F0
E3C0
ENDCHAR
STARTCHAR 00E7
ENCODING 231
SWIDTH 480 0
DWIDTH 8 0
BBX 8 14 0 -3
BITMAP
3E
7F
7F
F0
F0
F0
FF
7F
7F
7E
1C
18
2C
3C
ENDCHAR
STARTCHAR 00E8
ENCODING 232
SWIDTH 480 0
DWIDTH 8 0
BBX 8 14 0 1
BITMAP
60
30
38
FC
7C
7C
70
7C
7C
30
3F
3F
3F
38
ENDCHAR
STARTCHAR 00E9
ENCODING 233
SWIDTH 480 0
DWIDTH 8 0
BBX 8 15 0 0
BITMAP
18
18
30
38
FC
7C
7C
70
7C
7C
30
3F
3F
3F
38
ENDCHAR
STARTCHAR 00EA
ENCODING 234
SWIDTH 480 0
DWIDTH 8 0
BBX 8 15 0 0
BITMAP
20
78
C8
38
FC
7C
7C
70
7C
7C
30
3F
3F
3F
38
ENDCHAR
STARTCHAR 00EB
ENCODING 235
SWIDTH 480 0
DWIDTH 8 0
BBX 8 14 0 0
BITMAP
18
D8
38
FC
7C
7C
70
7C
7C
30
3F
3F
3F
38
ENDCHAR
STARTCHAR 00EC
ENCODING 236
SWIDTH 300 0
DWIDTH 5 0
BBX 4 14 1 0
BITMAP
60
60
00
F0
70
F0
F0
F0
F0
F0
F0
F0
E0
E0
ENDCHAR
STARTCHAR 00ED
ENCODING 237
SWIDTH 300 0
DWIDTH 5 0
BBX 5 14 1 0
BITMAP
38
30
00
F0
70
F0
F0
F0
F0
F0
F0
F0
E0
E0
ENDCHAR
STARTCHAR 00EE
ENCODING 238
SWIDTH 300 0
DWIDTH 5 0
BBX 5 14 1 0
BITMAP
70
D8
00
F0
70
F0
F0
F0
F0
F0
F0
F0
E0
E0
ENDCHAR
STARTCHAR 00EF
ENCODING 239
SWIDTH 300 0
DWIDTH 5 0
BBX 5 13 1 1
BITMAP
D8
00
F0
70
F0
F0
F0
F0
F0
F0
F0
E0
E0
ENDCHAR
STARTCHAR 00F0
ENCODING 240
SWIDTH 480 0
DWIDTH 8 0
BBX 8 11 0 0
BITMAP
7C
7E
7E
7B
FB
F7
7E
3E
3C
38
30
ENDCHAR
STARTCHAR 00F1
ENCODING 241
SWIDTH 540 0
DWIDTH 9 0
BBX 9 14 0 0
BITMAP
1F00
1E00
0000
7B80
7B80
7B80
7B80
7B80
7F80
7F80
7F80
F700
F700
E700
ENDCHAR
STARTCHAR 00F2
ENCODING 242
SWIDTH 480 0
DWIDTH 8 0
BBX 9 14 0 0
BITMAP
6000
3000
1000
3C00
7E00
7F00
7F00
E780
E780
F780
7F00
7F00
7F00
1E00
ENDCHAR
STARTCHAR 00F3
ENCODING 243
SWIDTH 480 0
DWIDTH 8 0
BBX 9 14 0 0
BITMAP
1C00
1800
1000
3C00
7E00
7F00
7F00
E780
E780
F780
7F00
7F00
7F00
1E00
ENDCHAR
STARTCHAR 00F4
ENCODING 244
SWIDTH 480 0
DWIDTH 8 0
BBX 9 14 0 0
BITMAP
3800
6C00
1000
3C00
7E00
7F00
7F00
E780
E780
F780
7F00
7F00
7F00
1E00
ENDCHAR
STARTCHAR 00F5
ENCODING 245
SWIDTH 480 0
DWIDTH 8 0
BBX 9 14 0 1
BITMAP
7C00
7800
1000
3C00
7E00
7F00
7F00
E780
E780
F780
7F00
7F00
7F00
1E00
ENDCHAR
STARTCHAR 00F6
ENCODING 246
SWIDTH 480 0
DWIDTH 8 0
BBX 9 14 0 0
BITMAP
0800
6800
1000
3C00
7E00
7F00
7F00
E780
E780
F780
7F00
7F00
7F00
1E00
ENDCHAR
STARTCHAR 00F7
ENCODING 247
SWIDTH 480 0
DWIDTH 8 0
BBX 8 8 0 1
BITMAP
18
18
00
FF
FF
00
18
18
ENDCHAR
STARTCHAR 00F8
ENCODING 248
SWIDTH 480 0
DWIDTH 8 0
BBX 9 12 0 0
BITMAP
1380
3F80
7F00
7F00
7F00
EF80
FB80
FF80
7F00
7F00
7F00
DE00
ENDCHAR
STARTCHAR 00F9
ENCODING 249
SWIDTH 540 0
DWIDTH 9 0
BBX 9 14 0 0
BITMAP
1800
0C00
0000
7380
7380
6380
6380
E380
F380
FF80
7F00
7F00
7E00
1C00
ENDCHAR
STARTCHAR 00FA
ENCODING 250
SWIDTH 540 0
DWIDTH 9 0
BBX 9 14 0 0
BITMAP
0600
0400
0000
7380
7380
6380
6380
E380
F380
FF80
7F00
7F00
7E00
1C00
ENDCHAR
STARTCHAR 00FB
ENCODING 251
SWIDTH 540 0
DWIDTH 9 0
BBX 9 14 0 0
BITMAP
0E00
1B00
0000
7380
7380
6380
6380
E380
F380
FF80
7F00
7F00
7E00
1C00
ENDCHAR
STARTCHAR 00FC
ENCODING 252
SWIDTH 540 0
DWIDTH 9 0
BBX 9 13 0 1
BITMAP
1A00
0000
7380
7380
6380
6380
E380
F380
FF80
7F00
7F00
7E00
1C00
ENDCHAR
STARTCHAR 00FD
ENCODING 253
SWIDTH 600 0
DWIDTH 10 0
BBX 10 14 0 0
BITMAP
0700
0600
0000
61C0
F180
7380
3F00
3F00
1E00
1E00
0C00
0C00
0E00
0E00
ENDCHAR
STARTCHAR 00FE
ENCODING 254
SWIDTH 480 0
DWIDTH 8 0
BBX 8 11 0 0
BITMAP
E0
FC
FE
EE
63
77
77
7F
7E
70
70
ENDCHAR
STARTCHAR 00FF
ENCODING 255
SWIDTH 600 0
DWIDTH 10 0
BBX 10 14 0 0
BITMAP
0200
1A00
0000
61C0
F180
7380
3F00
3F00
1E00
1E00
0C00
0C00
0E00
0E00
ENDCHAR
STARTCHAR 0100
ENCODING 256
SWIDTH 600 0
DWIDTH 10 0
BBX 9 13 1 0
BITMAP
3E00
0000
0C00
1C00
1C00
1C00
3E00
3E00
6E00
7F00
FF00
E780
C780
ENDCHAR
STARTCHAR 0101
ENCODING 257
SWIDTH 600 0
DWIDTH 10 0
BBX 9 13 1 0
BITMAP
3E00
0000
0C00
1C00
1C00
1C00
3E00
3E00
6E00
7F00
FF00
E780
C780
ENDCHAR
STARTCHAR 0102
ENCODING 258
SWIDTH 600 0
DWIDTH 10 0
BBX 9 14 1 0
BITMAP
3600
1C00
0000
0C00
1C00
1C00
1C00
3E00
3E00
6E00
7F00
FF00
E780
C780
ENDCHAR
STARTCHAR 0103
ENCODING 259
SWIDTH 600 0
DWIDTH 10 0
BBX 9 14 1 0
BITMAP
3600
1C00
0000
0C00
1C00
1C00
1C00
3E00
3E00
6E00
7F00
FF00
E780
C780
ENDCHAR
STARTCHAR 0104
ENCODING 260
SWIDTH 600 0
DWIDTH 10 0
BBX 9 14 1 -3
BITMAP
0C00
1C00
1C00
1C00
3E00
3E00
6E00
7F00
FF00
E780
C780
0400
0D80
0780
ENDCHAR
STARTCHAR 0105
ENCODING 261
SWIDTH 600 0
DWIDTH 10 0
BBX 9 14 1 -3
BITMAP
0C00
1C00
1C00
1C00
3E00
3E00
6E00
7F00
FF00
E780
C780
0400
0D80
0780
ENDCHAR
STARTCHAR 0106
ENCODING 262
SWIDTH 480 0
DWIDTH 8 0
BBX 8 14 0 0
BITMAP
06
04
00
3E
7F
7F
F0
F0
F0
FF
7F
7F
7E
1C
ENDCHAR
STARTCHAR 0107
ENCODING 263
SWIDTH 480 0
DWIDTH 8 0
BBX 8 14 0 0
BITMAP
06
04
00
3E
7F
7F
F0
F0
F0
FF
7F
7F
7E
1C
ENDCHAR
STARTCHAR 0108
ENCODING 264
SWIDTH 480 0
DWIDTH 8 0
BBX 8 14 0 0
BITMAP
1E
3F
00
3E
7F
7F
F0
F0
F0
FF
7F
7F
7E
1C
ENDCHAR
STARTCHAR 0109
ENCODING 265
SWIDTH 480 0
DWIDTH 8 0
BBX 8 14 0 0
BITMAP
1E
3F
00
3E
7F
7F
F0
F0
F0
FF
7F
7F
7E
1C
ENDCHAR
STARTCHAR 010A
ENCODING 266
SWIDTH 480 0
DWIDTH 8 0
BBX 8 13 0 0
BITMAP
0C
00
3E
7F
7F
F0
F0
F0
FF
7F
7F
7E
1C
ENDCHAR
STARTCHAR 010B
ENCODING 267
SWIDTH 480 0
DWIDTH 8 0
BBX 8 13 0 0
BITMAP
0C
00
3E
7F
7F
F0
F0
F0
FF
7F
7F
7E
1C
ENDCHAR
STARTCHAR 010C
ENCODING 268
SWIDTH 480 0
DWIDTH 8 0
BBX 8 14 0 0
BITMAP
1E
0C
00
3E
7F
7F
F0
F0
F0
FF
7F
7F
7E
1C
ENDCHAR
STARTCHAR 010D
ENCODING 269
SWIDTH 480 0
DWIDTH 8 0
BBX 8 14 0 0
BITMAP
1E
0C
00
3E
7F
7F
F0
F0
F0
FF
7F
7F
7E
1C
ENDCHAR
STARTCHAR 010E
ENCODING 270
SWIDTH 420 0
DWIDTH 7 0
BBX 7 15 0 0
BITMAP
08
F8
30
00
F8
FC
FE
E6
E6
76
7E
7C
7C
78
20
ENDCHAR
STARTCHAR 010F
ENCODING 271
SWIDTH 420 0
DWIDTH 7 0
BBX 7 15 0 0
BITMAP
08
F8
30
00
F8
FC
FE
E6
E6
76
7E
7C
7C
78
20
ENDCHAR
STARTCHAR 0110
ENCODING 272
SWIDTH 480 0
DWIDTH 8 0
BBX 8 11 0 0
BITMAP
7C
7E
7E
7B
FB
F7
7E
3E
3C
38
30
ENDCHAR
STARTCHAR 0111
ENCODING 273
SWIDTH 480 0
DWIDTH 8 0
BBX 8 11 0 0
BITMAP
7C
7E
7E
7B
FB
F7
7E
3E
3C
38
30
ENDCHAR
STARTCHAR 0112
ENCODING 274
SWIDTH 480 0
DWIDTH 8 0
BBX 8 14 0 0
BITMAP
18
F8
38
FC
7C
7C
70
7C
7C
30
3F
3F
3F
38
ENDCHAR
STARTCHAR 0113
ENCODING 275
SWIDTH 480 0
DWIDTH 8 0
BBX 8 14 0 0
BITMAP
18
F8
38
FC
7C
7C
70
7C
7C
30
3F
3F
3F
38
ENDCHAR
STARTCHAR 0114
ENCODING 276
SWIDTH 480 0
DWIDTH 8 0
BBX 8 15 0 0
BITMAP
08
F8
70
38
FC
7C
7C
70
7C
7C
30
3F
3F
3F
38
ENDCHAR
STARTCHAR 0115
ENCODING 277
SWIDTH 480 0
DWIDTH 8 0
BBX 8 15 0 0
BITMAP
08
F8
70
38
FC
7C
7C
70
7C
7C
30
3F
3F
3F
38
ENDCHAR
STARTCHAR 0116
ENCODING 278
SWIDTH 480 0
DWIDTH 8 0
BBX 8 14 0 0
BITMAP
20
30
38
FC
7C
7C
70
7C
7C
30
3F
3F
3F
38
ENDCHAR
STARTCHAR 0117
ENCODING 279
SWIDTH 480 0
DWIDTH 8 0
BBX 8 14 0 0
BITMAP
20
30
38
FC
7C
7C
70
7C
7C
30
3F
3F
3F
38
ENDCHAR
STARTCHAR 0118
ENCODING 280
SWIDTH 480 0
DWIDTH 8 0
BBX 8 14 0 -2
BITMAP
38
FC
7C
7C
70
7C
7C
30
3F
3F
3F
38
08
0F
ENDCHAR
STARTCHAR 0119
ENCODING 281
SWIDTH 480 0
DWIDTH 8 0
BBX 8 14 0 -2
BITMAP
38
FC
7C
7C
70
7C
7C
30
3F
3F
3F
38
08
0F
ENDCHAR
STARTCHAR 011A
ENCODING 282
SWIDTH 480 0
DWIDTH 8 0
BBX 8 15 0 0
BITMAP
08
F8
30
38
FC
7C
7C
70
7C
7C
30
3F
3F
3F
38
ENDCHAR
STARTCHAR 011B
ENCODING 283
SWIDTH 480 0
DWIDTH 8 0
BBX 8 15 0 0
BITMAP
08
F8
30
38
FC
7C
7C
70
7C
7C
30
3F
3F
3F
38
ENDCHAR
STARTCHAR 011C
ENCODING 284
SWIDTH 480 0
DWIDTH 8 0
BBX 8 14 0 0
BITMAP
1C
36
00
1E
3F
70
60
63
67
E7
FF
FF
7E
38
ENDCHAR
STARTCHAR 011D
ENCODING 285
SWIDTH 480 0
DWIDTH 8 0
BBX 8 14 0 0
BITMAP
1C
36
00
1E
3F
70
60
63
67
E7
FF
FF
7E
38
ENDCHAR
STARTCHAR 011E
ENCODING 286
SWIDTH 480 0
DWIDTH 8 0
BBX 8 14 0 0
BITMAP
36
1C
00
1E
3F
70
60
63
67
E7
FF
FF
7E
38
ENDCHAR
STARTCHAR 011F
ENCODING 287
SWIDTH 480 0
DWIDTH 8 0
BBX 8 14 0 0
BITMAP
36
1C
00
1E
3F
70
60
63
67
E7
FF
FF
7E
38
ENDCHAR
STARTCHAR 0120
ENCODING 288
SWIDTH 480 0
DWIDTH 8 0
BBX 8 13 0 0
BITMAP
08
00
1E
3F
70
60
63
67
E7
FF
FF
7E
38
ENDCHAR
STARTCHAR 0121
ENCODING 289
SWIDTH 480 0
DWIDTH 8 0
BBX 8 13 0 0
BITMAP
08
00
1E
3F
70
60
63
67
E7
FF
FF
7E
38
ENDCHAR
STARTCHAR 0122
ENCODING 290
SWIDTH 480 0
DWIDTH 8 0
BBX 8 14 0 -3
BITMAP
1E
3F
70
60
63
67
E7
FF
FF
7E
38
30
30
30
ENDCHAR
STARTCHAR 0123
ENCODING 291
SWIDTH 480 0
DWIDTH 8 0
BBX 8 14 0 -3
BITMAP
1E
3F
70
60
63
67
E7
FF
FF
7E
38
30
30
30
ENDCHAR
STARTCHAR 0124
ENCODING 292
SWIDTH 540 0
DWIDTH 9 0
BBX 9 14 0 0
BITMAP
0E00
1F00
0000
7B80
7B80
7B80
7B80
7F80
7F80
7F80
7380
7380
7780
F600
ENDCHAR
STARTCHAR 0125
ENCODING 293
SWIDTH 540 0
DWIDTH 9 0
BBX 9 14 0 0
BITMAP
0E00
1F00
0000
7B80
7B80
7B80
7B80
7F80
7F80
7F80
7380
7380
7780
F600
ENDCHAR
STARTCHAR 0126
ENCODING 294
SWIDTH 540 0
DWIDTH 9 0
BBX 10 11 0 0
BITMAP
7B80
FFC0
FFC0
7B80
7F80
7F80
7F80
7380
7380
7780
F600
ENDCHAR
STARTCHAR 0127
ENCODING 295
SWIDTH 540 0
DWIDTH 9 0
BBX 10 11 0 0
BITMAP
7B80
FFC0
FFC0
7B80
7F80
7F80
7F80
7380
7380
7780
F600
ENDCHAR
STARTCHAR 0128
ENCODING 296
SWIDTH 300 0
DWIDTH 5 0
BBX 5 14 1 0
BITMAP
F8
F8
00
F0
70
F0
F0
F0
F0
F0
F0
F0
E0
E0
ENDCHAR
STARTCHAR 0129
ENCODING 297
SWIDTH 300 0
DWIDTH 5 0
BBX 5 14 1 0
BITMAP
F8
F8
00
F0
70
F0
F0
F0
F0
F0
F0
F0
E0
E0
ENDCHAR
STARTCHAR 012A
ENCODING 298
SWIDTH 300 0
DWIDTH 5 0
BBX 5 13 1 0
BITMAP
F8
00
F0
70
F0
F0
F0
F0
F0
F0
F0
E0
E0
ENDCHAR
STARTCHAR 012B
ENCODING 299
SWIDTH 300 0
DWIDTH 5 0
BBX 5 13 1 0
BITMAP
F8
00
F0
70
F0
F0
F0
F0
F0
F0
F0
E0
E0
ENDCHAR
STARTCHAR 012C
ENCODING 300
SWIDTH 300 0
DWIDTH 5 0
BBX 5 14 1 0
BITMAP
D8
70
00
F0
70
F0
F0
F0
F0
F0
F0
F0
E0
E0
ENDCHAR
STARTCHAR 012D
ENCODING 301
SWIDTH 300 0
DWIDTH 5 0
BBX 5 14 1 0
BITMAP
D8
70
00
F0
70
F0
F0
F0
F0
F0
F0
F0
E0
E0
ENDCHAR
STARTCHAR 012E
ENCODING 302
SWIDTH 300 0
DWIDTH 5 0
BBX 4 14 1 -3
BITMAP
F0
70
F0
F0
F0
F0
F0
F0
F0
E0
E0
C0
D0
F0
ENDCHAR
STARTCHAR 012F
ENCODING 303
SWIDTH 300 0
DWIDTH 5 0
BBX 4 14 1 -3
BITMAP
F0
70
F0
F0
F0
F0
F0
F0
F0
E0
E0
C0
D0
F0
ENDCHAR
STARTCHAR 0130
ENCODING 304
SWIDTH 300 0
DWIDTH 5 0
BBX 4 14 1 0
BITMAP
20
20
00
F0
70
F0
F0
F0
F0
F0
F0
F0
E0
E0
ENDCHAR
STARTCHAR 0131
ENCODING 305
SWIDTH 300 0
DWIDTH 5 0
BBX 4 14 1 0
BITMAP
20
20
00
F0
70
F0
F0
F0
F0
F0
F0
F0
E0
E0
ENDCHAR
STARTCHAR 0132
ENCODING 306
SWIDTH 600 0
DWIDTH 10 0
BBX 10 11 0 0
BITMAP
71C0
71C0
73C0
73C0
73C0
71C0
71C0
7DC0
7F80
7780
E700
ENDCHAR
STARTCHAR 0133
ENCODING 307
SWIDTH 600 0
DWIDTH 10 0
BBX 10 11 0 0
BITMAP
71C0
71C0
73C0
73C0
73C0
71C0
71C0
7DC0
7F80
7780
E700
ENDCHAR
STARTCHAR 0134
ENCODING 308
SWIDTH 420 0
DWIDTH 7 0
BBX 8 14 0 1
BITMAP
1E
1B
00
1E
1E
1E
1E
1E
1E
0E
EE
EE
7C
38
ENDCHAR
STARTCHAR 0135
ENCODING 309
SWIDTH 420 0
DWIDTH 7 0
BBX 8 14 0 1
BITMAP
1E
1B
00
1E
1E
1E
1E
1E
1E
0E
EE
EE
7C
38
ENDCHAR
STARTCHAR 0136
ENCODING 310
SWIDTH 540 0
DWIDTH 9 0
BBX 9 14 0 -2
BITMAP
7B00
7F00
FF00
FE00
FE00
FC00
FE00
FE00
FF00
FB80
FB00
0C00
0C00
0800
ENDCHAR
STARTCHAR 0137
ENCODING 311
SWIDTH 540 0
DWIDTH 9 0
BBX 9 14 0 -2
BITMAP
7B00
7F00
FF00
FE00
FE00
FC00
FE00
FE00
FF00
FB80
FB00
0C00
0C00
0800
ENDCHAR
STARTCHAR 0138
ENCODING 312
SWIDTH 480 0
DWIDTH 8 0
BBX 9 9 0 0
BITMAP
FA00
7F00
FE00
FE00
FC00
FC00
FE00
F700
FB80
ENDCHAR
STARTCHAR 0139
ENCODING 313
SWIDTH 480 0
DWIDTH 8 0
BBX 7 14 1 0
BITMAP
18
10
00
78
78
78
F8
F0
F0
F0
F0
FE
FE
FC
ENDCHAR
STARTCHAR 013A
ENCODING 314
SWIDTH 480 0
DWIDTH 8 0
BBX 7 14 1 0
BITMAP
18
10
00
78
78
78
F8
F0
F0
F0
F0
FE
FE
FC
ENDCHAR
STARTCHAR 013B
ENCODING 315
SWIDTH 480 0
DWIDTH 8 0
BBX 7 14 1 -3
BITMAP
78
78
78
F8
F0
F0
F0
F0
FE
FE
FC
30
30
20
ENDCHAR
STARTCHAR 013C
ENCODING 316
SWIDTH 480 0
DWIDTH 8 0
BBX 7 14 1 -3
BITMAP
78
78
78
F8
F0
F0
F0
F0
FE
FE
FC
30
30
20
ENDCHAR
STARTCHAR 013D
ENCODING 317
SWIDTH 480 0
DWIDTH 8 0
BBX 7 12 1 0
BITMAP
02
7A
7E
7E
F8
F0
F0
F0
F0
FE
FE
FC
ENDCHAR
STARTCHAR 013E
ENCODING 318
SWIDTH 480 0
DWIDTH 8 0
BBX 7 12 1 0
BITMAP
02
7A
7E
7E
F8
F0
F0
F0
F0
FE
FE
FC
ENDCHAR
STARTCHAR 013F
ENCODING 319
SWIDTH 480 0
DWIDTH 8 0
BBX 7 11 1 0
BITMAP
78
78
78
F8
F4
F4
F0
F0
FE
FE
FC
ENDCHAR
STARTCHAR 0140
ENCODING 320
SWIDTH 480 0
DWIDTH 8 0
BBX 7 11 1 0
BITMAP
78
78
78
F8
F4
F4
F0
F0
FE
FE
FC
ENDCHAR
STARTCHAR 0141
ENCODING 321
SWIDTH 540 0
DWIDTH 9 0
BBX 9 11 0 0
BITMAP
3E00
3D00
3F80
3F00
3E00
3C00
FC00
FC00
FF00
7F80
7E00
ENDCHAR
STARTCHAR 0142
ENCODING 322
SWIDTH 540 0
DWIDTH 9 0
BBX 9 11 0 0
BITMAP
3E00
3D00
3F80
3F00
3E00
3C00
FC00
FC00
FF00
7F80
7E00
ENDCHAR
STARTCHAR 0143
ENCODING 323
SWIDTH 540 0
DWIDTH 9 0
BBX 9 14 0 0
BITMAP
0300
0600
0000
7B80
7B80
7B80
7B80
7B80
7F80
7F80
7F80
F700
F700
E700
ENDCHAR
STARTCHAR 0144
ENCODING 324
SWIDTH 540 0
DWIDTH 9 0
BBX 9 14 0 0
BITMAP
0300
0600
0000
7B80
7B80
7B80
7B80
7B80
7F80
7F80
7F80
F700
F700
E700
ENDCHAR
STARTCHAR 0145
ENCODING 325
SWIDTH 540 0
DWIDTH 9 0
BBX 9 14 0 -3
BITMAP
7B80
7B80
7B80
7B80
7B80
7F80
7F80
7F80
F700
F700
E700
1800
1800
1000
ENDCHAR
STARTCHAR 0146
ENCODING 326
SWIDTH 540 0
DWIDTH 9 0
BBX 9 14 0 -3
BITMAP
7B80
7B80
7B80
7B80
7B80
7F80
7F80
7F80
F700
F700
E700
1800
1800
1000
ENDCHAR
STARTCHAR 0147
ENCODING 327
SWIDTH 540 0
DWIDTH 9 0
BBX 9 14 0 0
BITMAP
1B00
0E00
0000
7B80
7B80
7B80
7B80
7B80
7F80
7F80
7F80
F700
F700
E700
ENDCHAR
STARTCHAR 0148
ENCODING 328
SWIDTH 540 0
DWIDTH 9 0
BBX 9 14 0 0
BITMAP
1B00
0E00
0000
7B80
7B80
7B80
7B80
7B80
7F80
7F80
7F80
F700
F700
E700
ENDCHAR
STARTCHAR 0149
ENCODING 329
SWIDTH 600 0
DWIDTH 10 0
BBX 10 12 0 0
BITMAP
6000
7DC0
7DC0
FDC0
DFC0
5FC0
1FC0
1FC0
1FC0
1BC0
39C0
3980
ENDCHAR
STARTCHAR 014A
ENCODING 330
SWIDTH 540 0
DWIDTH 9 0
BBX 9 14 0 -2
BITMAP
4000
FE00
FF00
FF00
F780
E380
E380
E380
E380
6380
6300
6700
0F00
0E00
ENDCHAR
STARTCHAR 014B
ENCODING 331
SWIDTH 540 0
DWIDTH 9 0
BBX 9 14 0 -2
BITMAP
4000
FE00
FF00
FF00
F780
E380
E380
E380
E380
6380
6300
6700
0F00
0E00
ENDCHAR
STARTCHAR 014C
ENCODING 332
SWIDTH 480 0
DWIDTH 8 0
BBX 9 13 0 0
BITMAP
7C00
1000
3C00
7E00
7F00
7F00
E780
E780
F780
7F00
7F00
7F00
1E00
ENDCHAR
STARTCHAR 014D
ENCODING 333
SWIDTH 480 0
DWIDTH 8 0
BBX 9 13 0 0
BITMAP
7C00
1000
3C00
7E00
7F00
7F00
E780
E780
F780
7F00
7F00
7F00
1E00
ENDCHAR
STARTCHAR 014E
ENCODING 334
SWIDTH 480 0
DWIDTH 8 0
BBX 9 14 0 0
BITMAP
7C00
3800
1000
3C00
7E00
7F00
7F00
E780
E780
F780
7F00
7F00
7F00
1E00
ENDCHAR
STARTCHAR 014F
ENCODING 335
SWIDTH 480 0
DWIDTH 8 0
BBX 9 14 0 0
BITMAP
7C00
3800
1000
3C00
7E00
7F00
7F00
E780
E780
F780
7F00
7F00
7F00
1E00
ENDCHAR
STARTCHAR 0150
ENCODING 336
SWIDTH 480 0
DWIDTH 8 0
BBX 9 14 0 0
BITMAP
3600
6C00
1000
3C00
7E00
7F00
7F00
E780
E780
F780
7F00
7F00
7F00
1E00
ENDCHAR
STARTCHAR 0151
ENCODING 337
SWIDTH 480 0
DWIDTH 8 0
BBX 9 14 0 0
BITMAP
3600
6C00
1000
3C00
7E00
7F00
7F00
E780
E780
F780
7F00
7F00
7F00
1E00
ENDCHAR
STARTCHAR 0152
ENCODING 338
SWIDTH 720 0
DWIDTH 12 0
BBX 12 12 0 0
BITMAP
0500
1FC0
3FC0
7FC0
7F00
77C0
E3C0
F700
FFF0
7FF0
7FF0
3FC0
ENDCHAR
STARTCHAR 0153
ENCODING 339
SWIDTH 720 0
DWIDTH 12 0
BBX 12 12 0 0
BITMAP
0500
1FC0
3FC0
7FC0
7F00
77C0
E3C0
F700
FFF0
7FF0
7FF0
3FC0
ENDCHAR
STARTCHAR 0154
ENCODING 340
SWIDTH 540 0
DWIDTH 9 0
BBX 10 14 0 0
BITMAP
1800
3000
0000
FE00
F700
F300
F300
7F00
7E00
7E00
7F00
7B00
7B80
79C0
ENDCHAR
STARTCHAR 0155
ENCODING 341
SWIDTH 540 0
DWIDTH 9 0
BBX 10 14 0 0
BITMAP
1800
3000
0000
FE00
F700
F300
F300
7F00
7E00
7E00
7F00
7B00
7B80
79C0
ENDCHAR
STARTCHAR 0156
ENCODING 342
SWIDTH 540 0
DWIDTH 9 0
BBX 10 14 0 -3
BITMAP
FE00
F700
F300
F300
7F00
7E00
7E00
7F00
7B00
7B80
79C0
0E00
0E00
0C00
ENDCHAR
STARTCHAR 0157
ENCODING 343
SWIDTH 540 0
DWIDTH 9 0
BBX 10 14 0 -3
BITMAP
FE00
F700
F300
F300
7F00
7E00
7E00
7F00
7B00
7B80
79C0
0E00
0E00
0C00
ENDCHAR
STARTCHAR 0158
ENCODING 344
SWIDTH 540 0
DWIDTH 9 0
BBX 10 15 0 0
BITMAP
0800
F800
7000
0000
FE00
F700
F300
F300
7F00
7E00
7E00
7F00
7B00
7B80
79C0
ENDCHAR
STARTCHAR 0159
ENCODING 345
SWIDTH 540 0
DWIDTH 9 0
BBX 10 15 0 0
BITMAP
0800
F800
7000
0000
FE00
F700
F300
F300
7F00
7E00
7E00
7F00
7B00
7B80
79C0
ENDCHAR
STARTCHAR 015A
ENCODING 346
SWIDTH 480 0
DWIDTH 8 0
BBX 8 14 0 0
BITMAP
06
0C
08
3F
7E
7E
7E
70
3E
0E
07
FF
FE
7C
ENDCHAR
STARTCHAR 015B
ENCODING 347
SWIDTH 480 0
DWIDTH 8 0
BBX 8 14 0 0
BITMAP
06
0C
08
3F
7E
7E
7E
70
3E
0E
07
FF
FE
7C
ENDCHAR
STARTCHAR 015C
ENCODING 348
SWIDTH 480 0
DWIDTH 8 0
BBX 8 14 0 0
BITMAP
1C
3E
08
3F
7E
7E
7E
70
3E
0E
07
FF
FE
7C
ENDCHAR
STARTCHAR 015D
ENCODING 349
SWIDTH 480 0
DWIDTH 8 0
BBX 8 14 0 0
BITMAP
1C
3E
08
3F
7E
7E
7E
70
3E
0E
07
FF
FE
7C
ENDCHAR
STARTCHAR 015E
ENCODING 350
SWIDTH 480 0
DWIDTH 8 0
BBX 8 15 0 -3
BITMAP
08
3F
7E
7E
7E
70
3E
0E
07
FF
FE
7C
18
2C
3C
ENDCHAR
STARTCHAR 015F
ENCODING 351
SWIDTH 480 0
DWIDTH 8 0
BBX 8 15 0 -3
BITMAP
08
3F
7E
7E
7E
70
3E
0E
07
FF
FE
7C
18
2C
3C
ENDCHAR
STARTCHAR 0160
ENCODING 352
SWIDTH 480 0
DWIDTH 8 0
BBX 8 14 0 0
BITMAP
3E
1C
08
3F
7E
7E
7E
70
3E
0E
07
FF
FE
7C
ENDCHAR
STARTCHAR 0161
ENCODING 353
SWIDTH 480 0
DWIDTH 8 0
BBX 8 14 0 0
BITMAP
3E
1C
08
3F
7E
7E
7E
70
3E
0E
07
FF
FE
7C
ENDCHAR
STARTCHAR 0162
ENCODING 354
SWIDTH 540 0
DWIDTH 9 0
BBX 9 14 0 -3
BITMAP
FF80
FF80
FF80
CE00
0C00
0C00
0C00
0C00
0C00
0C00
0C00
0C00
1600
1E00
ENDCHAR
STARTCHAR 0163
ENCODING 355
SWIDTH 540 0
DWIDTH 9 0
BBX 9 14 0 -3
BITMAP
FF80
FF80
FF80
CE00
0C00
0C00
0C00
0C00
0C00
0C00
0C00
0C00
1600
1E00
ENDCHAR
STARTCHAR 0164
ENCODING 356
SWIDTH 540 0
DWIDTH 9 0
BBX 9 14 0 0
BITMAP
1E00
0C00
0000
FF80
FF80
FF80
CE00
0C00
0C00
0C00
0C00
0C00
0C00
0C00
ENDCHAR
STARTCHAR 0165
ENCODING 357
SWIDTH 540 0
DWIDTH 9 0
BBX 9 14 0 0
BITMAP
1E00
0C00
0000
FF80
FF80
FF80
CE00
0C00
0C00
0C00
0C00
0C00
0C00
0C00
ENDCHAR
STARTCHAR 0166
ENCODING 358
SWIDTH 540 0
DWIDTH 9 0
BBX 9 11 0 0
BITMAP
FF80
FF80
FF80
CE00
0C00
7F00
7F00
0C00
0C00
0C00
0C00
ENDCHAR
STARTCHAR 0167
ENCODING 359
SWIDTH 540 0
DWIDTH 9 0
BBX 9 11 0 0
BITMAP
FF80
FF80
FF80
CE00
0C00
7F00
7F00
0C00
0C00
0C00
0C00
ENDCHAR
STARTCHAR 0168
ENCODING 360
SWIDTH 540 0
DWIDTH 9 0
BBX 9 14 0 0
BITMAP
1F00
1E00
0000
7380
7380
6380
6380
E380
F380
FF80
7F00
7F00
7E00
1C00
ENDCHAR
STARTCHAR 0169
ENCODING 361
SWIDTH 540 0
DWIDTH 9 0
BBX 9 14 0 0
BITMAP
1F00
1E00
0000
7380
7380
6380
6380
E380
F380
FF80
7F00
7F00
7E00
1C00
ENDCHAR
STARTCHAR 016A
ENCODING 362
SWIDTH 540 0
DWIDTH 9 0
BBX 9 13 0 0
BITMAP
1F00
0000
7380
7380
6380
6380
E380
F380
FF80
7F00
7F00
7E00
1C00
ENDCHAR
STARTCHAR 016B
ENCODING 363
SWIDTH 540 0
DWIDTH 9 0
BBX 9 13 0 0
BITMAP
1F00
0000
7380
7380
6380
6380
E380
F380
FF80
7F00
7F00
7E00
1C00
ENDCHAR
STARTCHAR 016C
ENCODING 364
SWIDTH 540 0
DWIDTH 9 0
BBX 9 14 0 0
BITMAP
1B00
0E00
0000
7380
7380
6380
6380
E380
F380
FF80
7F00
7F00
7E00
1C00
ENDCHAR
STARTCHAR 016D
ENCODING 365
SWIDTH 540 0
DWIDTH 9 0
BBX 9 14 0 0
BITMAP
1B00
0E00
0000
7380
7380
6380
6380
E380
F380
FF80
7F00
7F00
7E00
1C00
ENDCHAR
STARTCHAR 016E
ENCODING 366
SWIDTH 540 0
DWIDTH 9 0
BBX 9 15 0 0
BITMAP
1E00
1300
1A00
0C00
7380
7380
6380
6380
E380
F380
FF80
7F00
7F00
7E00
1C00
ENDCHAR
STARTCHAR 016F
ENCODING 367
SWIDTH 540 0
DWIDTH 9 0
BBX 9 15 0 0
BITMAP
1E00
1300
1A00
0C00
7380
7380
6380
6380
E380
F380
FF80
7F00
7F00
7E00
1C00
ENDCHAR
STARTCHAR 0170
ENCODING 368
SWIDTH 540 0
DWIDTH 9 0
BBX 9 14 0 0
BITMAP
0D80
1B00
0000
7380
7380
6380
6380
E380
F380
FF80
7F00
7F00
7E00
1C00
ENDCHAR
STARTCHAR 0171
ENCODING 369
SWIDTH 540 0
DWIDTH 9 0
BBX 9 14 0 0
BITMAP
0D80
1B00
0000
7380
7380
6380
6380
E380
F380
FF80
7F00
7F00
7E00
1C00
ENDCHAR
STARTCHAR 0172
ENCODING 370
SWIDTH 540 0
DWIDTH 9 0
BBX 9 14 0 -3
BITMAP
7380
7380
6380
6380
E380
F380
FF80
7F00
7F00
7E00
1C00
1000
1E00
1E00
ENDCHAR
STARTCHAR 0173
ENCODING 371
SWIDTH 540 0
DWIDTH 9 0
BBX 9 14 0 -3
BITMAP
7380
7380
6380
6380
E380
F380
FF80
7F00
7F00
7E00
1C00
1000
1E00
1E00
ENDCHAR
STARTCHAR 0174
ENCODING 372
SWIDTH 720 0
DWIDTH 12 0
BBX 12 14 0 1
BITMAP
0F00
0D00
0040
E270
F260
72E0
7FE0
7FE0
3FE0
3FC0
1DC0
1DC0
0CC0
0800
ENDCHAR
STARTCHAR 0175
ENCODING 373
SWIDTH 720 0
DWIDTH 12 0
BBX 12 14 0 1
BITMAP
0F00
0D00
0040
E270
F260
72E0
7FE0
7FE0
3FE0
3FC0
1DC0
1DC0
0CC0
0800
ENDCHAR
STARTCHAR 0176
ENCODING 374
SWIDTH 600 0
DWIDTH 10 0
BBX 10 14 0 1
BITMAP
1E00
1A00
0000
61C0
F180
7380
3F00
3F00
1E00
1E00
0C00
0C00
0E00
0E00
ENDCHAR
STARTCHAR 0177
ENCODING 375
SWIDTH 600 0
DWIDTH 10 0
BBX 10 14 0 1
BITMAP
1E00
1A00
0000
61C0
F180
7380
3F00
3F00
1E00
1E00
0C00
0C00
0E00
0E00
ENDCHAR
STARTCHAR 0178
ENCODING 376
SWIDTH 600 0
DWIDTH 10 0
BBX 10 14 0 0
BITMAP
0200
1A00
0000
61C0
F180
7380
3F00
3F00
1E00
1E00
0C00
0C00
0E00
0E00
ENDCHAR
STARTCHAR 0179
ENCODING 377
SWIDTH 600 0
DWIDTH 10 0
BBX 10 14 0 0
BITMAP
0E00
0C00
0400
7F00
FE00
EE00
0C00
0C00
1C00
1C00
3800
3FC0
3F80
0F00
ENDCHAR
STARTCHAR 017A
ENCODING 378
SWIDTH 600 0
DWIDTH 10 0
BBX 10 14 0 0
BITMAP
0E00
0C00
0400
7F00
FE00
EE00
0C00
0C00
1C00
1C00
3800
3FC0
3F80
0F00
ENDCHAR
STARTCHAR 017B
ENCODING 379
SWIDTH 600 0
DWIDTH 10 0
BBX 10 14 0 0
BITMAP
0800
1800
0400
7F00
FE00
EE00
0C00
0C00
1C00
1C00
3800
3FC0
3F80
0F00
ENDCHAR
STARTCHAR 017C
ENCODING 380
SWIDTH 600 0
DWIDTH 10 0
BBX 10 14 0 0
BITMAP
0800
1800
0400
7F00
FE00
EE00
0C00
0C00
1C00
1C00
3800
3FC0
3F80
0F00
ENDCHAR
STARTCHAR 017D
ENCODING 381
SWIDTH 600 0
DWIDTH 10 0
BBX 10 14 0 0
BITMAP
3E00
1C00
0400
7F00
FE00
EE00
0C00
0C00
1C00
1C00
3800
3FC0
3F80
0F00
ENDCHAR
STARTCHAR 017E
ENCODING 382
SWIDTH 600 0
DWIDTH 10 0
BBX 10 14 0 0
BITMAP
3E00
1C00
0400
7F00
FE00
EE00
0C00
0C00
1C00
1C00
3800
3FC0
3F80
0F00
ENDCHAR
STARTCHAR 017F
ENCODING 383
SWIDTH 420 0
DWIDTH 7 0
BBX 7 14 0 -2
BITMAP
10
7E
7E
E0
E0
E0
60
60
60
60
60
60
60
60
ENDCHAR
STARTCHAR 0180
ENCODING 384
SWIDTH 480 0
DWIDTH 8 0
BBX 8 11 0 1
BITMAP
FC
FE
66
66
7C
7E
77
FB
FF
7E
3C
ENDCHAR
STARTCHAR 0181
ENCODING 385
SWIDTH 660 0
DWIDTH 11 0
BBX 11 11 0 1
BITMAP
7F80
7F80
FDC0
DC80
5F80
6FC0
6EE0
0EE0
0FE0
0FC0
0F00
ENDCHAR
STARTCHAR 0186
ENCODING 390
SWIDTH 480 0
DWIDTH 8 0
BBX 8 11 0 0
BITMAP
7C
FE
FF
0F
07
0F
FF
FF
FE
7E
38
ENDCHAR
STARTCHAR 0187
ENCODING 391
SWIDTH 480 0
DWIDTH 8 0
BBX 8 14 0 0
BITMAP
07
0F
0E
3E
7F
7F
F0
F0
F0
FF
7F
7F
7E
1C
ENDCHAR
STARTCHAR 0188
ENCODING 392
SWIDTH 480 0
DWIDTH 8 0
BBX 8 14 0 0
BITMAP
07
0F
0E
3E
7F
7F
F0
F0
F0
FF
7F
7F
7E
1C
ENDCHAR
STARTCHAR 0189
ENCODING 393
SWIDTH 480 0
DWIDTH 8 0
BBX 8 11 0 0
BITMAP
7C
7E
7E
7B
FB
F7
7E
3E
3C
38
30
ENDCHAR
STARTCHAR 018A
ENCODING 394
SWIDTH 600 0
DWIDTH 10 0
BBX 10 11 0 0
BITMAP
7F00
7F80
FFC0
DCC0
5CC0
6CC0
6FC0
0F80
0F80
0F00
0400
ENDCHAR
STARTCHAR 018F
ENCODING 399
SWIDTH 480 0
DWIDTH 8 0
BBX 8 11 0 0
BITMAP
7C
FE
06
06
FF
FF
E7
7F
7F
7E
1C
ENDCHAR
STARTCHAR 0190
ENCODING 400
SWIDTH 480 0
DWIDTH 8 0
BBX 8 12 0 0
BITMAP
18
7E
7E
E0
E0
7C
3C
70
70
7F
7F
3E
ENDCHAR
STARTCHAR 0191
ENCODING 401
SWIDTH 480 0
DWIDTH 8 0
BBX 9 14 -1 -2
BITMAP
0780
7F80
7F80
7000
7000
7C00
7C00
7000
7000
7000
7000
7000
F000
E000
ENDCHAR
STARTCHAR 0192
ENCODING 402
SWIDTH 480 0
DWIDTH 8 0
BBX 9 14 -1 -2
BITMAP
0780
7F80
7F80
7000
7000
7C00
7C00
7000
7000
7000
7000
7000
F000
E000
ENDCHAR
STARTCHAR 0193
ENCODING 403
SWIDTH 480 0
DWIDTH 8 0
BBX 8 14 0 0
BITMAP
07
0F
0E
1E
3F
70
60
63
67
E7
FF
FF
7E
38
ENDCHAR
STARTCHAR 0194
ENCODING 404
SWIDTH 600 0
DWIDTH 10 0
BBX 10 13 0 -2
BITMAP
E180
61C0
7380
7380
3700
3F00
1E00
0E00
1E00
3600
3200
1E00
1C00
ENDCHAR
STARTCHAR 0197
ENCODING 407
SWIDTH 360 0
DWIDTH 6 0
BBX 6 11 0 0
BITMAP
38
38
38
38
FC
FC
78
78
78
78
70
ENDCHAR
STARTCHAR 0198
ENCODING 408
SWIDTH 600 0
DWIDTH 10 0
BBX 10 12 0 0
BITMAP
0100
7B80
7FC0
FEC0
FEC0
FD80
FD80
FE00
FE00
FF00
FB80
FB00
ENDCHAR
STARTCHAR 0199
ENCODING 409
SWIDTH 600 0
DWIDTH 10 0
BBX 10 12 0 0
BITMAP
0100
7B80
7FC0
FEC0
FEC0
FD80
FD80
FE00
FE00
FF00
FB80
FB00
ENDCHAR
STARTCHAR 019D
ENCODING 413
SWIDTH 540 0
DWIDTH 9 0
BBX 10 13 -1 -2
BITMAP
3DC0
3DC0
3DC0
3DC0
3DC0
3FC0
3FC0
3FC0
7B80
7B80
7380
F000
E000
ENDCHAR
STARTCHAR 01A0
ENCODING 416
SWIDTH 540 0
DWIDTH 9 0
BBX 9 12 0 0
BITMAP
1180
3D80
7E80
7F80
7F00
E780
E780
F780
7F00
7F00
7F00
1E00
ENDCHAR
STARTCHAR 01A1
ENCODING 417
SWIDTH 540 0
DWIDTH 9 0
BBX 9 12 0 0
BITMAP
1180
3D80
7E80
7F80
7F00
E780
E780
F780
7F00
7F00
7F00
1E00
ENDCHAR
STARTCHAR 01AF
ENCODING 431
SWIDTH 600 0
DWIDTH 10 0
BBX 10 12 0 0
BITMAP
00C0
E6C0
E740
E7C0
E780
E700
E700
7F00
7F00
7F00
3E00
1C00
ENDCHAR
STARTCHAR 01B0
ENCODING 432
SWIDTH 600 0
DWIDTH 10 0
BBX 10 12 0 0
BITMAP
00C0
E6C0
E740
E7C0
E780
E700
E700
7F00
7F00
7F00
3E00
1C00
ENDCHAR
STARTCHAR 01B1
ENCODING 433
SWIDTH 600 0
DWIDTH 10 0
BBX 10 12 0 0
BITMAP
F3C0
FBC0
F3C0
7180
6180
61C0
E1C0
E1C0
73C0
7F80
7F00
3E00
ENDCHAR
STARTCHAR 01B2
ENCODING 434
SWIDTH 540 0
DWIDTH 9 0
BBX 9 12 0 0
BITMAP
0400
EE00
E700
E380
E380
E380
7380
7F80
7F80
3F00
3F00
1C00
ENDCHAR
STARTCHAR 01B3
ENCODING 435
SWIDTH 660 0
DWIDTH 11 0
BBX 11 11 0 0
BITMAP
61C0
F3E0
73E0
3F60
3F60
1EC0
1EC0
0C00
0C00
0E00
0E00
ENDCHAR
STARTCHAR 01B4
ENCODING 436
SWIDTH 660 0
DWIDTH 11 0
BBX 11 11 0 0
BITMAP
61C0
F3E0
73E0
3F60
3F60
1EC0
1EC0
0C00
0C00
0E00
0E00
ENDCHAR
STARTCHAR 01B5
ENCODING 437
SWIDTH 600 0
DWIDTH 10 0
BBX 10 12 0 0
BITMAP
0400
7F00
FE00
EE00
0C00
7F00
7F00
1C00
3800
3FC0
3F80
0F00
ENDCHAR
STARTCHAR 01B6
ENCODING 438
SWIDTH 600 0
DWIDTH 10 0
BBX 10 12 0 0
BITMAP
0400
7F00
FE00
EE00
0C00
7F00
7F00
1C00
3800
3FC0
3F80
0F00
ENDCHAR
STARTCHAR 01B7
ENCODING 439
SWIDTH 480 0
DWIDTH 8 0
BBX 8 11 0 0
BITMAP
7E
7E
0C
1C
7E
3F
03
03
FF
FE
3E
ENDCHAR
STARTCHAR 01BB
ENCODING 443
SWIDTH 480 0
DWIDTH 8 0
BBX 8 12 0 0
BITMAP
10
7C
FC
6C
0C
7F
7F
1F
3F
3F
7F
38
ENDCHAR
STARTCHAR 01C0
ENCODING 448
SWIDTH 180 0
DWIDTH 3 0
BBX 3 11 0 0
BITMAP
E0
E0
E0
E0
E0
E0
E0
E0
E0
E0
E0
ENDCHAR
STARTCHAR 01C1
ENCODING 449
SWIDTH 300 0
DWIDTH 5 0
BBX 5 12 0 0
BITMAP
08
D8
D8
D8
D8
D8
D8
D8
D8
D8
D8
D8
ENDCHAR
STARTCHAR 01C2
ENCODING 450
SWIDTH 300 0
DWIDTH 5 0
BBX 5 11 0 0
BITMAP
30
70
F8
F8
F0
70
70
F8
F8
30
30
ENDCHAR
STARTCHAR 01C3
ENCODING 451
SWIDTH 180 0
DWIDTH 3 0
BBX 3 12 0 0
BITMAP
60
E0
E0
E0
E0
E0
E0
60
00
60
E0
60
ENDCHAR
STARTCHAR 01CA
ENCODING 458
SWIDTH 720 0
DWIDTH 12 0
BBX 12 11 0 0
BITMAP
6E70
6E70
7E70
7C70
7C70
7C70
7C70
FDF0
EDF0
EDE0
ECE0
ENDCHAR
STARTCHAR 01CB
ENCODING 459
SWIDTH 720 0
DWIDTH 12 0
BBX 12 11 0 0
BITMAP
6E70
6E70
7E70
7C70
7C70
7C70
7C70
FDF0
EDF0
EDE0
ECE0
ENDCHAR
STARTCHAR 01CC
ENCODING 460
SWIDTH 720 0
DWIDTH 12 0
BBX 12 11 0 0
BITMAP
6E70
6E70
7E70
7C70
7C70
7C70
7C70
FDF0
EDF0
EDE0
ECE0
ENDCHAR
STARTCHAR 01CD
ENCODING 461
SWIDTH 600 0
DWIDTH 10 0
BBX 9 14 1 0
BITMAP
3E00
1C00
0000
0C00
1C00
1C00
1C00
3E00
3E00
6E00
7F00
FF00
E780
C780
ENDCHAR
STARTCHAR 01CE
ENCODING 462
SWIDTH 600 0
DWIDTH 10 0
BBX 9 14 1 0
BITMAP
3E00
1C00
0000
0C00
1C00
1C00
1C00
3E00
3E00
6E00
7F00
FF00
E780
C780
ENDCHAR
STARTCHAR 01CF
ENCODING 463
SWIDTH 300 0
DWIDTH 5 0
BBX 5 14 1 0
BITMAP
F8
70
00
F0
70
F0
F0
F0
F0
F0
F0
F0
E0
E0
ENDCHAR
STARTCHAR 01D0
ENCODING 464
SWIDTH 300 0
DWIDTH 5 0
BBX 5 14 1 0
BITMAP
F8
70
00
F0
70
F0
F0
F0
F0
F0
F0
F0
E0
E0
ENDCHAR
STARTCHAR 01D1
ENCODING 465
SWIDTH 480 0
DWIDTH 8 0
BBX 9 14 0 0
BITMAP
7800
3000
1000
3C00
7E00
7F00
7F00
E780
E780
F780
7F00
7F00
7F00
1E00
ENDCHAR
STARTCHAR 01D2
ENCODING 466
SWIDTH 480 0
DWIDTH 8 0
BBX 9 14 0 0
BITMAP
7800
3000
1000
3C00
7E00
7F00
7F00
E780
E780
F780
7F00
7F00
7F00
1E00
ENDCHAR
STARTCHAR 01D3
ENCODING 467
SWIDTH 540 0
DWIDTH 9 0
BBX 9 14 0 0
BITMAP
1F00
0E00
0000
7380
7380
6380
6380
E380
F380
FF80
7F00
7F00
7E00
1C00
ENDCHAR
STARTCHAR 01D4
ENCODING 468
SWIDTH 540 0
DWIDTH 9 0
BBX 9 14 0 0
BITMAP
1F00
0E00
0000
7380
7380
6380
6380
E380
F380
FF80
7F00
7F00
7E00
1C00
ENDCHAR
STARTCHAR 01D5
ENCODING 469
SWIDTH 540 0
DWIDTH 9 0
BBX 9 15 0 0
BITMAP
1F00
0000
1A00
0000
7380
7380
6380
6380
E380
F380
FF80
7F00
7F00
7E00
1C00
ENDCHAR
STARTCHAR 01D6
ENCODING 470
SWIDTH 540 0
DWIDTH 9 0
BBX 9 15 0 0
BITMAP
1F00
0000
1A00
0000
7380
7380
6380
6380
E380
F380
FF80
7F00
7F00
7E00
1C00
ENDCHAR
STARTCHAR 01D7
ENCODING 471
SWIDTH 540 0
DWIDTH 9 0
BBX 9 15 0 0
BITMAP
0600
0C00
1A00
0000
7380
7380
6380
6380
E380
F380
FF80
7F00
7F00
7E00
1C00
ENDCHAR
STARTCHAR 01D8
ENCODING 472
SWIDTH 540 0
DWIDTH 9 0
BBX 9 15 0 0
BITMAP
0600
0C00
1A00
0000
7380
7380
6380
6380
E380
F380
FF80
7F00
7F00
7E00
1C00
ENDCHAR
STARTCHAR 01D9
ENCODING 473
SWIDTH 540 0
DWIDTH 9 0
BBX 9 15 0 0
BITMAP
1F00
0C00
1A00
0000
7380
7380
6380
6380
E380
F380
FF80
7F00
7F00
7E00
1C00
ENDCHAR
STARTCHAR 01DA
ENCODING 474
SWIDTH 540 0
DWIDTH 9 0
BBX 9 15 0 0
BITMAP
1F00
0C00
1A00
0000
7380
7380
6380
6380
E380
F380
FF80
7F00
7F00
7E00
1C00
ENDCHAR
STARTCHAR 01DB
ENCODING 475
SWIDTH 540 0
DWIDTH 9 0
BBX 9 15 0 0
BITMAP
1800
0C00
1A00
0000
7380
7380
6380
6380
E380
F380
FF80
7F00
7F00
7E00
1C00
ENDCHAR
STARTCHAR 01DC
ENCODING 476
SWIDTH 540 0
DWIDTH 9 0
BBX 9 15 0 0
BITMAP
1800
0C00
1A00
0000
7380
7380
6380
6380
E380
F380
FF80
7F00
7F00
7E00
1C00
ENDCHAR
STARTCHAR 01DE
ENCODING 478
SWIDTH 600 0
DWIDTH 10 0
BBX 9 15 1 0
BITMAP
3E00
0000
3600
0000
0C00
1C00
1C00
1C00
3E00
3E00
6E00
7F00
FF00
E780
C780
ENDCHAR
STARTCHAR 01DF
ENCODING 479
SWIDTH 600 0
DWIDTH 10 0
BBX 9 15 1 0
BITMAP
3E00
0000
3600
0000
0C00
1C00
1C00
1C00
3E00
3E00
6E00
7F00
FF00
E780
C780
ENDCHAR
STARTCHAR 01E0
ENCODING 480
SWIDTH 600 0
DWIDTH 10 0
BBX 9 15 1 0
BITMAP
3E00
0000
0C00
0000
0C00
1C00
1C00
1C00
3E00
3E00
6E00
7F00
FF00
E780
C780
ENDCHAR
STARTCHAR 01E1
ENCODING 481
SWIDTH 600 0
DWIDTH 10 0
BBX 9 15 1 0
BITMAP
3E00
0000
0C00
0000
0C00
1C00
1C00
1C00
3E00
3E00
6E00
7F00
FF00
E780
C780
ENDCHAR
STARTCHAR 01E2
ENCODING 482
SWIDTH 720 0
DWIDTH 12 0
BBX 12 13 0 0
BITMAP
07C0
0100
07C0
0FC0
0FC0
0F00
1FC0
1FC0
3700
3FF0
7FF0
73F0
E3C0
ENDCHAR
STARTCHAR 01E3
ENCODING 483
SWIDTH 720 0
DWIDTH 12 0
BBX 12 13 0 0
BITMAP
07C0
0100
07C0
0FC0
0FC0
0F00
1FC0
1FC0
3700
3FF0
7FF0
73F0
E3C0
ENDCHAR
STARTCHAR 01E4
ENCODING 484
SWIDTH 540 0
DWIDTH 9 0
BBX 9 11 0 0
BITMAP
1F00
1F80
3800
F800
F980
7780
7780
7F80
7F80
3E00
1800
ENDCHAR
STARTCHAR 01E5
ENCODING 485
SWIDTH 540 0
DWIDTH 9 0
BBX 9 11 0 0
BITMAP
1F00
1F80
3800
F800
F980
7780
7780
7F80
7F80
3E00
1800
ENDCHAR
STARTCHAR 01E6
ENCODING 486
SWIDTH 480 0
DWIDTH 8 0
BBX 8 14 0 0
BITMAP
3E
1C
00
1E
3F
70
60
63
67
E7
FF
FF
7E
38
ENDCHAR
STARTCHAR 01E7
ENCODING 487
SWIDTH 480 0
DWIDTH 8 0
BBX 8 14 0 0
BITMAP
3E
1C
00
1E
3F
70
60
63
67
E7
FF
FF
7E
38
ENDCHAR
STARTCHAR 01E8
ENCODING 488
SWIDTH 540 0
DWIDTH 9 0
BBX 9 14 0 0
BITMAP
1B00
0E00
0000
7B00
7F00
FF00
FE00
FE00
FC00
FE00
FE00
FF00
FB80
FB00
ENDCHAR
STARTCHAR 01E9
ENCODING 489
SWIDTH 540 0
DWIDTH 9 0
BBX 9 14 0 0
BITMAP
1B00
0E00
0000
7B00
7F00
FF00
FE00
FE00
FC00
FE00
FE00
FF00
FB80
FB00
ENDCHAR
STARTCHAR 01EA
ENCODING 490
SWIDTH 480 0
DWIDTH 8 0
BBX 9 15 0 -3
BITMAP
1000
3C00
7E00
7F00
7F00
E780
E780
F780
7F00
7F00
7F00
1E00
0800
1F00
0F00
ENDCHAR
STARTCHAR 01EB
ENCODING 491
SWIDTH 480 0
DWIDTH 8 0
BBX 9 15 0 -3
BITMAP
1000
3C00
7E00
7F00
7F00
E780
E780
F780
7F00
7F00
7F00
1E00
0800
1F00
0F00
ENDCHAR
STARTCHAR 01EC
ENCODING 492
SWIDTH 480 0
DWIDTH 8 0
BBX 9 16 0 -3
BITMAP
7C00
1000
3C00
7E00
7F00
7F00
E780
E780
F780
7F00
7F00
7F00
1E00
0800
1F00
0F00
ENDCHAR
STARTCHAR 01ED
ENCODING 493
SWIDTH 480 0
DWIDTH 8 0
BBX 9 16 0 -3
BITMAP
7C00
1000
3C00
7E00
7F00
7F00
E780
E780
F780
7F00
7F00
7F00
1E00
0800
1F00
0F00
ENDCHAR
STARTCHAR 01EE
ENCODING 494
SWIDTH 480 0
DWIDTH 8 0
BBX 8 14 0 0
BITMAP
7C
38
00
7E
7E
0C
1C
7E
3F
03
03
FF
FE
3E
ENDCHAR
STARTCHAR 01EF
ENCODING 495
SWIDTH 480 0
DWIDTH 8 0
BBX 8 14 0 0
BITMAP
7C
38
00
7E
7E
0C
1C
7E
3F
03
03
FF
FE
3E
ENDCHAR
STARTCHAR 01F0
ENCODING 496
SWIDTH 420 0
DWIDTH 7 0
BBX 8 14 0 0
BITMAP
1F
0E
00
1E
1E
1E
1E
1E
1E
0E
EE
EE
7C
38
ENDCHAR
STARTCHAR 01F4
ENCODING 500
SWIDTH 480 0
DWIDTH 8 0
BBX 8 14 0 0
BITMAP
0E
0C
00
1E
3F
70
60
63
67
E7
FF
FF
7E
38
ENDCHAR
STARTCHAR 01F5
ENCODING 501
SWIDTH 480 0
DWIDTH 8 0
BBX 8 14 0 0
BITMAP
0E
0C
00
1E
3F
70
60
63
67
E7
FF
FF
7E
38
ENDCHAR
STARTCHAR 01F8
ENCODING 504
SWIDTH 540 0
DWIDTH 9 0
BBX 9 14 0 0
BITMAP
1800
0C00
0000
7B80
7B80
7B80
7B80
7B80
7F80
7F80
7F80
F700
F700
E700
ENDCHAR
STARTCHAR 01F9
ENCODING 505
SWIDTH 540 0
DWIDTH 9 0
BBX 9 14 0 0
BITMAP
1800
0C00
0000
7B80
7B80
7B80
7B80
7B80
7F80
7F80
7F80
F700
F700
E700
ENDCHAR
STARTCHAR 01FE
ENCODING 510
SWIDTH 480 0
DWIDTH 8 0
BBX 9 14 0 0
BITMAP
1C00
1800
1380
3F80
7F00
7F00
7F00
EF80
FB80
FF80
7F00
7F00
7F00
DE00
ENDCHAR
STARTCHAR 01FF
ENCODING 511
SWIDTH 480 0
DWIDTH 8 0
BBX 9 14 0 0
BITMAP
1C00
1800
1380
3F80
7F00
7F00
7F00
EF80
FB80
FF80
7F00
7F00
7F00
DE00
ENDCHAR
STARTCHAR 0218
ENCODING 536
SWIDTH 480 0
DWIDTH 8 0
BBX 8 15 0 -3
BITMAP
08
3F
7E
7E
7E
70
3E
0E
07
FF
FE
7C
18
38
10
ENDCHAR
STARTCHAR 0219
ENCODING 537
SWIDTH 480 0
DWIDTH 8 0
BBX 8 15 0 -3
BITMAP
08
3F
7E
7E
7E
70
3E
0E
07
FF
FE
7C
18
38
10
ENDCHAR
STARTCHAR 021A
ENCODING 538
SWIDTH 540 0
DWIDTH 9 0
BBX 9 14 0 -3
BITMAP
FF80
FF80
FF80
CE00
0C00
0C00
0C00
0C00
0C00
0C00
0C00
0C00
0C00
0800
ENDCHAR
STARTCHAR 021B
ENCODING 539
SWIDTH 540 0
DWIDTH 9 0
BBX 9 14 0 -3
BITMAP
FF80
FF80
FF80
CE00
0C00
0C00
0C00
0C00
0C00
0C00
0C00
0C00
0C00
0800
ENDCHAR
STARTCHAR 021E
ENCODING 542
SWIDTH 540 0
DWIDTH 9 0
BBX 9 14 0 0
BITMAP
1F00
0600
0000
7B80
7B80
7B80
7B80
7F80
7F80
7F80
7380
7380
7780
F600
ENDCHAR
STARTCHAR 021F
ENCODING 543
SWIDTH 540 0
DWIDTH 9 0
BBX 9 14 0 0
BITMAP
1F00
0600
0000
7B80
7B80
7B80
7B80
7F80
7F80
7F80
7380
7380
7780
F600
ENDCHAR
STARTCHAR 0224
ENCODING 548
SWIDTH 600 0
DWIDTH 10 0
BBX 10 14 0 -2
BITMAP
0400
7F00
FE00
EE00
0C00
0C00
1C00
1C00
1800
3FC0
3FC0
01C0
0780
0780
ENDCHAR
STARTCHAR 0225
ENCODING 549
SWIDTH 600 0
DWIDTH 10 0
BBX 10 14 0 -2
BITMAP
0400
7F00
FE00
EE00
0C00
0C00
1C00
1C00
1800
3FC0
3FC0
01C0
0780
0780
ENDCHAR
STARTCHAR 0226
ENCODING 550
SWIDTH 600 0
DWIDTH 10 0
BBX 9 13 1 0
BITMAP
0800
0000
0C00
1C00
1C00
1C00
3E00
3E00
6E00
7F00
FF00
E780
C780
ENDCHAR
STARTCHAR 0227
ENCODING 551
SWIDTH 600 0
DWIDTH 10 0
BBX 9 13 1 0
BITMAP
0800
0000
0C00
1C00
1C00
1C00
3E00
3E00
6E00
7F00
FF00
E780
C780
ENDCHAR
STARTCHAR 0228
ENCODING 552
SWIDTH 480 0
DWIDTH 8 0
BBX 8 15 0 -3
BITMAP
38
FC
7C
7C
70
7C
7C
30
3F
3F
3F
3C
0C
16
1E
ENDCHAR
STARTCHAR 0229
ENCODING 553
SWIDTH 480 0
DWIDTH 8 0
BBX 8 15 0 -3
BITMAP
38
FC
7C
7C
70
7C
7C
30
3F
3F
3F
3C
0C
16
1E
ENDCHAR
STARTCHAR 022A
ENCODING 554
SWIDTH 480 0
DWIDTH 8 0
BBX 9 15 0 0
BITMAP
7C00
0000
6C00
1000
3C00
7E00
7F00
7F00
E780
E780
F780
7F00
7F00
7F00
1E00
ENDCHAR
STARTCHAR 022B
ENCODING 555
SWIDTH 480 0
DWIDTH 8 0
BBX 9 15 0 0
BITMAP
7C00
0000
6C00
1000
3C00
7E00
7F00
7F00
E780
E780
F780
7F00
7F00
7F00
1E00
ENDCHAR
STARTCHAR 022C
ENCODING 556
SWIDTH 480 0
DWIDTH 8 0
BBX 9 15 0 0
BITMAP
7C00
0000
7C00
1000
3C00
7E00
7F00
7F00
E780
E780
F780
7F00
7F00
7F00
1E00
ENDCHAR
STARTCHAR 022D
ENCODING 557
SWIDTH 480 0
DWIDTH 8 0
BBX 9 15 0 0
BITMAP
7C00
0000
7C00
1000
3C00
7E00
7F00
7F00
E780
E780
F780
7F00
7F00
7F00
1E00
ENDCHAR
STARTCHAR 022E
ENCODING 558
SWIDTH 480 0
DWIDTH 8 0
BBX 9 14 0 0
BITMAP
3000
3000
1000
3C00
7E00
7F00
7F00
E780
E780
F780
7F00
7F00
7F00
1E00
ENDCHAR
STARTCHAR 022F
ENCODING 559
SWIDTH 480 0
DWIDTH 8 0
BBX 9 14 0 0
BITMAP
3000
3000
1000
3C00
7E00
7F00
7F00
E780
E780
F780
7F00
7F00
7F00
1E00
ENDCHAR
STARTCHAR 0230
ENCODING 560
SWIDTH 480 0
DWIDTH 8 0
BBX 9 15 0 0
BITMAP
7C00
0000
3000
1000
3C00
7E00
7F00
7F00
E780
E780
F780
7F00
7F00
7F00
1E00
ENDCHAR
STARTCHAR 0231
ENCODING 561
SWIDTH 480 0
DWIDTH 8 0
BBX 9 15 0 0
BITMAP
7C00
0000
3000
1000
3C00
7E00
7F00
7F00
E780
E780
F780
7F00
7F00
7F00
1E00
ENDCHAR
STARTCHAR 0232
ENCODING 562
SWIDTH 600 0
DWIDTH 10 0
BBX 10 13 0 0
BITMAP
1F00
0000
61C0
F180
7380
3F00
3F00
1E00
1E00
0C00
0C00
0E00
0E00
ENDCHAR
STARTCHAR 0233
ENCODING 563
SWIDTH 600 0
DWIDTH 10 0
BBX 10 13 0 0
BITMAP
1F00
0000
61C0
F180
7380
3F00
3F00
1E00
1E00
0C00
0C00
0E00
0E00
ENDCHAR
STARTCHAR 0241
ENCODING 577
SWIDTH 420 0
DWIDTH 7 0
BBX 7 12 0 0
BITMAP
38
7E
FE
46
06
0E
1E
38
38
38
38
38
ENDCHAR
STARTCHAR 0242
ENCODING 578
SWIDTH 420 0
DWIDTH 7 0
BBX 7 12 0 0
BITMAP
38
7E
FE
46
06
0E
1E
38
38
38
38
38
ENDCHAR
STARTCHAR 0243
ENCODING 579
SWIDTH 480 0
DWIDTH 8 0
BBX 8 11 0 1
BITMAP
FC
FE
66
66
7C
7E
77
FB
FF
7E
3C
ENDCHAR
STARTCHAR 0244
ENCODING 580
SWIDTH 540 0
DWIDTH 9 0
BBX 9 11 0 0
BITMAP
7380
7180
FF80
FF80
7380
7380
7F80
7F80
7F00
3E00
1C00
ENDCHAR
STARTCHAR 0253
ENCODING 595
SWIDTH 660 0
DWIDTH 11 0
BBX 11 11 0 1
BITMAP
7F80
7F80
FDC0
DC80
5F80
6FC0
6EE0
0EE0
0FE0
0FC0
0F00
ENDCHAR
STARTCHAR 0254
ENCODING 596
SWIDTH 480 0
DWIDTH 8 0
BBX 8 11 0 0
BITMAP
7C
FE
FF
0F
07
0F
FF
FF
FE
7E
38
ENDCHAR
STARTCHAR 0256
ENCODING 598
SWIDTH 480 0
DWIDTH 8 0
BBX 8 11 0 0
BITMAP
7C
7E
7E
7B
FB
F7
7E
3E
3C
38
30
ENDCHAR
STARTCHAR 0257
ENCODING 599
SWIDTH 600 0
DWIDTH 10 0
BBX 10 11 0 0
BITMAP
7F00
7F80
FFC0
DCC0
5CC0
6CC0
6FC0
0F80
0F80
0F00
0400
ENDCHAR
STARTCHAR 0259
ENCODING 601
SWIDTH 480 0
DWIDTH 8 0
BBX 8 11 0 0
BITMAP
7C
FE
06
06
FF
FF
E7
7F
7F
7E
1C
ENDCHAR
STARTCHAR 025B
ENCODING 603
SWIDTH 480 0
DWIDTH 8 0
BBX 8 12 0 0
BITMAP
18
7E
7E
E0
E0
7C
3C
70
70
7F
7F
3E
ENDCHAR
STARTCHAR 0260
ENCODING 608
SWIDTH 480 0
DWIDTH 8 0
BBX 8 14 0 0
BITMAP
07
0F
0E
1E
3F
70
60
63
67
E7
FF
FF
7E
38
ENDCHAR
STARTCHAR 0263
ENCODING 611
SWIDTH 600 0
DWIDTH 10 0
BBX 10 13 0 -2
BITMAP
E180
61C0
7380
7380
3700
3F00
1E00
0E00
1E00
3600
3200
1E00
1C00
ENDCHAR
STARTCHAR 0268
ENCODING 616
SWIDTH 360 0
DWIDTH 6 0
BBX 6 11 0 0
BITMAP
38
38
38
38
FC
FC
78
78
78
78
70
ENDCHAR
STARTCHAR 0272
ENCODING 626
SWIDTH 540 0
DWIDTH 9 0
BBX 10 13 -1 -2
BITMAP
3DC0
3DC0
3DC0
3DC0
3DC0
3FC0
3FC0
3FC0
7B80
7B80
7380
F000
E000
ENDCHAR
STARTCHAR 0278
ENCODING 632
SWIDTH 660 0
DWIDTH 11 0
BBX 11 13 0 -1
BITMAP
0E00
3FC0
7FC0
7FE0
FFE0
EEE0
EEE0
EEE0
FFC0
7FC0
7F80
1C00
1C00
ENDCHAR
STARTCHAR 0289
ENCODING 649
SWIDTH 540 0
DWIDTH 9 0
BBX 9 11 0 0
BITMAP
7380
7180
FF80
FF80
7380
7380
7F80
7F80
7F00
3E00
1C00
ENDCHAR
STARTCHAR 028B
ENCODING 651
SWIDTH 540 0
DWIDTH 9 0
BBX 9 12 0 0
BITMAP
0400
EE00
E700
E380
E380
E380
7380
7F80
7F80
3F00
3F00
1C00
ENDCHAR
STARTCHAR 0292
ENCODING 658
SWIDTH 480 0
DWIDTH 8 0
BBX 8 11 0 0
BITMAP
7E
7E
0C
1C
7E
3F
03
03
FF
FE
3E
ENDCHAR
STARTCHAR 0294
ENCODING 660
SWIDTH 420 0
DWIDTH 7 0
BBX 7 12 0 0
BITMAP
38
7E
FE
46
06
0E
1E
38
38
38
38
38
ENDCHAR
STARTCHAR 0295
ENCODING 661
SWIDTH 420 0
DWIDTH 7 0
BBX 7 12 0 0
BITMAP
1C
7E
FE
E2
E0
E0
78
3C
1C
1C
1C
1C
ENDCHAR
STARTCHAR 0296
ENCODING 662
SWIDTH 420 0
DWIDTH 7 0
BBX 7 12 0 0
BITMAP
38
38
38
38
38
3C
0E
06
46
FE
7E
7E
ENDCHAR
STARTCHAR 02B9
ENCODING 697
SWIDTH 180 0
DWIDTH 3 0
BBX 3 6 0 6
BITMAP
60
60
60
40
C0
C0
ENDCHAR
STARTCHAR 02BA
ENCODING 698
SWIDTH 360 0
DWIDTH 6 0
BBX 6 6 0 6
BITMAP
6C
6C
6C
48
D8
D8
ENDCHAR
STARTCHAR 02BB
ENCODING 699
SWIDTH 180 0
DWIDTH 3 0
BBX 3 6 0 6
BITMAP
60
60
60
E0
E0
E0
ENDCHAR
STARTCHAR 02BC
ENCODING 700
SWIDTH 180 0
DWIDTH 3 0
BBX 3 6 0 6
BITMAP
60
60
60
E0
E0
40
ENDCHAR
STARTCHAR 02BD
ENCODING 701
SWIDTH 180 0
DWIDTH 3 0
BBX 3 6 0 6
BITMAP
E0
E0
E0
60
60
20
ENDCHAR
STARTCHAR 02C6
ENCODING 710
SWIDTH 300 0
DWIDTH 5 0
BBX 5 2 0 12
BITMAP
70
F8
ENDCHAR
STARTCHAR 02C7
ENCODING 711
SWIDTH 300 0
DWIDTH 5 0
BBX 5 2 0 12
BITMAP
F8
70
ENDCHAR
STARTCHAR 02C8
ENCODING 712
SWIDTH 120 0
DWIDTH 2 0
BBX 2 3 0 12
BITMAP
40
C0
C0
ENDCHAR
STARTCHAR 02C9
ENCODING 713
SWIDTH 300 0
DWIDTH 5 0
BBX 5 1 0 12
BITMAP
F8
ENDCHAR
STARTCHAR 02CA
ENCODING 714
SWIDTH 180 0
DWIDTH 3 0
BBX 3 2 0 12
BITMAP
60
C0
ENDCHAR
STARTCHAR 02CB
ENCODING 715
SWIDTH 180 0
DWIDTH 3 0
BBX 3 2 1 12
BITMAP
C0
60
ENDCHAR
STARTCHAR 02CC
ENCODING 716
SWIDTH 120 0
DWIDTH 2 0
BBX 2 3 0 -3
BITMAP
C0
C0
C0
ENDCHAR
STARTCHAR 02CD
ENCODING 717
SWIDTH 300 0
DWIDTH 5 0
BBX 5 1 0 -2
BITMAP
F8
ENDCHAR
STARTCHAR 02D0
ENCODING 720
SWIDTH 180 0
DWIDTH 3 0
BBX 3 8 0 0
BITMAP
E0
60
40
00
00
40
60
E0
ENDCHAR
STARTCHAR 02D1
ENCODING 721
SWIDTH 180 0
DWIDTH 3 0
BBX 3 3 0 5
BITMAP
E0
60
40
ENDCHAR
STARTCHAR 02D8
ENCODING 728
SWIDTH 300 0
DWIDTH 5 0
BBX 5 2 0 12
BITMAP
D8
70
ENDCHAR
STARTCHAR 02D9
ENCODING 729
SWIDTH 120 0
DWIDTH 2 0
BBX 2 1 0 12
BITMAP
C0
ENDCHAR
STARTCHAR 02DA
ENCODING 730
SWIDTH 300 0
DWIDTH 5 0
BBX 5 4 0 10
BITMAP
78
C8
D8
70
ENDCHAR
STARTCHAR 02DB
ENCODING 731
SWIDTH 240 0
DWIDTH 4 0
BBX 5 4 0 -3
BITMAP
40
40
D8
78
ENDCHAR
STARTCHAR 02DC
ENCODING 732
SWIDTH 300 0
DWIDTH 5 0
BBX 5 2 0 12
BITMAP
F8
F8
ENDCHAR
STARTCHAR 02DD
ENCODING 733
SWIDTH 360 0
DWIDTH 6 0
BBX 6 2 0 12
BITMAP
6C
D8
ENDCHAR
STARTCHAR 0300
ENCODING 768
SWIDTH 0 0
DWIDTH 0 0
BBX 2 2 -6 12
BITMAP
C0
C0
ENDCHAR
STARTCHAR 0301
ENCODING 769
SWIDTH 0 0
DWIDTH 0 0
BBX 3 2 -5 12
BITMAP
60
C0
ENDCHAR
STARTCHAR 0302
ENCODING 770
SWIDTH 0 0
DWIDTH 0 0
BBX 5 2 -7 12
BITMAP
70
D8
ENDCHAR
STARTCHAR 0303
ENCODING 771
SWIDTH 0 0
DWIDTH 0 0
BBX 5 2 -7 12
BITMAP
F8
F0
ENDCHAR
STARTCHAR 0304
ENCODING 772
SWIDTH 0 0
DWIDTH 0 0
BBX 5 1 -7 12
BITMAP
F8
ENDCHAR
STARTCHAR 0305
ENCODING 773
SWIDTH 0 0
DWIDTH 0 0
BBX 6 2 -8 12
BITMAP
FC
FC
ENDCHAR
STARTCHAR 0306
ENCODING 774
SWIDTH 0 0
DWIDTH 0 0
BBX 5 2 -7 12
BITMAP
D8
70
ENDCHAR
STARTCHAR 0307
ENCODING 775
SWIDTH 0 0
DWIDTH 0 0
BBX 1 1 -5 12
BITMAP
80
ENDCHAR
STARTCHAR 0308
ENCODING 776
SWIDTH 0 0
DWIDTH 0 0
BBX 5 1 -7 13
BITMAP
D8
ENDCHAR
STARTCHAR 030A
ENCODING 778
SWIDTH 0 0
DWIDTH 0 0
BBX 5 4 -7 11
BITMAP
70
D8
D8
70
ENDCHAR
STARTCHAR 030B
ENCODING 779
SWIDTH 0 0
DWIDTH 0 0
BBX 5 2 -6 12
BITMAP
D8
90
ENDCHAR
STARTCHAR 030C
ENCODING 780
SWIDTH 0 0
DWIDTH 0 0
BBX 5 2 -7 12
BITMAP
F8
70
ENDCHAR
STARTCHAR 030D
ENCODING 781
SWIDTH 0 0
DWIDTH 0 0
BBX 1 3 -5 12
BITMAP
80
80
80
ENDCHAR
STARTCHAR 0311
ENCODING 785
SWIDTH 0 0
DWIDTH 0 0
BBX 5 2 -7 12
BITMAP
F0
D8
ENDCHAR
STARTCHAR 0323
ENCODING 803
SWIDTH 0 0
DWIDTH 0 0
BBX 1 2 -5 -3
BITMAP
80
80
ENDCHAR
STARTCHAR 0326
ENCODING 806
SWIDTH 0 0
DWIDTH 0 0
BBX 2 3 -6 -3
BITMAP
C0
C0
80
ENDCHAR
STARTCHAR 0327
ENCODING 807
SWIDTH 0 0
DWIDTH 0 0
BBX 4 4 -7 -3
BITMAP
60
70
B0
F0
ENDCHAR
STARTCHAR 0328
ENCODING 808
SWIDTH 0 0
DWIDTH 0 0
BBX 5 4 -7 -3
BITMAP
60
40
F8
78
ENDCHAR
STARTCHAR 0329
ENCODING 809
SWIDTH 0 0
DWIDTH 0 0
BBX 1 3 -5 -3
BITMAP
80
80
80
ENDCHAR
STARTCHAR 0331
ENCODING 817
SWIDTH 0 0
DWIDTH 0 0
BBX 5 1 -7 -2
BITMAP
F8
ENDCHAR
STARTCHAR 0342
ENCODING 834
SWIDTH 0 0
DWIDTH 0 0
BBX 5 2 -7 12
BITMAP
F8
F0
ENDCHAR
STARTCHAR 0344
ENCODING 836
SWIDTH 0 0
DWIDTH 0 0
BBX 5 3 -7 12
BITMAP
30
20
D8
ENDCHAR
STARTCHAR 0345
ENCODING 837
SWIDTH 0 0
DWIDTH 0 0
BBX 3 3 -5 -3
BITMAP
80
80
E0
ENDCHAR
STARTCHAR 0374
ENCODING 884
SWIDTH 180 0
DWIDTH 3 0
BBX 3 3 0 9
BITMAP
60
40
C0
ENDCHAR
STARTCHAR 0375
ENCODING 885
SWIDTH 180 0
DWIDTH 3 0
BBX 3 3 0 -3
BITMAP
20
60
C0
ENDCHAR
STARTCHAR 037A
ENCODING 890
SWIDTH 180 0
DWIDTH 3 0
BBX 3 3 0 -3
BITMAP
C0
C0
60
ENDCHAR
STARTCHAR 037B
ENCODING 891
SWIDTH 480 0
DWIDTH 8 0
BBX 8 11 0 0
BITMAP
7C
FE
FF
0F
07
0F
FF
FF
FE
7E
38
ENDCHAR
STARTCHAR 037E
ENCODING 894
SWIDTH 180 0
DWIDTH 3 0
BBX 3 11 0 -3
BITMAP
60
E0
60
00
00
60
60
60
E0
E0
40
ENDCHAR
STARTCHAR 037F
ENCODING 895
SWIDTH 420 0
DWIDTH 7 0
BBX 7 11 0 0
BITMAP
1E
1E
1E
1E
1E
1E
0E
EE
EE
7C
38
ENDCHAR
STARTCHAR 0384
ENCODING 900
SWIDTH 120 0
DWIDTH 2 0
BBX 2 2 1 9
BITMAP
C0
80
ENDCHAR
STARTCHAR 0385
ENCODING 901
SWIDTH 300 0
DWIDTH 5 0
BBX 5 3 0 12
BITMAP
30
20
D8
ENDCHAR
STARTCHAR 0386
ENCODING 902
SWIDTH 600 0
DWIDTH 10 0
BBX 9 12 1 0
BITMAP
2000
6C00
5C00
1C00
1C00
3E00
3E00
6E00
7F00
FF00
E780
C780
ENDCHAR
STARTCHAR 0387
ENCODING 903
SWIDTH 180 0
DWIDTH 3 0
BBX 3 3 0 5
BITMAP
60
E0
60
ENDCHAR
STARTCHAR 0388
ENCODING 904
SWIDTH 540 0
DWIDTH 9 0
BBX 10 12 0 0
BITMAP
4E00
FF00
BF00
3F00
1800
1E00
1F00
1C80
1F80
1F80
1FC0
0E00
ENDCHAR
STARTCHAR 0389
ENCODING 905
SWIDTH 600 0
DWIDTH 10 0
BBX 10 12 0 0
BITMAP
4000
F9C0
BDC0
39C0
39C0
3FC0
3FC0
3FC0
3BC0
3BC0
7B80
7B00
ENDCHAR
STARTCHAR 038A
ENCODING 906
SWIDTH 360 0
DWIDTH 6 0
BBX 6 12 0 0
BITMAP
40
FC
BC
3C
3C
38
38
38
38
3C
38
78
ENDCHAR
STARTCHAR 038C
ENCODING 908
SWIDTH 540 0
DWIDTH 9 0
BBX 9 12 0 0
BITMAP
5000
FC00
BE00
7F00
7F00
7380
7380
7780
7F80
7F80
3F00
1E00
ENDCHAR
STARTCHAR 038E
ENCODING 910
SWIDTH 660 0
DWIDTH 11 0
BBX 11 12 0 0
BITMAP
4000
F0E0
B8E0
39C0
1DC0
1F80
0F80
0F00
0700
0700
0700
0700
ENDCHAR
STARTCHAR 038F
ENCODING 911
SWIDTH 600 0
DWIDTH 10 0
BBX 11 12 0 0
BITMAP
5E00
FF80
FF80
7FC0
71C0
70C0
70C0
70C0
31C0
79C0
79E0
79E0
ENDCHAR
STARTCHAR 0390
ENCODING 912
SWIDTH 300 0
DWIDTH 5 0
BBX 5 15 1 0
BITMAP
30
20
D8
00
F0
70
F0
F0
F0
F0
F0
F0
F0
E0
E0
ENDCHAR
STARTCHAR 0391
ENCODING 913
SWIDTH 600 0
DWIDTH 10 0
BBX 9 11 1 0
BITMAP
0C00
1C00
1C00
1C00
3E00
3E00
6E00
7F00
FF00
E780
C780
ENDCHAR
STARTCHAR 0392
ENCODING 914
SWIDTH 480 0
DWIDTH 8 0
BBX 8 11 0 1
BITMAP
FC
FE
66
66
7C
7E
77
73
77
7E
3C
ENDCHAR
STARTCHAR 0393
ENCODING 915
SWIDTH 480 0
DWIDTH 8 0
BBX 8 12 0 0
BITMAP
0F
FF
FF
E0
E0
E0
E0
E0
E0
E0
E0
70
ENDCHAR
STARTCHAR 0394
ENCODING 916
SWIDTH 540 0
DWIDTH 9 0
BBX 10 11 0 0
BITMAP
0E00
0E00
1F00
1F00
3F00
3B00
7380
7380
7380
FFC0
FFC0
ENDCHAR
STARTCHAR 0395
ENCODING 917
SWIDTH 480 0
DWIDTH 8 0
BBX 8 12 0 0
BITMAP
38
FC
7C
7C
70
7C
7C
30
3F
3F
3F
38
ENDCHAR
STARTCHAR 0396
ENCODING 918
SWIDTH 600 0
DWIDTH 10 0
BBX 10 12 0 0
BITMAP
0400
7F00
FE00
EE00
0C00
0C00
1C00
1C00
3800
3FC0
3F80
0F00
ENDCHAR
STARTCHAR 0397
ENCODING 919
SWIDTH 540 0
DWIDTH 9 0
BBX 9 11 0 0
BITMAP
7B80
7B80
7B80
7B80
7F80
7F80
7F80
7380
7380
7780
F600
ENDCHAR
STARTCHAR 0398
ENCODING 920
SWIDTH 480 0
DWIDTH 8 0
BBX 9 12 0 0
BITMAP
1800
7E00
7F00
7F00
FF00
E780
FF80
6380
7F00
7F00
3F00
1E00
ENDCHAR
STARTCHAR 0399
ENCODING 921
SWIDTH 300 0
DWIDTH 5 0
BBX 4 11 1 0
BITMAP
F0
70
F0
F0
F0
F0
F0
F0
F0
E0
E0
ENDCHAR
STARTCHAR 039A
ENCODING 922
SWIDTH 540 0
DWIDTH 9 0
BBX 9 11 0 1
BITMAP
7B00
7F00
FF00
FE00
FE00
FC00
FE00
FE00
FF00
FB80
FB00
ENDCHAR
STARTCHAR 039B
ENCODING 923
SWIDTH 540 0
DWIDTH 9 0
BBX 10 11 0 0
BITMAP
3800
3800
3C00
3E00
7E00
7700
7700
7780
7780
F7C0
E000
ENDCHAR
STARTCHAR 039C
ENCODING 924
SWIDTH 600 0
DWIDTH 10 0
BBX 10 11 0 0
BITMAP
2080
3180
71C0
7BC0
7FC0
7FC0
75C0
71C0
73C0
E3C0
E3C0
ENDCHAR
STARTCHAR 039D
ENCODING 925
SWIDTH 540 0
DWIDTH 9 0
BBX 9 11 0 0
BITMAP
7B80
7B80
7B80
7B80
7B80
7F80
7F80
7F80
F700
F700
E700
ENDCHAR
STARTCHAR 039E
ENCODING 926
SWIDTH 480 0
DWIDTH 8 0
BBX 8 11 0 0
BITMAP
FF
FF
06
00
7E
7E
00
00
FF
FF
FF
ENDCHAR
STARTCHAR 039F
ENCODING 927
SWIDTH 480 0
DWIDTH 8 0
BBX 9 12 0 0
BITMAP
1000
3C00
7E00
7F00
7F00
E780
E780
F780
7F00
7F00
7F00
1E00
ENDCHAR
STARTCHAR 03A0
ENCODING 928
SWIDTH 540 0
DWIDTH 9 0
BBX 9 11 0 0
BITMAP
FF80
FF80
FF80
E380
E380
E380
7380
7380
7380
7380
7380
ENDCHAR
STARTCHAR 03A1
ENCODING 929
SWIDTH 480 0
DWIDTH 8 0
BBX 8 11 0 0
BITMAP
7E
7E
77
73
77
7F
FC
F0
F0
F0
F8
ENDCHAR
STARTCHAR 03A3
ENCODING 931
SWIDTH 480 0
DWIDTH 8 0
BBX 8 11 0 0
BITMAP
FF
FF
F0
78
1C
0E
1C
38
7F
FF
FF
ENDCHAR
STARTCHAR 03A4
ENCODING 932
SWIDTH 540 0
DWIDTH 9 0
BBX 9 11 0 0
BITMAP
FF80
FF80
FF80
CE00
0C00
0C00
0C00
0C00
0C00
0C00
0C00
ENDCHAR
STARTCHAR 03A5
ENCODING 933
SWIDTH 600 0
DWIDTH 10 0
BBX 10 11 0 0
BITMAP
61C0
F180
7380
3F00
3F00
1E00
1E00
0C00
0C00
0E00
0E00
ENDCHAR
STARTCHAR 03A6
ENCODING 934
SWIDTH 660 0
DWIDTH 11 0
BBX 11 13 0 -1
BITMAP
0E00
3FC0
7FC0
7FE0
FFE0
EEE0
EEE0
EEE0
FFC0
7FC0
7F80
1C00
1C00
ENDCHAR
STARTCHAR 03A7
ENCODING 935
SWIDTH 540 0
DWIDTH 9 0
BBX 9 11 0 0
BITMAP
6380
F380
7700
7F00
3F00
1E00
1E00
3F00
3F00
7300
7000
ENDCHAR
STARTCHAR 03A8
ENCODING 936
SWIDTH 720 0
DWIDTH 12 0
BBX 12 11 0 0
BITMAP
E670
E670
E670
E670
E660
7FE0
7FE0
3FC0
0700
0600
0600
ENDCHAR
STARTCHAR 03A9
ENCODING 937
SWIDTH 600 0
DWIDTH 10 0
BBX 10 12 0 0
BITMAP
1C00
7F00
7F80
7F80
F1C0
E1C0
61C0
61C0
7180
F3C0
F3C0
FBC0
ENDCHAR
STARTCHAR 03AA
ENCODING 938
SWIDTH 300 0
DWIDTH 5 0
BBX 5 13 1 1
BITMAP
D8
00
F0
70
F0
F0
F0
F0
F0
F0
F0
E0
E0
ENDCHAR
STARTCHAR 03AB
ENCODING 939
SWIDTH 600 0
DWIDTH 10 0
BBX 10 14 0 0
BITMAP
0200
1A00
0000
61C0
F180
7380
3F00
3F00
1E00
1E00
0C00
0C00
0E00
0E00
ENDCHAR
STARTCHAR 03AC
ENCODING 940
SWIDTH 600 0
DWIDTH 10 0
BBX 9 12 1 0
BITMAP
2000
6C00
5C00
1C00
1C00
3E00
3E00
6E00
7F00
FF00
E780
C780
ENDCHAR
STARTCHAR 03AD
ENCODING 941
SWIDTH 540 0
DWIDTH 9 0
BBX 10 12 0 0
BITMAP
4E00
FF00
BF00
3F00
1800
1E00
1F00
1C80
1F80
1F80
1FC0
0E00
ENDCHAR
STARTCHAR 03AE
ENCODING 942
SWIDTH 600 0
DWIDTH 10 0
BBX 10 12 0 0
BITMAP
4000
F9C0
BDC0
39C0
39C0
3FC0
3FC0
3FC0
3BC0
3BC0
7B80
7B00
ENDCHAR
STARTCHAR 03AF
ENCODING 943
SWIDTH 360 0
DWIDTH 6 0
BBX 6 12 0 0
BITMAP
40
FC
BC
3C
3C
38
38
38
38
3C
38
78
ENDCHAR
STARTCHAR 03B0
ENCODING 944
SWIDTH 600 0
DWIDTH 10 0
BBX 10 15 0 0
BITMAP
0600
0400
1A00
0000
61C0
F180
7380
3F00
3F00
1E00
1E00
0C00
0C00
0E00
0E00
ENDCHAR
STARTCHAR 03B1
ENCODING 945
SWIDTH 600 0
DWIDTH 10 0
BBX 9 11 1 0
BITMAP
0C00
1C00
1C00
1C00
3E00
3E00
6E00
7F00
FF00
E780
C780
ENDCHAR
STARTCHAR 03B2
ENCODING 946
SWIDTH 480 0
DWIDTH 8 0
BBX 8 11 0 1
BITMAP
FC
FE
66
66
7C
7E
77
73
77
7E
3C
ENDCHAR
STARTCHAR 03B3
ENCODING 947
SWIDTH 480 0
DWIDTH 8 0
BBX 8 12 0 0
BITMAP
0F
FF
FF
E0
E0
E0
E0
E0
E0
E0
E0
70
ENDCHAR
STARTCHAR 03B4
ENCODING 948
SWIDTH 540 0
DWIDTH 9 0
BBX 10 11 0 0
BITMAP
0E00
0E00
1F00
1F00
3F00
3B00
7380
7380
7380
FFC0
FFC0
ENDCHAR
STARTCHAR 03B5
ENCODING 949
SWIDTH 480 0
DWIDTH 8 0
BBX 8 12 0 0
BITMAP
38
FC
7C
7C
70
7C
7C
30
3F
3F
3F
38
ENDCHAR
STARTCHAR 03B6
ENCODING 950
SWIDTH 600 0
DWIDTH 10 0
BBX 10 12 0 0
BITMAP
0400
7F00
FE00
EE00
0C00
0C00
1C00
1C00
3800
3FC0
3F80
0F00
ENDCHAR
STARTCHAR 03B7
ENCODING 951
SWIDTH 540 0
DWIDTH 9 0
BBX 9 11 0 0
BITMAP
7B80
7B80
7B80
7B80
7F80
7F80
7F80
7380
7380
7780
F600
ENDCHAR
STARTCHAR 03B8
ENCODING 952
SWIDTH 480 0
DWIDTH 8 0
BBX 9 12 0 0
BITMAP
1800
7E00
7F00
7F00
FF00
E780
FF80
6380
7F00
7F00
3F00
1E00
ENDCHAR
STARTCHAR 03B9
ENCODING 953
SWIDTH 300 0
DWIDTH 5 0
BBX 4 11 1 0
BITMAP
F0
70
F0
F0
F0
F0
F0
F0
F0
E0
E0
ENDCHAR
STARTCHAR 03BA
ENCODING 954
SWIDTH 540 0
DWIDTH 9 0
BBX 9 11 0 1
BITMAP
7B00
7F00
FF00
FE00
FE00
FC00
FE00
FE00
FF00
FB80
FB00
ENDCHAR
STARTCHAR 03BB
ENCODING 955
SWIDTH 540 0
DWIDTH 9 0
BBX 10 11 0 0
BITMAP
3800
3800
3C00
3E00
7E00
7700
7700
7780
7780
F7C0
E000
ENDCHAR
STARTCHAR 03BC
ENCODING 956
SWIDTH 600 0
DWIDTH 10 0
BBX 10 11 0 0
BITMAP
2080
3180
71C0
7BC0
7FC0
7FC0
75C0
71C0
73C0
E3C0
E3C0
ENDCHAR
STARTCHAR 03BD
ENCODING 957
SWIDTH 540 0
DWIDTH 9 0
BBX 9 11 0 0
BITMAP
7B80
7B80
7B80
7B80
7B80
7F80
7F80
7F80
F700
F700
E700
ENDCHAR
STARTCHAR 03BE
ENCODING 958
SWIDTH 480 0
DWIDTH 8 0
BBX 8 11 0 0
BITMAP
FF
FF
06
00
7E
7E
00
00
FF
FF
FF
ENDCHAR
STARTCHAR 03BF
ENCODING 959
SWIDTH 480 0
DWIDTH 8 0
BBX 9 12 0 0
BITMAP
1000
3C00
7E00
7F00
7F00
E780
E780
F780
7F00
7F00
7F00
1E00
ENDCHAR
STARTCHAR 03C0
ENCODING 960
SWIDTH 540 0
DWIDTH 9 0
BBX 9 11 0 0
BITMAP
FF80
FF80
FF80
E380
E380
E380
7380
7380
7380
7380
7380
ENDCHAR
STARTCHAR 03C1
ENCODING 961
SWIDTH 480 0
DWIDTH 8 0
BBX 8 11 0 0
BITMAP
7E
7E
77
73
77
7F
FC
F0
F0
F0
F8
ENDCHAR
STARTCHAR 03C2
ENCODING 962
SWIDTH 480 0
DWIDTH 8 0
BBX 8 13 0 -2
BITMAP
1E
7F
7F
E0
E0
E0
E0
7C
7F
3F
07
0F
0E
ENDCHAR
STARTCHAR 03C3
ENCODING 963
SWIDTH 480 0
DWIDTH 8 0
BBX 8 11 0 0
BITMAP
FF
FF
F0
78
1C
0E
1C
38
7F
FF
FF
ENDCHAR
STARTCHAR 03C4
ENCODING 964
SWIDTH 540 0
DWIDTH 9 0
BBX 9 11 0 0
BITMAP
FF80
FF80
FF80
CE00
0C00
0C00
0C00
0C00
0C00
0C00
0C00
ENDCHAR
STARTCHAR 03C5
ENCODING 965
SWIDTH 600 0
DWIDTH 10 0
BBX 10 11 0 0
BITMAP
61C0
F180
7380
3F00
3F00
1E00
1E00
0C00
0C00
0E00
0E00
ENDCHAR
STARTCHAR 03C6
ENCODING 966
SWIDTH 660 0
DWIDTH 11 0
BBX 11 13 0 -1
BITMAP
0E00
3FC0
7FC0
7FE0
FFE0
EEE0
EEE0
EEE0
FFC0
7FC0
7F80
1C00
1C00
ENDCHAR
STARTCHAR 03C7
ENCODING 967
SWIDTH 540 0
DWIDTH 9 0
BBX 9 11 0 0
BITMAP
6380
F380
7700
7F00
3F00
1E00
1E00
3F00
3F00
7300
7000
ENDCHAR
STARTCHAR 03C8
ENCODING 968
SWIDTH 720 0
DWIDTH 12 0
BBX 12 11 0 0
BITMAP
E670
E670
E670
E670
E660
7FE0
7FE0
3FC0
0700
0600
0600
ENDCHAR
STARTCHAR 03C9
ENCODING 969
SWIDTH 600 0
DWIDTH 10 0
BBX 10 12 0 0
BITMAP
1C00
7F00
7F80
7F80
F1C0
E1C0
61C0
61C0
7180
F3C0
F3C0
FBC0
ENDCHAR
STARTCHAR 03CA
ENCODING 970
SWIDTH 300 0
DWIDTH 5 0
BBX 5 13 1 1
BITMAP
D8
00
F0
70
F0
F0
F0
F0
F0
F0
F0
E0
E0
ENDCHAR
STARTCHAR 03CB
ENCODING 971
SWIDTH 600 0
DWIDTH 10 0
BBX 10 14 0 0
BITMAP
0200
1A00
0000
61C0
F180
7380
3F00
3F00
1E00
1E00
0C00
0C00
0E00
0E00
ENDCHAR
STARTCHAR 03CC
ENCODING 972
SWIDTH 540 0
DWIDTH 9 0
BBX 9 12 0 0
BITMAP
5000
FC00
BE00
7F00
7F00
7380
7380
7780
7F80
7F80
3F00
1E00
ENDCHAR
STARTCHAR 03CD
ENCODING 973
SWIDTH 660 0
DWIDTH 11 0
BBX 11 12 0 0
BITMAP
4000
F0E0
B8E0
39C0
1DC0
1F80
0F80
0F00
0700
0700
0700
0700
ENDCHAR
STARTCHAR 03CE
ENCODING 974
SWIDTH 600 0
DWIDTH 10 0
BBX 11 12 0 0
BITMAP
5E00
FF80
FF80
7FC0
71C0
70C0
70C0
70C0
31C0
79C0
79E0
79E0
ENDCHAR
STARTCHAR 03D2
ENCODING 978
SWIDTH 600 0
DWIDTH 10 0
BBX 10 11 0 0
BITMAP
E1C0
73C0
3BC0
1FC0
1E00
1E00
1C00
1C00
1C00
1C00
0C00
ENDCHAR
STARTCHAR 03D3
ENCODING 979
SWIDTH 720 0
DWIDTH 12 0
BBX 12 12 0 0
BITMAP
4000
F870
3CF0
0DF0
0FA0
0780
0700
0700
0700
0700
0700
0700
ENDCHAR
STARTCHAR 03D4
ENCODING 980
SWIDTH 600 0
DWIDTH 10 0
BBX 10 14 0 0
BITMAP
0200
1A00
0000
E1C0
73C0
3BC0
1FC0
1E00
1E00
1C00
1C00
1C00
1C00
0C00
ENDCHAR
STARTCHAR 03D5
ENCODING 981
SWIDTH 660 0
DWIDTH 11 0
BBX 11 13 0 -1
BITMAP
0E00
3FC0
7FC0
7FE0
FFE0
EEE0
EEE0
EEE0
FFC0
7FC0
7F80
1C00
1C00
ENDCHAR
STARTCHAR 03D8
ENCODING 984
SWIDTH 480 0
DWIDTH 8 0
BBX 9 14 0 -2
BITMAP
0E00
3E00
7F00
7F00
7700
E380
E380
F780
7F00
7F00
7E00
3C00
1C00
1C00
ENDCHAR
STARTCHAR 03D9
ENCODING 985
SWIDTH 480 0
DWIDTH 8 0
BBX 9 14 0 -2
BITMAP
0E00
3E00
7F00
7F00
7700
E380
E380
F780
7F00
7F00
7E00
3C00
1C00
1C00
ENDCHAR
STARTCHAR 03DA
ENCODING 986
SWIDTH 480 0
DWIDTH 8 0
BBX 8 14 0 -2
BITMAP
0E
3F
7F
7F
E0
E0
E0
E0
78
7F
3F
07
0F
0E
ENDCHAR
STARTCHAR 03DB
ENCODING 987
SWIDTH 480 0
DWIDTH 8 0
BBX 8 14 0 -2
BITMAP
0E
3F
7F
7F
E0
E0
E0
E0
78
7F
3F
07
0F
0E
ENDCHAR
STARTCHAR 03F2
ENCODING 1010
SWIDTH 480 0
DWIDTH 8 0
BBX 8 11 0 0
BITMAP
3E
7F
7F
F0
F0
F0
FF
7F
7F
7E
1C
ENDCHAR
STARTCHAR 03F3
ENCODING 1011
SWIDTH 420 0
DWIDTH 7 0
BBX 7 11 0 0
BITMAP
1E
1E
1E
1E
1E
1E
0E
EE
EE
7C
38
ENDCHAR
STARTCHAR 03F4
ENCODING 1012
SWIDTH 480 0
DWIDTH 8 0
BBX 9 12 0 0
BITMAP
3800
7E00
7E00
7F00
7700
FF80
FF80
F780
7F00
7F00
7F00
1E00
ENDCHAR
STARTCHAR 03F7
ENCODING 1015
SWIDTH 480 0
DWIDTH 8 0
BBX 8 11 0 0
BITMAP
E0
FC
FE
EE
63
77
77
7F
7E
70
70
ENDCHAR
STARTCHAR 03F8
ENCODING 1016
SWIDTH 480 0
DWIDTH 8 0
BBX 8 11 0 0
BITMAP
E0
FC
FE
EE
63
77
77
7F
7E
70
70
ENDCHAR
STARTCHAR 03F9
ENCODING 1017
SWIDTH 480 0
DWIDTH 8 0
BBX 8 11 0 0
BITMAP
3E
7F
7F
F0
F0
F0
FF
7F
7F
7E
1C
ENDCHAR
STARTCHAR 03FA
ENCODING 1018
SWIDTH 600 0
DWIDTH 10 0
BBX 10 11 0 0
BITMAP
6380
7780
7F80
FF80
FB80
F380
F180
F1C0
F1C0
F1C0
F1C0
ENDCHAR
STARTCHAR 03FB
ENCODING 1019
SWIDTH 600 0
DWIDTH 10 0
BBX 10 11 0 0
BITMAP
6380
7780
7F80
FF80
FB80
F380
F180
F1C0
F1C0
F1C0
F1C0
ENDCHAR
STARTCHAR 03FD
ENCODING 1021
SWIDTH 480 0
DWIDTH 8 0
BBX 8 11 0 0
BITMAP
7C
FE
FF
0F
07
0F
FF
FF
FE
7E
38
ENDCHAR
STARTCHAR 0400
ENCODING 1024
SWIDTH 480 0
DWIDTH 8 0
BBX 8 14 0 1
BITMAP
60
30
38
FC
7C
7C
70
7C
7C
30
3F
3F
3F
38
ENDCHAR
STARTCHAR 0401
ENCODING 1025
SWIDTH 480 0
DWIDTH 8 0
BBX 8 14 0 0
BITMAP
18
D8
38
FC
7C
7C
70
7C
7C
30
3F
3F
3F
38
ENDCHAR
STARTCHAR 0402
ENCODING 1026
SWIDTH 660 0
DWIDTH 11 0
BBX 11 13 0 -2
BITMAP
FF80
FF80
1C00
1D80
1FC0
0FE0
0CE0
0CE0
0C60
0C60
0CE0
01E0
01C0
ENDCHAR
STARTCHAR 0403
ENCODING 1027
SWIDTH 480 0
DWIDTH 8 0
BBX 8 14 0 0
BITMAP
0C
18
0F
FF
FF
E0
E0
E0
E0
E0
E0
E0
E0
70
ENDCHAR
STARTCHAR 0404
ENCODING 1028
SWIDTH 480 0
DWIDTH 8 0
BBX 8 11 0 0
BITMAP
3E
7F
7F
F7
FC
FE
FE
F3
7F
3F
1E
ENDCHAR
STARTCHAR 0405
ENCODING 1029
SWIDTH 480 0
DWIDTH 8 0
BBX 8 12 0 0
BITMAP
08
3F
7E
7E
7E
70
3E
0E
07
FF
FE
7C
ENDCHAR
STARTCHAR 0406
ENCODING 1030
SWIDTH 300 0
DWIDTH 5 0
BBX 4 11 1 0
BITMAP
F0
70
F0
F0
F0
F0
F0
F0
F0
E0
E0
ENDCHAR
STARTCHAR 0407
ENCODING 1031
SWIDTH 300 0
DWIDTH 5 0
BBX 5 13 1 1
BITMAP
D8
00
F0
70
F0
F0
F0
F0
F0
F0
F0
E0
E0
ENDCHAR
STARTCHAR 0408
ENCODING 1032
SWIDTH 420 0
DWIDTH 7 0
BBX 7 11 0 0
BITMAP
1E
1E
1E
1E
1E
1E
0E
EE
EE
7C
38
ENDCHAR
STARTCHAR 0409
ENCODING 1033
SWIDTH 720 0
DWIDTH 12 0
BBX 12 11 0 0
BITMAP
1F00
1F00
1F00
3F80
3FE0
3FE0
7730
7730
7770
F7F0
E7E0
ENDCHAR
STARTCHAR 040A
ENCODING 1034
SWIDTH 720 0
DWIDTH 12 0
BBX 12 11 0 0
BITMAP
7300
7300
7700
7780
7FE0
7FE0
7F30
7730
7770
77F0
F7E0
ENDCHAR
STARTCHAR 040B
ENCODING 1035
SWIDTH 660 0
DWIDTH 11 0
BBX 11 11 0 0
BITMAP
FF80
FF80
1C00
1D80
1FC0
0FE0
0CE0
0CE0
0CE0
0CE0
0CE0
ENDCHAR
STARTCHAR 040C
ENCODING 1036
SWIDTH 540 0
DWIDTH 9 0
BBX 9 14 0 0
BITMAP
0700
0600
0000
7B00
7F00
FF00
FE00
FE00
FC00
FE00
FE00
FF00
FB80
FB00
ENDCHAR
STARTCHAR 040D
ENCODING 1037
SWIDTH 540 0
DWIDTH 9 0
BBX 9 14 0 0
BITMAP
3000
1800
0000
E700
E700
E700
7700
7F80
7F80
7B80
7B80
7B80
7380
7380
ENDCHAR
STARTCHAR 040E
ENCODING 1038
SWIDTH 480 0
DWIDTH 8 0
BBX 8 14 0 0
BITMAP
2C
3C
00
F7
77
76
36
3E
1E
1E
1E
7E
7C
F0
ENDCHAR
STARTCHAR 040F
ENCODING 1039
SWIDTH 480 0
DWIDTH 8 0
BBX 9 13 0 -2
BITMAP
E300
E300
E300
E300
E300
E300
E380
E380
FF80
FF80
FF00
1C00
1C00
ENDCHAR
STARTCHAR 0410
ENCODING 1040
SWIDTH 600 0
DWIDTH 10 0
BBX 9 11 1 0
BITMAP
0C00
1C00
1C00
1C00
3E00
3E00
6E00
7F00
FF00
E780
C780
ENDCHAR
STARTCHAR 0411
ENCODING 1041
SWIDTH 480 0
DWIDTH 8 0
BBX 7 11 1 0
BITMAP
FE
FE
FE
E0
FC
FE
EE
E6
EE
FC
F8
ENDCHAR
STARTCHAR 0412
ENCODING 1042
SWIDTH 480 0
DWIDTH 8 0
BBX 8 11 0 1
BITMAP
FC
FE
66
66
7C
7E
77
73
77
7E
3C
ENDCHAR
STARTCHAR 0413
ENCODING 1043
SWIDTH 480 0
DWIDTH 8 0
BBX 8 12 0 0
BITMAP
0F
FF
FF
E0
E0
E0
E0
E0
E0
E0
E0
70
ENDCHAR
STARTCHAR 0414
ENCODING 1044
SWIDTH 600 0
DWIDTH 10 0
BBX 10 13 0 -2
BITMAP
0E00
0E00
1E00
1E00
1F00
3B00
3B00
3380
7380
FFC0
FFC0
6180
6180
ENDCHAR
STARTCHAR 0415
ENCODING 1045
SWIDTH 480 0
DWIDTH 8 0
BBX 8 12 0 0
BITMAP
38
FC
7C
7C
70
7C
7C
30
3F
3F
3F
38
ENDCHAR
STARTCHAR 0416
ENCODING 1046
SWIDTH 660 0
DWIDTH 11 0
BBX 12 11 0 0
BITMAP
EEE0
FEE0
7EE0
7FC0
3FC0
3FC0
3FC0
7EE0
76F0
F7E0
6600
ENDCHAR
STARTCHAR 0417
ENCODING 1047
SWIDTH 480 0
DWIDTH 8 0
BBX 8 12 0 0
BITMAP
30
FE
FE
8E
0E
3E
3E
07
07
7F
7E
3C
ENDCHAR
STARTCHAR 0418
ENCODING 1048
SWIDTH 540 0
DWIDTH 9 0
BBX 9 11 0 0
BITMAP
E700
E700
E700
7700
7F80
7F80
7B80
7B80
7B80
7380
7380
ENDCHAR
STARTCHAR 0419
ENCODING 1049
SWIDTH 540 0
DWIDTH 9 0
BBX 9 14 0 0
BITMAP
2C00
3C00
0000
E700
E700
E700
7700
7F80
7F80
7B80
7B80
7B80
7380
7380
ENDCHAR
STARTCHAR 041A
ENCODING 1050
SWIDTH 540 0
DWIDTH 9 0
BBX 9 11 0 1
BITMAP
7B00
7F00
FF00
FE00
FE00
FC00
FE00
FE00
FF00
FB80
FB00
ENDCHAR
STARTCHAR 041B
ENCODING 1051
SWIDTH 540 0
DWIDTH 9 0
BBX 10 11 0 0
BITMAP
3800
3800
3C00
3E00
7E00
7700
7700
7780
7780
F7C0
E000
ENDCHAR
STARTCHAR 041C
ENCODING 1052
SWIDTH 600 0
DWIDTH 10 0
BBX 10 11 0 0
BITMAP
2080
3180
71C0
7BC0
7FC0
7FC0
75C0
71C0
73C0
E3C0
E3C0
ENDCHAR
STARTCHAR 041D
ENCODING 1053
SWIDTH 540 0
DWIDTH 9 0
BBX 9 11 0 0
BITMAP
7B80
7B80
7B80
7B80
7F80
7F80
7F80
7380
7380
7780
F600
ENDCHAR
STARTCHAR 041E
ENCODING 1054
SWIDTH 480 0
DWIDTH 8 0
BBX 9 12 0 0
BITMAP
1000
3C00
7E00
7F00
7F00
E780
E780
F780
7F00
7F00
7F00
1E00
ENDCHAR
STARTCHAR 041F
ENCODING 1055
SWIDTH 540 0
DWIDTH 9 0
BBX 9 11 0 0
BITMAP
FF80
FF80
FF80
E380
E380
E380
7380
7380
7380
7380
7380
ENDCHAR
STARTCHAR 0420
ENCODING 1056
SWIDTH 480 0
DWIDTH 8 0
BBX 8 11 0 0
BITMAP
7E
7E
77
73
77
7F
FC
F0
F0
F0
F8
ENDCHAR
STARTCHAR 0421
ENCODING 1057
SWIDTH 480 0
DWIDTH 8 0
BBX 8 11 0 0
BITMAP
3E
7F
7F
F0
F0
F0
FF
7F
7F
7E
1C
ENDCHAR
STARTCHAR 0422
ENCODING 1058
SWIDTH 540 0
DWIDTH 9 0
BBX 9 11 0 0
BITMAP
FF80
FF80
FF80
CE00
0C00
0C00
0C00
0C00
0C00
0C00
0C00
ENDCHAR
STARTCHAR 0423
ENCODING 1059
SWIDTH 480 0
DWIDTH 8 0
BBX 8 11 0 0
BITMAP
F7
77
76
36
3E
1E
1E
1E
7E
7C
F0
ENDCHAR
STARTCHAR 0424
ENCODING 1060
SWIDTH 660 0
DWIDTH 11 0
BBX 11 13 0 -1
BITMAP
0E00
3FC0
7FC0
7FE0
FFE0
EEE0
EEE0
EEE0
FFC0
7FC0
7F80
1C00
1C00
ENDCHAR
STARTCHAR 0425
ENCODING 1061
SWIDTH 540 0
DWIDTH 9 0
BBX 9 11 0 0
BITMAP
6380
F380
7700
7F00
3F00
1E00
1E00
3F00
3F00
7300
7000
ENDCHAR
STARTCHAR 0426
ENCODING 1062
SWIDTH 480 0
DWIDTH 8 0
BBX 9 13 0 -2
BITMAP
6300
6300
6380
6380
6380
E380
E380
E380
FF80
FF80
7F80
0380
0300
ENDCHAR
STARTCHAR 0427
ENCODING 1063
SWIDTH 480 0
DWIDTH 8 0
BBX 8 11 0 0
BITMAP
E7
E7
E7
E7
E7
7F
7F
1F
07
07
03
ENDCHAR
STARTCHAR 0428
ENCODING 1064
SWIDTH 720 0
DWIDTH 12 0
BBX 12 11 0 0
BITMAP
E770
E770
E770
E770
6770
6770
6770
77F0
7FF0
7FF0
7FF0
ENDCHAR
STARTCHAR 0429
ENCODING 1065
SWIDTH 720 0
DWIDTH 12 0
BBX 12 14 0 -2
BITMAP
0040
E670
E670
F670
F670
7770
7770
7770
7F70
7FF0
7FF0
7FE0
0060
0060
ENDCHAR
STARTCHAR 042A
ENCODING 1066
SWIDTH 600 0
DWIDTH 10 0
BBX 10 12 0 0
BITMAP
2800
F800
F800
7800
1F00
1F80
1DC0
1CC0
1CC0
1DC0
1FC0
1F00
ENDCHAR
STARTCHAR 042B
ENCODING 1067
SWIDTH 660 0
DWIDTH 11 0
BBX 11 11 0 0
BITMAP
E0E0
E0E0
E0E0
F8E0
7E60
6EE0
6360
7760
7760
7E60
7C60
ENDCHAR
STARTCHAR 042C
ENCODING 1068
SWIDTH 480 0
DWIDTH 8 0
BBX 8 11 0 0
BITMAP
E0
E0
E0
F8
7E
7E
63
67
77
7F
7E
ENDCHAR
STARTCHAR 042D
ENCODING 1069
SWIDTH 480 0
DWIDTH 8 0
BBX 8 11 0 0
BITMAP
7C
FE
7F
67
3F
3F
3F
4F
FF
FE
38
ENDCHAR
STARTCHAR 042E
ENCODING 1070
SWIDTH 660 0
DWIDTH 11 0
BBX 11 12 0 0
BITMAP
0300
73C0
77C0
77E0
77E0
7E60
7E60
7E60
77E0
F3C0
F3C0
19C0
ENDCHAR
STARTCHAR 042F
ENCODING 1071
SWIDTH 480 0
DWIDTH 8 0
BBX 9 12 0 0
BITMAP
0800
3F00
6F00
4F00
CF00
7F00
7F00
3F00
3780
7780
6780
6700
ENDCHAR
STARTCHAR 0430
ENCODING 1072
SWIDTH 600 0
DWIDTH 10 0
BBX 9 11 1 0
BITMAP
0C00
1C00
1C00
1C00
3E00
3E00
6E00
7F00
FF00
E780
C780
ENDCHAR
STARTCHAR 0431
ENCODING 1073
SWIDTH 480 0
DWIDTH 8 0
BBX 7 11 1 0
BITMAP
FE
FE
FE
E0
FC
FE
EE
E6
EE
FC
F8
ENDCHAR
STARTCHAR 0432
ENCODING 1074
SWIDTH 480 0
DWIDTH 8 0
BBX 8 11 0 1
BITMAP
FC
FE
66
66
7C
7E
77
73
77
7E
3C
ENDCHAR
STARTCHAR 0433
ENCODING 1075
SWIDTH 480 0
DWIDTH 8 0
BBX 8 12 0 0
BITMAP
0F
FF
FF
E0
E0
E0
E0
E0
E0
E0
E0
70
ENDCHAR
STARTCHAR 0434
ENCODING 1076
SWIDTH 600 0
DWIDTH 10 0
BBX 10 13 0 -2
BITMAP
0E00
0E00
1E00
1E00
1F00
3B00
3B00
3380
7380
FFC0
FFC0
6180
6180
ENDCHAR
STARTCHAR 0435
ENCODING 1077
SWIDTH 480 0
DWIDTH 8 0
BBX 8 12 0 0
BITMAP
38
FC
7C
7C
70
7C
7C
30
3F
3F
3F
38
ENDCHAR
STARTCHAR 0436
ENCODING 1078
SWIDTH 660 0
DWIDTH 11 0
BBX 12 11 0 0
BITMAP
EEE0
FEE0
7EE0
7FC0
3FC0
3FC0
3FC0
7EE0
76F0
F7E0
6600
ENDCHAR
STARTCHAR 0437
ENCODING 1079
SWIDTH 480 0
DWIDTH 8 0
BBX 8 12 0 0
BITMAP
30
FE
FE
8E
0E
3E
3E
07
07
7F
7E
3C
ENDCHAR
STARTCHAR 0438
ENCODING 1080
SWIDTH 540 0
DWIDTH 9 0
BBX 9 11 0 0
BITMAP
E700
E700
E700
7700
7F80
7F80
7B80
7B80
7B80
7380
7380
ENDCHAR
STARTCHAR 0439
ENCODING 1081
SWIDTH 540 0
DWIDTH 9 0
BBX 9 14 0 0
BITMAP
2C00
3C00
0000
E700
E700
E700
7700
7F80
7F80
7B80
7B80
7B80
7380
7380
ENDCHAR
STARTCHAR 043A
ENCODING 1082
SWIDTH 540 0
DWIDTH 9 0
BBX 9 11 0 1
BITMAP
7B00
7F00
FF00
FE00
FE00
FC00
FE00
FE00
FF00
FB80
FB00
ENDCHAR
STARTCHAR 043B
ENCODING 1083
SWIDTH 540 0
DWIDTH 9 0
BBX 10 11 0 0
BITMAP
3800
3800
3C00
3E00
7E00
7700
7700
7780
7780
F7C0
E000
ENDCHAR
STARTCHAR 043C
ENCODING 1084
SWIDTH 600 0
DWIDTH 10 0
BBX 10 11 0 0
BITMAP
2080
3180
71C0
7BC0
7FC0
7FC0
75C0
71C0
73C0
E3C0
E3C0
ENDCHAR
STARTCHAR 043D
ENCODING 1085
SWIDTH 540 0
DWIDTH 9 0
BBX 9 11 0 0
BITMAP
7B80
7B80
7B80
7B80
7F80
7F80
7F80
7380
7380
7780
F600
ENDCHAR
STARTCHAR 043E
ENCODING 1086
SWIDTH 480 0
DWIDTH 8 0
BBX 9 12 0 0
BITMAP
1000
3C00
7E00
7F00
7F00
E780
E780
F780
7F00
7F00
7F00
1E00
ENDCHAR
STARTCHAR 043F
ENCODING 1087
SWIDTH 540 0
DWIDTH 9 0
BBX 9 11 0 0
BITMAP
FF80
FF80
FF80
E380
E380
E380
7380
7380
7380
7380
7380
ENDCHAR
STARTCHAR 0440
ENCODING 1088
SWIDTH 480 0
DWIDTH 8 0
BBX 8 11 0 0
BITMAP
7E
7E
77
73
77
7F
FC
F0
F0
F0
F8
ENDCHAR
STARTCHAR 0441
ENCODING 1089
SWIDTH 480 0
DWIDTH 8 0
BBX 8 11 0 0
BITMAP
3E
7F
7F
F0
F0
F0
FF
7F
7F
7E
1C
ENDCHAR
STARTCHAR 0442
ENCODING 1090
SWIDTH 540 0
DWIDTH 9 0
BBX 9 11 0 0
BITMAP
FF80
FF80
FF80
CE00
0C00
0C00
0C00
0C00
0C00
0C00
0C00
ENDCHAR
STARTCHAR 0443
ENCODING 1091
SWIDTH 480 0
DWIDTH 8 0
BBX 8 11 0 0
BITMAP
F7
77
76
36
3E
1E
1E
1E
7E
7C
F0
ENDCHAR
STARTCHAR 0444
ENCODING 1092
SWIDTH 660 0
DWIDTH 11 0
BBX 11 13 0 -1
BITMAP
0E00
3FC0
7FC0
7FE0
FFE0
EEE0
EEE0
EEE0
FFC0
7FC0
7F80
1C00
1C00
ENDCHAR
STARTCHAR 0445
ENCODING 1093
SWIDTH 540 0
DWIDTH 9 0
BBX 9 11 0 0
BITMAP
6380
F380
7700
7F00
3F00
1E00
1E00
3F00
3F00
7300
7000
ENDCHAR
STARTCHAR 0446
ENCODING 1094
SWIDTH 480 0
DWIDTH 8 0
BBX 9 13 0 -2
BITMAP
6300
6300
6380
6380
6380
E380
E380
E380
FF80
FF80
7F80
0380
0300
ENDCHAR
STARTCHAR 0447
ENCODING 1095
SWIDTH 480 0
DWIDTH 8 0
BBX 8 11 0 0
BITMAP
E7
E7
E7
E7
E7
7F
7F
1F
07
07
03
ENDCHAR
STARTCHAR 0448
ENCODING 1096
SWIDTH 720 0
DWIDTH 12 0
BBX 12 11 0 0
BITMAP
E770
E770
E770
E770
6770
6770
6770
77F0
7FF0
7FF0
7FF0
ENDCHAR
STARTCHAR 0449
ENCODING 1097
SWIDTH 720 0
DWIDTH 12 0
BBX 12 14 0 -2
BITMAP
0040
E670
E670
F670
F670
7770
7770
7770
7F70
7FF0
7FF0
7FE0
0060
0060
ENDCHAR
STARTCHAR 044A
ENCODING 1098
SWIDTH 600 0
DWIDTH 10 0
BBX 10 12 0 0
BITMAP
2800
F800
F800
7800
1F00
1F80
1DC0
1CC0
1CC0
1DC0
1FC0
1F00
ENDCHAR
STARTCHAR 044B
ENCODING 1099
SWIDTH 660 0
DWIDTH 11 0
BBX 11 11 0 0
BITMAP
E0E0
E0E0
E0E0
F8E0
7E60
6EE0
6360
7760
7760
7E60
7C60
ENDCHAR
STARTCHAR 044C
ENCODING 1100
SWIDTH 480 0
DWIDTH 8 0
BBX 8 11 0 0
BITMAP
E0
E0
E0
F8
7E
7E
63
67
77
7F
7E
ENDCHAR
STARTCHAR 044D
ENCODING 1101
SWIDTH 480 0
DWIDTH 8 0
BBX 8 11 0 0
BITMAP
7C
FE
7F
67
3F
3F
3F
4F
FF
FE
38
ENDCHAR
STARTCHAR 044E
ENCODING 1102
SWIDTH 660 0
DWIDTH 11 0
BBX 11 12 0 0
BITMAP
0300
73C0
77C0
77E0
77E0
7E60
7E60
7E60
77E0
F3C0
F3C0
19C0
ENDCHAR
STARTCHAR 044F
ENCODING 1103
SWIDTH 480 0
DWIDTH 8 0
BBX 9 12 0 0
BITMAP
0800
3F00
6F00
4F00
CF00
7F00
7F00
3F00
3780
7780
6780
6700
ENDCHAR
STARTCHAR 0450
ENCODING 1104
SWIDTH 480 0
DWIDTH 8 0
BBX 8 14 0 1
BITMAP
60
30
38
FC
7C
7C
70
7C
7C
30
3F
3F
3F
38
ENDCHAR
STARTCHAR 0451
ENCODING 1105
SWIDTH 480 0
DWIDTH 8 0
BBX 8 14 0 0
BITMAP
18
D8
38
FC
7C
7C
70
7C
7C
30
3F
3F
3F
38
ENDCHAR
STARTCHAR 0452
ENCODING 1106
SWIDTH 660 0
DWIDTH 11 0
BBX 11 13 0 -2
BITMAP
FF80
FF80
1C00
1D80
1FC0
0FE0
0CE0
0CE0
0C60
0C60
0CE0
01E0
01C0
ENDCHAR
STARTCHAR 0453
ENCODING 1107
SWIDTH 480 0
DWIDTH 8 0
BBX 8 14 0 0
BITMAP
0C
18
0F
FF
FF
E0
E0
E0
E0
E0
E0
E0
E0
70
ENDCHAR
STARTCHAR 0454
ENCODING 1108
SWIDTH 480 0
DWIDTH 8 0
BBX 8 11 0 0
BITMAP
3E
7F
7F
F7
FC
FE
FE
F3
7F
3F
1E
ENDCHAR
STARTCHAR 0455
ENCODING 1109
SWIDTH 480 0
DWIDTH 8 0
BBX 8 12 0 0
BITMAP
08
3F
7E
7E
7E
70
3E
0E
07
FF
FE
7C
ENDCHAR
STARTCHAR 0456
ENCODING 1110
SWIDTH 300 0
DWIDTH 5 0
BBX 4 11 1 0
BITMAP
F0
70
F0
F0
F0
F0
F0
F0
F0
E0
E0
ENDCHAR
STARTCHAR 0457
ENCODING 1111
SWIDTH 300 0
DWIDTH 5 0
BBX 5 13 1 1
BITMAP
D8
00
F0
70
F0
F0
F0
F0
F0
F0
F0
E0
E0
ENDCHAR
STARTCHAR 0458
ENCODING 1112
SWIDTH 420 0
DWIDTH 7 0
BBX 7 11 0 0
BITMAP
1E
1E
1E
1E
1E
1E
0E
EE
EE
7C
38
ENDCHAR
STARTCHAR 0459
ENCODING 1113
SWIDTH 720 0
DWIDTH 12 0
BBX 12 11 0 0
BITMAP
1F00
1F00
1F00
3F80
3FE0
3FE0
7730
7730
7770
F7F0
E7E0
ENDCHAR
STARTCHAR 045A
ENCODING 1114
SWIDTH 720 0
DWIDTH 12 0
BBX 12 11 0 0
BITMAP
7300
7300
7700
7780
7FE0
7FE0
7F30
7730
7770
77F0
F7E0
ENDCHAR
STARTCHAR 045B
ENCODING 1115
SWIDTH 660 0
DWIDTH 11 0
BBX 11 11 0 0
BITMAP
FF80
FF80
1C00
1D80
1FC0
0FE0
0CE0
0CE0
0CE0
0CE0
0CE0
ENDCHAR
STARTCHAR 045C
ENCODING 1116
SWIDTH 540 0
DWIDTH 9 0
BBX 9 14 0 0
BITMAP
0700
0600
0000
7B00
7F00
FF00
FE00
FE00
FC00
FE00
FE00
FF00
FB80
FB00
ENDCHAR
STARTCHAR 045D
ENCODING 1117
SWIDTH 540 0
DWIDTH 9 0
BBX 9 14 0 0
BITMAP
3000
1800
0000
E700
E700
E700
7700
7F80
7F80
7B80
7B80
7B80
7380
7380
ENDCHAR
STARTCHAR 045E
ENCODING 1118
SWIDTH 480 0
DWIDTH 8 0
BBX 8 14 0 0
BITMAP
2C
3C
00
F7
77
76
36
3E
1E
1E
1E
7E
7C
F0
ENDCHAR
STARTCHAR 045F
ENCODING 1119
SWIDTH 480 0
DWIDTH 8 0
BBX 9 13 0 -2
BITMAP
E300
E300
E300
E300
E300
E300
E380
E380
FF80
FF80
FF00
1C00
1C00
ENDCHAR
STARTCHAR 0462
ENCODING 1122
SWIDTH 600 0
DWIDTH 10 0
BBX 10 11 0 0
BITMAP
1C00
FF00
FF00
1E00
1F80
1FC0
1CC0
1CC0
1DC0
1FC0
1F80
ENDCHAR
STARTCHAR 0463
ENCODING 1123
SWIDTH 600 0
DWIDTH 10 0
BBX 10 11 0 0
BITMAP
1C00
FF00
FF00
1E00
1F80
1FC0
1CC0
1CC0
1DC0
1FC0
1F80
ENDCHAR
STARTCHAR 0474
ENCODING 1140
SWIDTH 540 0
DWIDTH 9 0
BBX 9 11 0 0
BITMAP
E380
E380
7780
7600
7600
3E00
3E00
3C00
1C00
1C00
1800
ENDCHAR
STARTCHAR 0475
ENCODING 1141
SWIDTH 540 0
DWIDTH 9 0
BBX 9 11 0 0
BITMAP
E380
E380
7780
7600
7600
3E00
3E00
3C00
1C00
1C00
1800
ENDCHAR
STARTCHAR 0476
ENCODING 1142
SWIDTH 540 0
DWIDTH 9 0
BBX 9 14 0 0
BITMAP
6C00
3400
0000
E380
E380
7780
7600
7600
3E00
3E00
3C00
1C00
1C00
1800
ENDCHAR
STARTCHAR 0477
ENCODING 1143
SWIDTH 540 0
DWIDTH 9 0
BBX 9 14 0 0
BITMAP
6C00
3400
0000
E380
E380
7780
7600
7600
3E00
3E00
3C00
1C00
1C00
1800
ENDCHAR
STARTCHAR 0480
ENCODING 1152
SWIDTH 480 0
DWIDTH 8 0
BBX 8 14 0 -2
BITMAP
0E
3F
7F
7F
E0
E0
E0
E0
E0
7F
7F
3F
07
07
ENDCHAR
STARTCHAR 0481
ENCODING 1153
SWIDTH 480 0
DWIDTH 8 0
BBX 8 14 0 -2
BITMAP
0E
3F
7F
7F
E0
E0
E0
E0
E0
7F
7F
3F
07
07
ENDCHAR
STARTCHAR 048C
ENCODING 1164
SWIDTH 540 0
DWIDTH 9 0
BBX 9 11 0 0
BITMAP
7000
FC00
FC00
7C00
7F00
7F00
3380
3380
3B80
3F80
3F00
ENDCHAR
STARTCHAR 048D
ENCODING 1165
SWIDTH 540 0
DWIDTH 9 0
BBX 9 11 0 0
BITMAP
7000
FC00
FC00
7C00
7F00
7F00
3380
3380
3B80
3F80
3F00
ENDCHAR
STARTCHAR 0490
ENCODING 1168
SWIDTH 480 0
DWIDTH 8 0
BBX 8 14 0 0
BITMAP
07
07
0F
FF
FF
E0
E0
E0
E0
E0
E0
E0
E0
70
ENDCHAR
STARTCHAR 0491
ENCODING 1169
SWIDTH 480 0
DWIDTH 8 0
BBX 8 14 0 0
BITMAP
07
07
0F
FF
FF
E0
E0
E0
E0
E0
E0
E0
E0
70
ENDCHAR
STARTCHAR 0492
ENCODING 1170
SWIDTH 540 0
DWIDTH 9 0
BBX 9 12 0 0
BITMAP
0F00
7F80
7F80
7000
7000
7000
FE00
FE00
7000
7000
7000
7800
ENDCHAR
STARTCHAR 0493
ENCODING 1171
SWIDTH 540 0
DWIDTH 9 0
BBX 9 12 0 0
BITMAP
0F00
7F80
7F80
7000
7000
7000
FE00
FE00
7000
7000
7000
7800
ENDCHAR
STARTCHAR 0496
ENCODING 1174
SWIDTH 660 0
DWIDTH 11 0
BBX 12 13 0 -2
BITMAP
EEE0
FEC0
7FC0
7FC0
3F80
3F80
3FC0
7FE0
76E0
F6F0
6670
0060
0060
ENDCHAR
STARTCHAR 0497
ENCODING 1175
SWIDTH 660 0
DWIDTH 11 0
BBX 12 13 0 -2
BITMAP
EEE0
FEC0
7FC0
7FC0
3F80
3F80
3FC0
7FE0
76E0
F6F0
6670
0060
0060
ENDCHAR
STARTCHAR 0498
ENCODING 1176
SWIDTH 480 0
DWIDTH 8 0
BBX 8 15 0 -3
BITMAP
30
FE
FE
8E
0E
3E
3E
07
07
7F
7E
3C
0C
06
1C
ENDCHAR
STARTCHAR 0499
ENCODING 1177
SWIDTH 480 0
DWIDTH 8 0
BBX 8 15 0 -3
BITMAP
30
FE
FE
8E
0E
3E
3E
07
07
7F
7E
3C
0C
06
1C
ENDCHAR
STARTCHAR 049A
ENCODING 1178
SWIDTH 540 0
DWIDTH 9 0
BBX 9 13 0 -1
BITMAP
7B00
7F00
FE00
FE00
FC00
F800
FC00
FE00
F700
F380
F380
0180
0180
ENDCHAR
STARTCHAR 049B
ENCODING 1179
SWIDTH 540 0
DWIDTH 9 0
BBX 9 13 0 -1
BITMAP
7B00
7F00
FE00
FE00
FC00
F800
FC00
FE00
F700
F380
F380
0180
0180
ENDCHAR
STARTCHAR 04A0
ENCODING 1184
SWIDTH 600 0
DWIDTH 10 0
BBX 10 12 0 0
BITMAP
0080
FDC0
FDC0
FF80
3F00
3F00
3E00
3F00
3F80
3DC0
3DC0
3C80
ENDCHAR
STARTCHAR 04A1
ENCODING 1185
SWIDTH 600 0
DWIDTH 10 0
BBX 10 12 0 0
BITMAP
0080
FDC0
FDC0
FF80
3F00
3F00
3E00
3F00
3F80
3DC0
3DC0
3C80
ENDCHAR
STARTCHAR 04A2
ENCODING 1186
SWIDTH 540 0
DWIDTH 9 0
BBX 9 13 0 -2
BITMAP
7B80
7B80
7380
7B80
7F00
7F00
7F80
7780
7700
7780
F780
0180
0180
ENDCHAR
STARTCHAR 04A3
ENCODING 1187
SWIDTH 540 0
DWIDTH 9 0
BBX 9 13 0 -2
BITMAP
7B80
7B80
7380
7B80
7F00
7F00
7F80
7780
7700
7780
F780
0180
0180
ENDCHAR
STARTCHAR 04A4
ENCODING 1188
SWIDTH 600 0
DWIDTH 10 0
BBX 11 11 0 0
BITMAP
7BE0
7BE0
7BE0
7B80
7F80
7F80
7F80
7380
7380
7780
F600
ENDCHAR
STARTCHAR 04A5
ENCODING 1189
SWIDTH 600 0
DWIDTH 10 0
BBX 11 11 0 0
BITMAP
7BE0
7BE0
7BE0
7B80
7F80
7F80
7F80
7380
7380
7780
F600
ENDCHAR
STARTCHAR 04AA
ENCODING 1194
SWIDTH 480 0
DWIDTH 8 0
BBX 8 14 0 -3
BITMAP
3E
7F
7F
F0
F0
F0
FF
7F
7F
7E
1C
18
2C
3C
ENDCHAR
STARTCHAR 04AB
ENCODING 1195
SWIDTH 480 0
DWIDTH 8 0
BBX 8 14 0 -3
BITMAP
3E
7F
7F
F0
F0
F0
FF
7F
7F
7E
1C
18
2C
3C
ENDCHAR
STARTCHAR 04AC
ENCODING 1196
SWIDTH 540 0
DWIDTH 9 0
BBX 9 13 0 -2
BITMAP
FF80
FF80
FF80
CE00
0C00
0C00
0C00
0C00
0C00
0E00
0E00
0600
0600
ENDCHAR
STARTCHAR 04AD
ENCODING 1197
SWIDTH 540 0
DWIDTH 9 0
BBX 9 13 0 -2
BITMAP
FF80
FF80
FF80
CE00
0C00
0C00
0C00
0C00
0C00
0E00
0E00
0600
0600
ENDCHAR
STARTCHAR 04AE
ENCODING 1198
SWIDTH 600 0
DWIDTH 10 0
BBX 10 11 0 0
BITMAP
61C0
F180
7380
3F00
3F00
1E00
1E00
0C00
0C00
0E00
0E00
ENDCHAR
STARTCHAR 04AF
ENCODING 1199
SWIDTH 600 0
DWIDTH 10 0
BBX 10 11 0 0
BITMAP
61C0
F180
7380
3F00
3F00
1E00
1E00
0C00
0C00
0E00
0E00
ENDCHAR
STARTCHAR 04B0
ENCODING 1200
SWIDTH 600 0
DWIDTH 10 0
BBX 10 11 0 0
BITMAP
61C0
F180
7380
3F00
3F00
1E00
1E00
7F80
7F80
3E00
0E00
ENDCHAR
STARTCHAR 04B1
ENCODING 1201
SWIDTH 600 0
DWIDTH 10 0
BBX 10 11 0 0
BITMAP
61C0
F180
7380
3F00
3F00
1E00
1E00
7F80
7F80
3E00
0E00
ENDCHAR
STARTCHAR 04B2
ENCODING 1202
SWIDTH 540 0
DWIDTH 9 0
BBX 9 13 0 -2
BITMAP
6380
F380
7700
7F00
3E00
1E00
3E00
3E00
3700
7380
7180
0180
0180
ENDCHAR
STARTCHAR 04B3
ENCODING 1203
SWIDTH 540 0
DWIDTH 9 0
BBX 9 13 0 -2
BITMAP
6380
F380
7700
7F00
3E00
1E00
3E00
3E00
3700
7380
7180
0180
0180
ENDCHAR
STARTCHAR 04B6
ENCODING 1206
SWIDTH 480 0
DWIDTH 8 0
BBX 8 13 0 -2
BITMAP
E6
E6
E6
E6
E7
7F
7F
1F
07
07
07
03
03
ENDCHAR
STARTCHAR 04B7
ENCODING 1207
SWIDTH 480 0
DWIDTH 8 0
BBX 8 13 0 -2
BITMAP
E6
E6
E6
E6
E7
7F
7F
1F
07
07
07
03
03
ENDCHAR
STARTCHAR 04B8
ENCODING 1208
SWIDTH 480 0
DWIDTH 8 0
BBX 8 11 0 0
BITMAP
E7
E7
E7
FF
FF
7F
7F
1F
0F
07
03
ENDCHAR
STARTCHAR 04B9
ENCODING 1209
SWIDTH 480 0
DWIDTH 8 0
BBX 8 11 0 0
BITMAP
E7
E7
E7
FF
FF
7F
7F
1F
0F
07
03
ENDCHAR
STARTCHAR 04BA
ENCODING 1210
SWIDTH 480 0
DWIDTH 8 0
BBX 8 11 0 0
BITMAP
E0
60
60
7E
7F
7F
77
73
73
73
73
ENDCHAR
STARTCHAR 04BB
ENCODING 1211
SWIDTH 480 0
DWIDTH 8 0
BBX 8 11 0 0
BITMAP
E0
60
60
7E
7F
7F
77
73
73
73
73
ENDCHAR
STARTCHAR 04BC
ENCODING 1212
SWIDTH 540 0
DWIDTH 9 0
BBX 9 11 0 0
BITMAP
3F00
3F80
3F80
3380
FF80
FF80
3000
3000
1F80
1F80
0F00
ENDCHAR
STARTCHAR 04BD
ENCODING 1213
SWIDTH 540 0
DWIDTH 9 0
BBX 9 11 0 0
BITMAP
3F00
3F80
3F80
3380
FF80
FF80
3000
3000
1F80
1F80
0F00
ENDCHAR
STARTCHAR 04BE
ENCODING 1214
SWIDTH 540 0
DWIDTH 9 0
BBX 9 13 0 -2
BITMAP
3F00
3F80
3F80
3380
FF80
FF80
3000
3000
1F80
1F80
0F00
0E00
0E00
ENDCHAR
STARTCHAR 04BF
ENCODING 1215
SWIDTH 540 0
DWIDTH 9 0
BBX 9 13 0 -2
BITMAP
3F00
3F80
3F80
3380
FF80
FF80
3000
3000
1F80
1F80
0F00
0E00
0E00
ENDCHAR
STARTCHAR 04C0
ENCODING 1216
SWIDTH 180 0
DWIDTH 3 0
BBX 3 11 0 0
BITMAP
E0
E0
E0
E0
E0
E0
E0
E0
60
E0
E0
ENDCHAR
STARTCHAR 04C1
ENCODING 1217
SWIDTH 660 0
DWIDTH 11 0
BBX 12 14 0 0
BITMAP
1600
1E00
0000
EEE0
FEE0
7EE0
7FC0
3FC0
3FC0
3FC0
7EE0
76F0
F7E0
6600
ENDCHAR
STARTCHAR 04C2
ENCODING 1218
SWIDTH 660 0
DWIDTH 11 0
BBX 12 14 0 0
BITMAP
1600
1E00
0000
EEE0
FEE0
7EE0
7FC0
3FC0
3FC0
3FC0
7EE0
76F0
F7E0
6600
ENDCHAR
STARTCHAR 04CB
ENCODING 1227
SWIDTH 480 0
DWIDTH 8 0
BBX 8 13 0 -2
BITMAP
E7
E7
E7
E7
E7
7F
7F
1F
07
0F
07
06
06
ENDCHAR
STARTCHAR 04CC
ENCODING 1228
SWIDTH 480 0
DWIDTH 8 0
BBX 8 13 0 -2
BITMAP
E7
E7
E7
E7
E7
7F
7F
1F
07
0F
07
06
06
ENDCHAR
STARTCHAR 04CF
ENCODING 1231
SWIDTH 180 0
DWIDTH 3 0
BBX 3 11 0 0
BITMAP
E0
E0
E0
E0
E0
E0
E0
E0
60
E0
E0
ENDCHAR
STARTCHAR 04D0
ENCODING 1232
SWIDTH 600 0
DWIDTH 10 0
BBX 9 14 1 0
BITMAP
3600
1C00
0000
0C00
1C00
1C00
1C00
3E00
3E00
6E00
7F00
FF00
E780
C780
ENDCHAR
STARTCHAR 04D1
ENCODING 1233
SWIDTH 600 0
DWIDTH 10 0
BBX 9 14 1 0
BITMAP
3600
1C00
0000
0C00
1C00
1C00
1C00
3E00
3E00
6E00
7F00
FF00
E780
C780
ENDCHAR
STARTCHAR 04D2
ENCODING 1234
SWIDTH 600 0
DWIDTH 10 0
BBX 9 13 1 1
BITMAP
3600
0000
0C00
1C00
1C00
1C00
3E00
3E00
6E00
7F00
FF00
E780
C780
ENDCHAR
STARTCHAR 04D3
ENCODING 1235
SWIDTH 600 0
DWIDTH 10 0
BBX 9 13 1 1
BITMAP
3600
0000
0C00
1C00
1C00
1C00
3E00
3E00
6E00
7F00
FF00
E780
C780
ENDCHAR
STARTCHAR 04D4
ENCODING 1236
SWIDTH 720 0
DWIDTH 12 0
BBX 12 12 0 0
BITMAP
0100
07C0
0FC0
0FC0
0F00
1FC0
1FC0
3700
3FF0
7FF0
73F0
E3C0
ENDCHAR
STARTCHAR 04D5
ENCODING 1237
SWIDTH 720 0
DWIDTH 12 0
BBX 12 12 0 0
BITMAP
0100
07C0
0FC0
0FC0
0F00
1FC0
1FC0
3700
3FF0
7FF0
73F0
E3C0
ENDCHAR
STARTCHAR 04D6
ENCODING 1238
SWIDTH 480 0
DWIDTH 8 0
BBX 8 15 0 0
BITMAP
08
F8
70
38
FC
7C
7C
70
7C
7C
30
3F
3F
3F
38
ENDCHAR
STARTCHAR 04D7
ENCODING 1239
SWIDTH 480 0
DWIDTH 8 0
BBX 8 15 0 0
BITMAP
08
F8
70
38
FC
7C
7C
70
7C
7C
30
3F
3F
3F
38
ENDCHAR
STARTCHAR 04D8
ENCODING 1240
SWIDTH 480 0
DWIDTH 8 0
BBX 8 11 0 0
BITMAP
7C
FE
06
06
FF
FF
E7
7F
7F
7E
1C
ENDCHAR
STARTCHAR 04D9
ENCODING 1241
SWIDTH 480 0
DWIDTH 8 0
BBX 8 11 0 0
BITMAP
7C
FE
06
06
FF
FF
E7
7F
7F
7E
1C
ENDCHAR
STARTCHAR 04DA
ENCODING 1242
SWIDTH 480 0
DWIDTH 8 0
BBX 8 14 0 0
BITMAP
08
6C
00
7C
FE
06
06
FF
FF
E7
7F
7F
7E
1C
ENDCHAR
STARTCHAR 04DB
ENCODING 1243
SWIDTH 480 0
DWIDTH 8 0
BBX 8 14 0 0
BITMAP
08
6C
00
7C
FE
06
06
FF
FF
E7
7F
7F
7E
1C
ENDCHAR
STARTCHAR 04DC
ENCODING 1244
SWIDTH 660 0
DWIDTH 11 0
BBX 12 13 0 1
BITMAP
1B00
0000
EEE0
FEE0
7EE0
7FC0
3FC0
3FC0
3FC0
7EE0
76F0
F7E0
6600
ENDCHAR
STARTCHAR 04DD
ENCODING 1245
SWIDTH 660 0
DWIDTH 11 0
BBX 12 13 0 1
BITMAP
1B00
0000
EEE0
FEE0
7EE0
7FC0
3FC0
3FC0
3FC0
7EE0
76F0
F7E0
6600
ENDCHAR
STARTCHAR 04DE
ENCODING 1246
SWIDTH 480 0
DWIDTH 8 0
BBX 8 14 0 0
BITMAP
08
6C
30
FE
FE
8E
0E
3E
3E
07
07
7F
7E
3C
ENDCHAR
STARTCHAR 04DF
ENCODING 1247
SWIDTH 480 0
DWIDTH 8 0
BBX 8 14 0 0
BITMAP
08
6C
30
FE
FE
8E
0E
3E
3E
07
07
7F
7E
3C
ENDCHAR
STARTCHAR 04E0
ENCODING 1248
SWIDTH 480 0
DWIDTH 8 0
BBX 8 11 0 0
BITMAP
7E
7E
0C
1C
7E
3F
03
03
FF
FE
3E
ENDCHAR
STARTCHAR 04E1
ENCODING 1249
SWIDTH 480 0
DWIDTH 8 0
BBX 8 11 0 0
BITMAP
7E
7E
0C
1C
7E
3F
03
03
FF
FE
3E
ENDCHAR
STARTCHAR 04E2
ENCODING 1250
SWIDTH 540 0
DWIDTH 9 0
BBX 9 13 0 0
BITMAP
3E00
0000
E700
E700
E700
7700
7F80
7F80
7B80
7B80
7B80
7380
7380
ENDCHAR
STARTCHAR 04E3
ENCODING 1251
SWIDTH 540 0
DWIDTH 9 0
BBX 9 13 0 0
BITMAP
3E00
0000
E700
E700
E700
7700
7F80
7F80
7B80
7B80
7B80
7380
7380
ENDCHAR
STARTCHAR 04E4
ENCODING 1252
SWIDTH 540 0
DWIDTH 9 0
BBX 9 14 0 0
BITMAP
2000
3400
0000
E700
E700
E700
7700
7F80
7F80
7B80
7B80
7B80
7380
7380
ENDCHAR
STARTCHAR 04E5
ENCODING 1253
SWIDTH 540 0
DWIDTH 9 0
BBX 9 14 0 0
BITMAP
2000
3400
0000
E700
E700
E700
7700
7F80
7F80
7B80
7B80
7B80
7380
7380
ENDCHAR
STARTCHAR 04E6
ENCODING 1254
SWIDTH 480 0
DWIDTH 8 0
BBX 9 14 0 0
BITMAP
0800
6800
1000
3C00
7E00
7F00
7F00
E780
E780
F780
7F00
7F00
7F00
1E00
ENDCHAR
STARTCHAR 04E7
ENCODING 1255
SWIDTH 480 0
DWIDTH 8 0
BBX 9 14 0 0
BITMAP
0800
6800
1000
3C00
7E00
7F00
7F00
E780
E780
F780
7F00
7F00
7F00
1E00
ENDCHAR
STARTCHAR 04E8
ENCODING 1256
SWIDTH 480 0
DWIDTH 8 0
BBX 9 12 0 0
BITMAP
1800
7E00
7F00
7F00
FF00
E780
FF80
6380
7F00
7F00
3F00
1E00
ENDCHAR
STARTCHAR 04E9
ENCODING 1257
SWIDTH 480 0
DWIDTH 8 0
BBX 9 12 0 0
BITMAP
1800
7E00
7F00
7F00
FF00
E780
FF80
6380
7F00
7F00
3F00
1E00
ENDCHAR
STARTCHAR 04EA
ENCODING 1258
SWIDTH 480 0
DWIDTH 8 0
BBX 9 14 0 0
BITMAP
0400
2C00
1800
7E00
7F00
7F00
FF00
E780
FF80
6380
7F00
7F00
3F00
1E00
ENDCHAR
STARTCHAR 04EB
ENCODING 1259
SWIDTH 480 0
DWIDTH 8 0
BBX 9 14 0 0
BITMAP
0400
2C00
1800
7E00
7F00
7F00
FF00
E780
FF80
6380
7F00
7F00
3F00
1E00
ENDCHAR
STARTCHAR 04EC
ENCODING 1260
SWIDTH 480 0
DWIDTH 8 0
BBX 8 14 0 0
BITMAP
08
6C
00
7C
FE
7F
67
3F
3F
3F
4F
FF
FE
38
ENDCHAR
STARTCHAR 04ED
ENCODING 1261
SWIDTH 480 0
DWIDTH 8 0
BBX 8 14 0 0
BITMAP
08
6C
00
7C
FE
7F
67
3F
3F
3F
4F
FF
FE
38
ENDCHAR
STARTCHAR 04EE
ENCODING 1262
SWIDTH 480 0
DWIDTH 8 0
BBX 8 13 0 0
BITMAP
3E
00
F7
77
76
36
3E
1E
1E
1E
7E
7C
F0
ENDCHAR
STARTCHAR 04EF
ENCODING 1263
SWIDTH 480 0
DWIDTH 8 0
BBX 8 13 0 0
BITMAP
3E
00
F7
77
76
36
3E
1E
1E
1E
7E
7C
F0
ENDCHAR
STARTCHAR 04F0
ENCODING 1264
SWIDTH 480 0
DWIDTH 8 0
BBX 8 14 0 0
BITMAP
04
34
00
F7
77
76
36
3E
1E
1E
1E
7E
7C
F0
ENDCHAR
STARTCHAR 04F1
ENCODING 1265
SWIDTH 480 0
DWIDTH 8 0
BBX 8 14 0 0
BITMAP
04
34
00
F7
77
76
36
3E
1E
1E
1E
7E
7C
F0
ENDCHAR
STARTCHAR 04F2
ENCODING 1266
SWIDTH 480 0
DWIDTH 8 0
BBX 8 14 0 0
BITMAP
1B
36
00
F7
77
76
36
3E
1E
1E
1E
7E
7C
F0
ENDCHAR
STARTCHAR 04F3
ENCODING 1267
SWIDTH 480 0
DWIDTH 8 0
BBX 8 14 0 0
BITMAP
1B
36
00
F7
77
76
36
3E
1E
1E
1E
7E
7C
F0
ENDCHAR
STARTCHAR 04F4
ENCODING 1268
SWIDTH 480 0
DWIDTH 8 0
BBX 8 14 0 0
BITMAP
04
2C
00
E7
E7
E7
E7
E7
7F
7F
1F
07
07
03
ENDCHAR
STARTCHAR 04F5
ENCODING 1269
SWIDTH 480 0
DWIDTH 8 0
BBX 8 14 0 0
BITMAP
04
2C
00
E7
E7
E7
E7
E7
7F
7F
1F
07
07
03
ENDCHAR
STARTCHAR 04F6
ENCODING 1270
SWIDTH 480 0
DWIDTH 8 0
BBX 8 14 0 -2
BITMAP
0F
FF
FF
E0
E0
E0
E0
E0
E0
E0
F8
78
30
30
ENDCHAR
STARTCHAR 04F7
ENCODING 1271
SWIDTH 480 0
DWIDTH 8 0
BBX 8 14 0 -2
BITMAP
0F
FF
FF
E0
E0
E0
E0
E0
E0
E0
F8
78
30
30
ENDCHAR
STARTCHAR 04F8
ENCODING 1272
SWIDTH 660 0
DWIDTH 11 0
BBX 11 14 0 0
BITMAP
0100
0B00
0000
E0E0
E0E0
E0E0
F8E0
7E60
6EE0
6360
7760
7760
7E60
7C60
ENDCHAR
STARTCHAR 04F9
ENCODING 1273
SWIDTH 660 0
DWIDTH 11 0
BBX 11 14 0 0
BITMAP
0100
0B00
0000
E0E0
E0E0
E0E0
F8E0
7E60
6EE0
6360
7760
7760
7E60
7C60
ENDCHAR
STARTCHAR 0500
ENCODING 1280
SWIDTH 480 0
DWIDTH 8 0
BBX 8 11 0 0
BITMAP
07
07
07
1F
7F
7F
67
E7
E7
7F
7E
ENDCHAR
STARTCHAR 0501
ENCODING 1281
SWIDTH 480 0
DWIDTH 8 0
BBX 8 11 0 0
BITMAP
07
07
07
1F
7F
7F
67
E7
E7
7F
7E
ENDCHAR
STARTCHAR 0510
ENCODING 1296
SWIDTH 480 0
DWIDTH 8 0
BBX 8 12 0 0
BITMAP
0C
3F
7F
71
70
7C
7C
70
E0
FE
7E
3E
ENDCHAR
STARTCHAR 0511
ENCODING 1297
SWIDTH 480 0
DWIDTH 8 0
BBX 8 12 0 0
BITMAP
0C
3F
7F
71
70
7C
7C
70
E0
FE
7E
3E
ENDCHAR
STARTCHAR 0524
ENCODING 1316
SWIDTH 540 0
DWIDTH 9 0
BBX 9 13 0 -2
BITMAP
FF00
FF00
FF00
E300
E300
E300
6300
6300
6300
6380
6380
0180
0380
ENDCHAR
STARTCHAR 0525
ENCODING 1317
SWIDTH 540 0
DWIDTH 9 0
BBX 9 13 0 -2
BITMAP
FF00
FF00
FF00
E300
E300
E300
6300
6300
6300
6380
6380
0180
0380
ENDCHAR
STARTCHAR 0526
ENCODING 1318
SWIDTH 480 0
DWIDTH 8 0
BBX 8 13 0 -2
BITMAP
E0
60
60
7C
7E
7F
67
67
63
73
77
03
03
ENDCHAR
STARTCHAR 0527
ENCODING 1319
SWIDTH 480 0
DWIDTH 8 0
BBX 8 13 0 -2
BITMAP
E0
60
60
7C
7E
7F
67
67
63
73
77
03
03
ENDCHAR
STARTCHAR 052E
ENCODING 1326
SWIDTH 540 0
DWIDTH 9 0
BBX 10 13 0 -2
BITMAP
3000
3800
3C00
3C00
7E00
7E00
7700
7700
F780
F7C0
E1C0
0180
0180
ENDCHAR
STARTCHAR 052F
ENCODING 1327
SWIDTH 540 0
DWIDTH 9 0
BBX 10 13 0 -2
BITMAP
3000
3800
3C00
3C00
7E00
7E00
7700
7700
F780
F7C0
E1C0
0180
0180
ENDCHAR
STARTCHAR 058F
ENCODING 1423
SWIDTH 540 0
DWIDTH 9 0
BBX 9 12 0 0
BITMAP
1800
7C00
7E00
EE00
EE00
EE00
1F80
0E00
1F80
1F80
0600
0600
ENDCHAR
STARTCHAR 1E02
ENCODING 7682
SWIDTH 480 0
DWIDTH 8 0
BBX 8 13 0 0
BITMAP
60
00
FC
FE
66
66
7C
7E
77
73
77
7E
3C
ENDCHAR
STARTCHAR 1E03
ENCODING 7683
SWIDTH 480 0
DWIDTH 8 0
BBX 8 13 0 0
BITMAP
60
00
FC
FE
66
66
7C
7E
77
73
77
7E
3C
ENDCHAR
STARTCHAR 1E06
ENCODING 7686
SWIDTH 480 0
DWIDTH 8 0
BBX 8 13 0 -1
BITMAP
FC
FE
66
66
7C
7E
77
73
77
7E
3C
00
3E
ENDCHAR
STARTCHAR 1E07
ENCODING 7687
SWIDTH 480 0
DWIDTH 8 0
BBX 8 13 0 -1
BITMAP
FC
FE
66
66
7C
7E
77
73
77
7E
3C
00
3E
ENDCHAR
STARTCHAR 1E08
ENCODING 7688
SWIDTH 480 0
DWIDTH 8 0
BBX 8 17 0 -3
BITMAP
06
04
00
3E
7F
7F
F0
F0
F0
FF
7F
7F
7E
1C
18
2C
3C
ENDCHAR
STARTCHAR 1E09
ENCODING 7689
SWIDTH 480 0
DWIDTH 8 0
BBX 8 17 0 -3
BITMAP
06
04
00
3E
7F
7F
F0
F0
F0
FF
7F
7F
7E
1C
18
2C
3C
ENDCHAR
STARTCHAR 1E0A
ENCODING 7690
SWIDTH 420 0
DWIDTH 7 0
BBX 7 13 0 0
BITMAP
60
00
F8
FC
FE
E6
E6
76
7E
7C
7C
78
20
ENDCHAR
STARTCHAR 1E0B
ENCODING 7691
SWIDTH 420 0
DWIDTH 7 0
BBX 7 13 0 0
BITMAP
60
00
F8
FC
FE
E6
E6
76
7E
7C
7C
78
20
ENDCHAR
STARTCHAR 1E0C
ENCODING 7692
SWIDTH 420 0
DWIDTH 7 0
BBX 7 14 0 -3
BITMAP
F8
FC
FE
E6
E6
76
7E
7C
7C
78
20
00
30
10
ENDCHAR
STARTCHAR 1E0D
ENCODING 7693
SWIDTH 420 0
DWIDTH 7 0
BBX 7 14 0 -3
BITMAP
F8
FC
FE
E6
E6
76
7E
7C
7C
78
20
00
30
10
ENDCHAR
STARTCHAR 1E0E
ENCODING 7694
SWIDTH 420 0
DWIDTH 7 0
BBX 7 13 0 -2
BITMAP
F8
FC
FE
E6
E6
76
7E
7C
7C
78
20
00
3E
ENDCHAR
STARTCHAR 1E0F
ENCODING 7695
SWIDTH 420 0
DWIDTH 7 0
BBX 7 13 0 -2
BITMAP
F8
FC
FE
E6
E6
76
7E
7C
7C
78
20
00
3E
ENDCHAR
STARTCHAR 1E10
ENCODING 7696
SWIDTH 420 0
DWIDTH 7 0
BBX 7 14 0 -3
BITMAP
F8
FC
FE
E6
E6
76
7E
7C
7C
78
30
18
0C
3C
ENDCHAR
STARTCHAR 1E11
ENCODING 7697
SWIDTH 420 0
DWIDTH 7 0
BBX 7 14 0 -3
BITMAP
F8
FC
FE
E6
E6
76
7E
7C
7C
78
30
18
0C
3C
ENDCHAR
STARTCHAR 1E1C
ENCODING 7708
SWIDTH 480 0
DWIDTH 8 0
BBX 8 18 0 -3
BITMAP
08
F8
70
38
FC
7C
7C
70
7C
7C
30
3F
3F
3F
3C
0C
16
1E
ENDCHAR
STARTCHAR 1E1D
ENCODING 7709
SWIDTH 480 0
DWIDTH 8 0
BBX 8 18 0 -3
BITMAP
08
F8
70
38
FC
7C
7C
70
7C
7C
30
3F
3F
3F
3C
0C
16
1E
ENDCHAR
STARTCHAR 1E1E
ENCODING 7710
SWIDTH 480 0
DWIDTH 8 0
BBX 8 14 0 0
BITMAP
10
10
0F
FF
FF
E0
E0
F8
F8
E0
E0
E0
E0
70
ENDCHAR
STARTCHAR 1E1F
ENCODING 7711
SWIDTH 480 0
DWIDTH 8 0
BBX 8 14 0 0
BITMAP
10
10
0F
FF
FF
E0
E0
F8
F8
E0
E0
E0
E0
70
ENDCHAR
STARTCHAR 1E24
ENCODING 7716
SWIDTH 540 0
DWIDTH 9 0
BBX 9 14 0 -3
BITMAP
7B80
7B80
7B80
7B80
7F80
7F80
7F80
7380
7380
7780
F600
0000
0C00
0800
ENDCHAR
STARTCHAR 1E25
ENCODING 7717
SWIDTH 540 0
DWIDTH 9 0
BBX 9 14 0 -3
BITMAP
7B80
7B80
7B80
7B80
7F80
7F80
7F80
7380
7380
7780
F600
0000
0C00
0800
ENDCHAR
STARTCHAR 1E28
ENCODING 7720
SWIDTH 540 0
DWIDTH 9 0
BBX 9 14 0 -3
BITMAP
7B80
7B80
7B80
7B80
7F80
7F80
7F80
7380
7380
7780
F600
3000
9800
7000
ENDCHAR
STARTCHAR 1E29
ENCODING 7721
SWIDTH 540 0
DWIDTH 9 0
BBX 9 14 0 -3
BITMAP
7B80
7B80
7B80
7B80
7F80
7F80
7F80
7380
7380
7780
F600
3000
9800
7000
ENDCHAR
STARTCHAR 1E2A
ENCODING 7722
SWIDTH 540 0
DWIDTH 9 0
BBX 9 14 0 -3
BITMAP
7B80
7B80
7B80
7B80
7F80
7F80
7F80
7380
7380
7780
F600
3200
1E00
0C00
ENDCHAR
STARTCHAR 1E2B
ENCODING 7723
SWIDTH 540 0
DWIDTH 9 0
BBX 9 14 0 -3
BITMAP
7B80
7B80
7B80
7B80
7F80
7F80
7F80
7380
7380
7780
F600
3200
1E00
0C00
ENDCHAR
STARTCHAR 1E30
ENCODING 7728
SWIDTH 540 0
DWIDTH 9 0
BBX 9 14 0 0
BITMAP
0700
0600
0000
7B00
7F00
FF00
FE00
FE00
FC00
FE00
FE00
FF00
FB80
FB00
ENDCHAR
STARTCHAR 1E31
ENCODING 7729
SWIDTH 540 0
DWIDTH 9 0
BBX 9 14 0 0
BITMAP
0700
0600
0000
7B00
7F00
FF00
FE00
FE00
FC00
FE00
FE00
FF00
FB80
FB00
ENDCHAR
STARTCHAR 1E34
ENCODING 7732
SWIDTH 540 0
DWIDTH 9 0
BBX 9 13 0 -1
BITMAP
7B00
7F00
FF00
FE00
FE00
FC00
FE00
FE00
FF00
FB80
FB00
0000
3E00
ENDCHAR
STARTCHAR 1E35
ENCODING 7733
SWIDTH 540 0
DWIDTH 9 0
BBX 9 13 0 -1
BITMAP
7B00
7F00
FF00
FE00
FE00
FC00
FE00
FE00
FF00
FB80
FB00
0000
3E00
ENDCHAR
STARTCHAR 1E36
ENCODING 7734
SWIDTH 480 0
DWIDTH 8 0
BBX 7 14 1 -3
BITMAP
78
78
78
F8
F0
F0
F0
F0
FE
FE
FC
00
30
10
ENDCHAR
STARTCHAR 1E37
ENCODING 7735
SWIDTH 480 0
DWIDTH 8 0
BBX 7 14 1 -3
BITMAP
78
78
78
F8
F0
F0
F0
F0
FE
FE
FC
00
30
10
ENDCHAR
STARTCHAR 1E3A
ENCODING 7738
SWIDTH 480 0
DWIDTH 8 0
BBX 7 13 1 -2
BITMAP
78
78
78
F8
F0
F0
F0
F0
FE
FE
FC
00
7C
ENDCHAR
STARTCHAR 1E3B
ENCODING 7739
SWIDTH 480 0
DWIDTH 8 0
BBX 7 13 1 -2
BITMAP
78
78
78
F8
F0
F0
F0
F0
FE
FE
FC
00
7C
ENDCHAR
STARTCHAR 1E3E
ENCODING 7742
SWIDTH 600 0
DWIDTH 10 0
BBX 10 14 0 0
BITMAP
0300
0600
0000
2080
3180
71C0
7BC0
7FC0
7FC0
75C0
71C0
73C0
E3C0
E3C0
ENDCHAR
STARTCHAR 1E3F
ENCODING 7743
SWIDTH 600 0
DWIDTH 10 0
BBX 10 14 0 0
BITMAP
0300
0600
0000
2080
3180
71C0
7BC0
7FC0
7FC0
75C0
71C0
73C0
E3C0
E3C0
ENDCHAR
STARTCHAR 1E40
ENCODING 7744
SWIDTH 600 0
DWIDTH 10 0
BBX 10 13 0 0
BITMAP
0600
0000
2080
3180
71C0
7BC0
7FC0
7FC0
75C0
71C0
73C0
E3C0
E3C0
ENDCHAR
STARTCHAR 1E41
ENCODING 7745
SWIDTH 600 0
DWIDTH 10 0
BBX 10 13 0 0
BITMAP
0600
0000
2080
3180
71C0
7BC0
7FC0
7FC0
75C0
71C0
73C0
E3C0
E3C0
ENDCHAR
STARTCHAR 1E44
ENCODING 7748
SWIDTH 540 0
DWIDTH 9 0
BBX 9 13 0 1
BITMAP
0C00
0000
7B80
7B80
7B80
7B80
7B80
7F80
7F80
7F80
F700
F700
E700
ENDCHAR
STARTCHAR 1E45
ENCODING 7749
SWIDTH 540 0
DWIDTH 9 0
BBX 9 13 0 1
BITMAP
0C00
0000
7B80
7B80
7B80
7B80
7B80
7F80
7F80
7F80
F700
F700
E700
ENDCHAR
STARTCHAR 1E48
ENCODING 7752
SWIDTH 540 0
DWIDTH 9 0
BBX 9 13 0 -2
BITMAP
7B80
7B80
7B80
7B80
7B80
7F80
7F80
7F80
F700
F700
E700
0000
3E00
ENDCHAR
STARTCHAR 1E49
ENCODING 7753
SWIDTH 540 0
DWIDTH 9 0
BBX 9 13 0 -2
BITMAP
7B80
7B80
7B80
7B80
7B80
7F80
7F80
7F80
F700
F700
E700
0000
3E00
ENDCHAR
STARTCHAR 1E54
ENCODING 7764
SWIDTH 480 0
DWIDTH 8 0
BBX 8 14 0 0
BITMAP
1C
18
00
7E
7E
77
73
77
7F
FC
F0
F0
F0
F8
ENDCHAR
STARTCHAR 1E55
ENCODING 7765
SWIDTH 480 0
DWIDTH 8 0
BBX 8 14 0 0
BITMAP
1C
18
00
7E
7E
77
73
77
7F
FC
F0
F0
F0
F8
ENDCHAR
STARTCHAR 1E56
ENCODING 7766
SWIDTH 480 0
DWIDTH 8 0
BBX 8 13 0 0
BITMAP
18
00
7E
7E
77
73
77
7F
FC
F0
F0
F0
F8
ENDCHAR
STARTCHAR 1E57
ENCODING 7767
SWIDTH 480 0
DWIDTH 8 0
BBX 8 13 0 0
BITMAP
18
00
7E
7E
77
73
77
7F
FC
F0
F0
F0
F8
ENDCHAR
STARTCHAR 1E5A
ENCODING 7770
SWIDTH 540 0
DWIDTH 9 0
BBX 10 14 0 -3
BITMAP
FE00
F700
F300
F300
7F00
7E00
7E00
7F00
7B00
7B80
79C0
0000
0600
0400
ENDCHAR
STARTCHAR 1E5B
ENCODING 7771
SWIDTH 540 0
DWIDTH 9 0
BBX 10 14 0 -3
BITMAP
FE00
F700
F300
F300
7F00
7E00
7E00
7F00
7B00
7B80
79C0
0000
0600
0400
ENDCHAR
STARTCHAR 1E5E
ENCODING 7774
SWIDTH 540 0
DWIDTH 9 0
BBX 10 13 0 -2
BITMAP
FE00
F700
F300
F300
7F00
7E00
7E00
7F00
7B00
7B80
79C0
0000
1F00
ENDCHAR
STARTCHAR 1E5F
ENCODING 7775
SWIDTH 540 0
DWIDTH 9 0
BBX 10 13 0 -2
BITMAP
FE00
F700
F300
F300
7F00
7E00
7E00
7F00
7B00
7B80
79C0
0000
1F00
ENDCHAR
STARTCHAR 1E60
ENCODING 7776
SWIDTH 480 0
DWIDTH 8 0
BBX 8 13 0 0
BITMAP
08
08
3F
7E
7E
7E
70
3E
0E
07
FF
FE
7C
ENDCHAR
STARTCHAR 1E61
ENCODING 7777
SWIDTH 480 0
DWIDTH 8 0
BBX 8 13 0 0
BITMAP
08
08
3F
7E
7E
7E
70
3E
0E
07
FF
FE
7C
ENDCHAR
STARTCHAR 1E62
ENCODING 7778
SWIDTH 480 0
DWIDTH 8 0
BBX 8 15 0 -3
BITMAP
08
3F
7E
7E
7E
70
3E
0E
07
FF
FE
7C
00
18
10
ENDCHAR
STARTCHAR 1E63
ENCODING 7779
SWIDTH 480 0
DWIDTH 8 0
BBX 8 15 0 -3
BITMAP
08
3F
7E
7E
7E
70
3E
0E
07
FF
FE
7C
00
18
10
ENDCHAR
STARTCHAR 1E6A
ENCODING 7786
SWIDTH 540 0
DWIDTH 9 0
BBX 9 13 0 0
BITMAP
0C00
0000
FF80
FF80
FF80
CE00
0C00
0C00
0C00
0C00
0C00
0C00
0C00
ENDCHAR
STARTCHAR 1E6B
ENCODING 7787
SWIDTH 540 0
DWIDTH 9 0
BBX 9 13 0 0
BITMAP
0C00
0000
FF80
FF80
FF80
CE00
0C00
0C00
0C00
0C00
0C00
0C00
0C00
ENDCHAR
STARTCHAR 1E6C
ENCODING 7788
SWIDTH 540 0
DWIDTH 9 0
BBX 9 14 0 -3
BITMAP
FF80
FF80
FF80
CE00
0C00
0C00
0C00
0C00
0C00
0C00
0C00
0000
0C00
0800
ENDCHAR
STARTCHAR 1E6D
ENCODING 7789
SWIDTH 540 0
DWIDTH 9 0
BBX 9 14 0 -3
BITMAP
FF80
FF80
FF80
CE00
0C00
0C00
0C00
0C00
0C00
0C00
0C00
0000
0C00
0800
ENDCHAR
STARTCHAR 1E6E
ENCODING 7790
SWIDTH 540 0
DWIDTH 9 0
BBX 9 13 0 -2
BITMAP
FF80
FF80
FF80
CE00
0C00
0C00
0C00
0C00
0C00
0C00
0C00
0000
1E00
ENDCHAR
STARTCHAR 1E6F
ENCODING 7791
SWIDTH 540 0
DWIDTH 9 0
BBX 9 13 0 -2
BITMAP
FF80
FF80
FF80
CE00
0C00
0C00
0C00
0C00
0C00
0C00
0C00
0000
1E00
ENDCHAR
STARTCHAR 1E7C
ENCODING 7804
SWIDTH 540 0
DWIDTH 9 0
BBX 10 14 0 0
BITMAP
1F00
1E00
0000
C3C0
7BC0
7B80
3B80
3B80
1F80
1F00
0F00
0F00
0700
0200
ENDCHAR
STARTCHAR 1E7D
ENCODING 7805
SWIDTH 540 0
DWIDTH 9 0
BBX 10 14 0 0
BITMAP
1F00
1E00
0000
C3C0
7BC0
7B80
3B80
3B80
1F80
1F00
0F00
0F00
0700
0200
ENDCHAR
STARTCHAR 1E80
ENCODING 7808
SWIDTH 720 0
DWIDTH 12 0
BBX 12 14 0 0
BITMAP
0C00
0400
0040
E270
F260
72E0
7FE0
7FE0
3FE0
3FC0
1DC0
1DC0
0CC0
0800
ENDCHAR
STARTCHAR 1E81
ENCODING 7809
SWIDTH 720 0
DWIDTH 12 0
BBX 12 14 0 0
BITMAP
0C00
0400
0040
E270
F260
72E0
7FE0
7FE0
3FE0
3FC0
1DC0
1DC0
0CC0
0800
ENDCHAR
STARTCHAR 1E82
ENCODING 7810
SWIDTH 720 0
DWIDTH 12 0
BBX 12 14 0 0
BITMAP
0300
0600
0040
E270
F260
72E0
7FE0
7FE0
3FE0
3FC0
1DC0
1DC0
0CC0
0800
ENDCHAR
STARTCHAR 1E83
ENCODING 7811
SWIDTH 720 0
DWIDTH 12 0
BBX 12 14 0 0
BITMAP
0300
0600
0040
E270
F260
72E0
7FE0
7FE0
3FE0
3FC0
1DC0
1DC0
0CC0
0800
ENDCHAR
STARTCHAR 1E84
ENCODING 7812
SWIDTH 720 0
DWIDTH 12 0
BBX 12 14 0 0
BITMAP
0100
0900
0040
E270
F260
72E0
7FE0
7FE0
3FE0
3FC0
1DC0
1DC0
0CC0
0800
ENDCHAR
STARTCHAR 1E85
ENCODING 7813
SWIDTH 720 0
DWIDTH 12 0
BBX 12 14 0 0
BITMAP
0100
0900
0040
E270
F260
72E0
7FE0
7FE0
3FE0
3FC0
1DC0
1DC0
0CC0
0800
ENDCHAR
STARTCHAR 1E90
ENCODING 7824
SWIDTH 600 0
DWIDTH 10 0
BBX 10 14 0 0
BITMAP
1C00
3600
0400
7F00
FE00
EE00
0C00
0C00
1C00
1C00
3800
3FC0
3F80
0F00
ENDCHAR
STARTCHAR 1E91
ENCODING 7825
SWIDTH 600 0
DWIDTH 10 0
BBX 10 14 0 0
BITMAP
1C00
3600
0400
7F00
FE00
EE00
0C00
0C00
1C00
1C00
3800
3FC0
3F80
0F00
ENDCHAR
STARTCHAR 1E92
ENCODING 7826
SWIDTH 600 0
DWIDTH 10 0
BBX 10 15 0 -3
BITMAP
0400
7F00
FE00
EE00
0C00
0C00
1C00
1C00
3800
3FC0
3F80
0F00
0000
0400
0400
ENDCHAR
STARTCHAR 1E93
ENCODING 7827
SWIDTH 600 0
DWIDTH 10 0
BBX 10 15 0 -3
BITMAP
0400
7F00
FE00
EE00
0C00
0C00
1C00
1C00
3800
3FC0
3F80
0F00
0000
0400
0400
ENDCHAR
STARTCHAR 1E94
ENCODING 7828
SWIDTH 600 0
DWIDTH 10 0
BBX 10 14 0 -2
BITMAP
0400
7F00
FE00
EE00
0C00
0C00
1C00
1C00
3800
3FC0
3F80
0F00
0000
1F00
ENDCHAR
STARTCHAR 1E95
ENCODING 7829
SWIDTH 600 0
DWIDTH 10 0
BBX 10 14 0 -2
BITMAP
0400
7F00
FE00
EE00
0C00
0C00
1C00
1C00
3800
3FC0
3F80
0F00
0000
1F00
ENDCHAR
STARTCHAR 1E96
ENCODING 7830
SWIDTH 540 0
DWIDTH 9 0
BBX 9 13 0 -2
BITMAP
7B80
7B80
7B80
7B80
7F80
7F80
7F80
7380
7380
7780
F600
0000
3E00
ENDCHAR
STARTCHAR 1E9B
ENCODING 7835
SWIDTH 420 0
DWIDTH 7 0
BBX 7 16 0 -2
BITMAP
10
30
10
7E
7E
E0
E0
E0
60
60
60
60
60
60
60
60
ENDCHAR
STARTCHAR 1E9C
ENCODING 7836
SWIDTH 420 0
DWIDTH 7 0
BBX 7 14 0 -2
BITMAP
08
3E
7E
70
70
74
7E
7C
F8
F0
F0
70
70
70
ENDCHAR
STARTCHAR 1E9D
ENCODING 7837
SWIDTH 420 0
DWIDTH 7 0
BBX 7 14 0 -2
BITMAP
08
3E
7E
70
FC
FC
70
70
70
70
70
70
70
70
ENDCHAR
STARTCHAR 1E9E
ENCODING 7838
SWIDTH 540 0
DWIDTH 9 0
BBX 9 13 0 -1
BITMAP
3000
7C00
FE00
E600
E600
EC00
EF00
6F80
6380
6380
6780
6700
6000
ENDCHAR
STARTCHAR 1EA0
ENCODING 7840
SWIDTH 600 0
DWIDTH 10 0
BBX 9 14 1 -3
BITMAP
0C00
1C00
1C00
1C00
3E00
3E00
6E00
7F00
FF00
E780
C780
0000
1800
1000
ENDCHAR
STARTCHAR 1EA1
ENCODING 7841
SWIDTH 600 0
DWIDTH 10 0
BBX 9 14 1 -3
BITMAP
0C00
1C00
1C00
1C00
3E00
3E00
6E00
7F00
FF00
E780
C780
0000
1800
1000
ENDCHAR
STARTCHAR 1EA2
ENCODING 7842
SWIDTH 600 0
DWIDTH 10 0
BBX 9 14 1 0
BITMAP
1E00
1C00
0000
0C00
1C00
1C00
1C00
3E00
3E00
6E00
7F00
FF00
E780
C780
ENDCHAR
STARTCHAR 1EA3
ENCODING 7843
SWIDTH 600 0
DWIDTH 10 0
BBX 9 14 1 0
BITMAP
1E00
1C00
0000
0C00
1C00
1C00
1C00
3E00
3E00
6E00
7F00
FF00
E780
C780
ENDCHAR
STARTCHAR 1EA4
ENCODING 7844
SWIDTH 600 0
DWIDTH 10 0
BBX 9 15 1 0
BITMAP
0300
0200
1E00
0000
0C00
1C00
1C00
1C00
3E00
3E00
6E00
7F00
FF00
E780
C780
ENDCHAR
STARTCHAR 1EA5
ENCODING 7845
SWIDTH 600 0
DWIDTH 10 0
BBX 9 15 1 0
BITMAP
0300
0200
1E00
0000
0C00
1C00
1C00
1C00
3E00
3E00
6E00
7F00
FF00
E780
C780
ENDCHAR
STARTCHAR 1EA6
ENCODING 7846
SWIDTH 600 0
DWIDTH 10 0
BBX 9 15 1 0
BITMAP
6000
3000
1E00
0000
0C00
1C00
1C00
1C00
3E00
3E00
6E00
7F00
FF00
E780
C780
ENDCHAR
STARTCHAR 1EA7
ENCODING 7847
SWIDTH 600 0
DWIDTH 10 0
BBX 9 15 1 0
BITMAP
6000
3000
1E00
0000
0C00
1C00
1C00
1C00
3E00
3E00
6E00
7F00
FF00
E780
C780
ENDCHAR
STARTCHAR 1EA8
ENCODING 7848
SWIDTH 600 0
DWIDTH 10 0
BBX 9 15 1 0
BITMAP
0780
0600
1E00
0000
0C00
1C00
1C00
1C00
3E00
3E00
6E00
7F00
FF00
E780
C780
ENDCHAR
STARTCHAR 1EA9
ENCODING 7849
SWIDTH 600 0
DWIDTH 10 0
BBX 9 15 1 0
BITMAP
0780
0600
1E00
0000
0C00
1C00
1C00
1C00
3E00
3E00
6E00
7F00
FF00
E780
C780
ENDCHAR
STARTCHAR 1EAA
ENCODING 7850
SWIDTH 600 0
DWIDTH 10 0
BBX 9 15 1 0
BITMAP
3E00
0000
1E00
0000
0C00
1C00
1C00
1C00
3E00
3E00
6E00
7F00
FF00
E780
C780
ENDCHAR
STARTCHAR 1EAB
ENCODING 7851
SWIDTH 600 0
DWIDTH 10 0
BBX 9 15 1 0
BITMAP
3E00
0000
1E00
0000
0C00
1C00
1C00
1C00
3E00
3E00
6E00
7F00
FF00
E780
C780
ENDCHAR
STARTCHAR 1EAC
ENCODING 7852
SWIDTH 600 0
DWIDTH 10 0
BBX 9 17 1 -3
BITMAP
1C00
3600
0000
0C00
1C00
1C00
1C00
3E00
3E00
6E00
7F00
FF00
E780
C780
0000
1800
1000
ENDCHAR
STARTCHAR 1EAD
ENCODING 7853
SWIDTH 600 0
DWIDTH 10 0
BBX 9 17 1 -3
BITMAP
1C00
3600
0000
0C00
1C00
1C00
1C00
3E00
3E00
6E00
7F00
FF00
E780
C780
0000
1800
1000
ENDCHAR
STARTCHAR 1EAE
ENCODING 7854
SWIDTH 600 0
DWIDTH 10 0
BBX 9 15 1 0
BITMAP
0E00
0800
3E00
0000
0C00
1C00
1C00
1C00
3E00
3E00
6E00
7F00
FF00
E780
C780
ENDCHAR
STARTCHAR 1EAF
ENCODING 7855
SWIDTH 600 0
DWIDTH 10 0
BBX 9 15 1 0
BITMAP
0E00
0800
3E00
0000
0C00
1C00
1C00
1C00
3E00
3E00
6E00
7F00
FF00
E780
C780
ENDCHAR
STARTCHAR 1EB0
ENCODING 7856
SWIDTH 600 0
DWIDTH 10 0
BBX 9 15 1 0
BITMAP
1800
0800
3E00
0000
0C00
1C00
1C00
1C00
3E00
3E00
6E00
7F00
FF00
E780
C780
ENDCHAR
STARTCHAR 1EB1
ENCODING 7857
SWIDTH 600 0
DWIDTH 10 0
BBX 9 15 1 0
BITMAP
1800
0800
3E00
0000
0C00
1C00
1C00
1C00
3E00
3E00
6E00
7F00
FF00
E780
C780
ENDCHAR
STARTCHAR 1EB2
ENCODING 7858
SWIDTH 600 0
DWIDTH 10 0
BBX 9 15 1 0
BITMAP
1E00
0C00
3E00
0000
0C00
1C00
1C00
1C00
3E00
3E00
6E00
7F00
FF00
E780
C780
ENDCHAR
STARTCHAR 1EB3
ENCODING 7859
SWIDTH 600 0
DWIDTH 10 0
BBX 9 15 1 0
BITMAP
1E00
0C00
3E00
0000
0C00
1C00
1C00
1C00
3E00
3E00
6E00
7F00
FF00
E780
C780
ENDCHAR
STARTCHAR 1EB4
ENCODING 7860
SWIDTH 600 0
DWIDTH 10 0
BBX 9 15 1 0
BITMAP
3E00
0000
3E00
0000
0C00
1C00
1C00
1C00
3E00
3E00
6E00
7F00
FF00
E780
C780
ENDCHAR
STARTCHAR 1EB5
ENCODING 7861
SWIDTH 600 0
DWIDTH 10 0
BBX 9 15 1 0
BITMAP
3E00
0000
3E00
0000
0C00
1C00
1C00
1C00
3E00
3E00
6E00
7F00
FF00
E780
C780
ENDCHAR
STARTCHAR 1EB6
ENCODING 7862
SWIDTH 600 0
DWIDTH 10 0
BBX 9 17 1 -3
BITMAP
3600
1C00
0000
0C00
1C00
1C00
1C00
3E00
3E00
6E00
7F00
FF00
E780
C780
0000
1800
1000
ENDCHAR
STARTCHAR 1EB7
ENCODING 7863
SWIDTH 600 0
DWIDTH 10 0
BBX 9 17 1 -3
BITMAP
3600
1C00
0000
0C00
1C00
1C00
1C00
3E00
3E00
6E00
7F00
FF00
E780
C780
0000
1800
1000
ENDCHAR
STARTCHAR 1EB8
ENCODING 7864
SWIDTH 480 0
DWIDTH 8 0
BBX 8 14 0 -2
BITMAP
38
FC
7C
7C
70
7C
7C
30
3F
3F
3F
38
00
0C
ENDCHAR
STARTCHAR 1EB9
ENCODING 7865
SWIDTH 480 0
DWIDTH 8 0
BBX 8 14 0 -2
BITMAP
38
FC
7C
7C
70
7C
7C
30
3F
3F
3F
38
00
0C
ENDCHAR
STARTCHAR 1EBA
ENCODING 7866
SWIDTH 480 0
DWIDTH 8 0
BBX 8 15 0 0
BITMAP
10
78
30
38
FC
7C
7C
70
7C
7C
30
3F
3F
3F
38
ENDCHAR
STARTCHAR 1EBB
ENCODING 7867
SWIDTH 480 0
DWIDTH 8 0
BBX 8 15 0 0
BITMAP
10
78
30
38
FC
7C
7C
70
7C
7C
30
3F
3F
3F
38
ENDCHAR
STARTCHAR 1EBC
ENCODING 7868
SWIDTH 480 0
DWIDTH 8 0
BBX 8 15 0 0
BITMAP
08
F8
F0
38
FC
7C
7C
70
7C
7C
30
3F
3F
3F
38
ENDCHAR
STARTCHAR 1EBD
ENCODING 7869
SWIDTH 480 0
DWIDTH 8 0
BBX 8 15 0 0
BITMAP
08
F8
F0
38
FC
7C
7C
70
7C
7C
30
3F
3F
3F
38
ENDCHAR
STARTCHAR 1EBE
ENCODING 7870
SWIDTH 480 0
DWIDTH 8 0
BBX 8 15 0 0
BITMAP
0E
08
78
38
FC
7C
7C
70
7C
7C
30
3F
3F
3F
38
ENDCHAR
STARTCHAR 1EBF
ENCODING 7871
SWIDTH 480 0
DWIDTH 8 0
BBX 8 15 0 0
BITMAP
0E
08
78
38
FC
7C
7C
70
7C
7C
30
3F
3F
3F
38
ENDCHAR
STARTCHAR 1EC0
ENCODING 7872
SWIDTH 480 0
DWIDTH 8 0
BBX 9 15 -1 0
BITMAP
E000
2000
3C00
1C00
7E00
3E00
3E00
3800
3E00
3E00
1800
1F80
1F80
1F80
1C00
ENDCHAR
STARTCHAR 1EC1
ENCODING 7873
SWIDTH 480 0
DWIDTH 8 0
BBX 9 15 -1 0
BITMAP
E000
2000
3C00
1C00
7E00
3E00
3E00
3800
3E00
3E00
1800
1F80
1F80
1F80
1C00
ENDCHAR
STARTCHAR 1EC2
ENCODING 7874
SWIDTH 480 0
DWIDTH 8 0
BBX 8 15 0 0
BITMAP
1E
0C
78
38
FC
7C
7C
70
7C
7C
30
3F
3F
3F
38
ENDCHAR
STARTCHAR 1EC3
ENCODING 7875
SWIDTH 480 0
DWIDTH 8 0
BBX 8 15 0 0
BITMAP
1E
0C
78
38
FC
7C
7C
70
7C
7C
30
3F
3F
3F
38
ENDCHAR
STARTCHAR 1EC4
ENCODING 7876
SWIDTH 480 0
DWIDTH 8 0
BBX 8 15 0 0
BITMAP
78
00
78
38
FC
7C
7C
70
7C
7C
30
3F
3F
3F
38
ENDCHAR
STARTCHAR 1EC5
ENCODING 7877
SWIDTH 480 0
DWIDTH 8 0
BBX 8 15 0 0
BITMAP
78
00
78
38
FC
7C
7C
70
7C
7C
30
3F
3F
3F
38
ENDCHAR
STARTCHAR 1EC6
ENCODING 7878
SWIDTH 480 0
DWIDTH 8 0
BBX 8 17 0 -2
BITMAP
20
78
C8
38
FC
7C
7C
70
7C
7C
30
3F
3F
3F
38
00
0C
ENDCHAR
STARTCHAR 1EC7
ENCODING 7879
SWIDTH 480 0
DWIDTH 8 0
BBX 8 17 0 -2
BITMAP
20
78
C8
38
FC
7C
7C
70
7C
7C
30
3F
3F
3F
38
00
0C
ENDCHAR
STARTCHAR 1EC8
ENCODING 7880
SWIDTH 300 0
DWIDTH 5 0
BBX 5 14 1 0
BITMAP
78
70
00
F0
70
F0
F0
F0
F0
F0
F0
F0
E0
E0
ENDCHAR
STARTCHAR 1EC9
ENCODING 7881
SWIDTH 300 0
DWIDTH 5 0
BBX 5 14 1 0
BITMAP
78
70
00
F0
70
F0
F0
F0
F0
F0
F0
F0
E0
E0
ENDCHAR
STARTCHAR 1ECA
ENCODING 7882
SWIDTH 300 0
DWIDTH 5 0
BBX 4 14 1 -3
BITMAP
F0
70
F0
F0
F0
F0
F0
F0
F0
E0
E0
00
40
40
ENDCHAR
STARTCHAR 1ECB
ENCODING 7883
SWIDTH 300 0
DWIDTH 5 0
BBX 4 14 1 -3
BITMAP
F0
70
F0
F0
F0
F0
F0
F0
F0
E0
E0
00
40
40
ENDCHAR
STARTCHAR 1ECC
ENCODING 7884
SWIDTH 480 0
DWIDTH 8 0
BBX 9 15 0 -3
BITMAP
1000
3C00
7E00
7F00
7F00
E780
E780
F780
7F00
7F00
7F00
1E00
0000
0C00
0800
ENDCHAR
STARTCHAR 1ECD
ENCODING 7885
SWIDTH 480 0
DWIDTH 8 0
BBX 9 15 0 -3
BITMAP
1000
3C00
7E00
7F00
7F00
E780
E780
F780
7F00
7F00
7F00
1E00
0000
0C00
0800
ENDCHAR
STARTCHAR 1ECE
ENCODING 7886
SWIDTH 480 0
DWIDTH 8 0
BBX 9 14 0 0
BITMAP
3C00
3800
1000
3C00
7E00
7F00
7F00
E780
E780
F780
7F00
7F00
7F00
1E00
ENDCHAR
STARTCHAR 1ECF
ENCODING 7887
SWIDTH 480 0
DWIDTH 8 0
BBX 9 14 0 0
BITMAP
3C00
3800
1000
3C00
7E00
7F00
7F00
E780
E780
F780
7F00
7F00
7F00
1E00
ENDCHAR
STARTCHAR 1ED0
ENCODING 7888
SWIDTH 480 0
DWIDTH 8 0
BBX 9 15 0 0
BITMAP
0600
0C00
7800
1000
3C00
7E00
7F00
7F00
E780
E780
F780
7F00
7F00
7F00
1E00
ENDCHAR
STARTCHAR 1ED1
ENCODING 7889
SWIDTH 480 0
DWIDTH 8 0
BBX 9 15 0 0
BITMAP
0600
0C00
7800
1000
3C00
7E00
7F00
7F00
E780
E780
F780
7F00
7F00
7F00
1E00
ENDCHAR
STARTCHAR 1ED2
ENCODING 7890
SWIDTH 480 0
DWIDTH 8 0
BBX 9 15 0 0
BITMAP
C000
4000
7800
1000
3C00
7E00
7F00
7F00
E780
E780
F780
7F00
7F00
7F00
1E00
ENDCHAR
STARTCHAR 1ED3
ENCODING 7891
SWIDTH 480 0
DWIDTH 8 0
BBX 9 15 0 0
BITMAP
C000
4000
7800
1000
3C00
7E00
7F00
7F00
E780
E780
F780
7F00
7F00
7F00
1E00
ENDCHAR
STARTCHAR 1ED4
ENCODING 7892
SWIDTH 480 0
DWIDTH 8 0
BBX 9 15 0 0
BITMAP
0E00
0C00
7800
1000
3C00
7E00
7F00
7F00
E780
E780
F780
7F00
7F00
7F00
1E00
ENDCHAR
STARTCHAR 1ED5
ENCODING 7893
SWIDTH 480 0
DWIDTH 8 0
BBX 9 15 0 0
BITMAP
0E00
0C00
7800
1000
3C00
7E00
7F00
7F00
E780
E780
F780
7F00
7F00
7F00
1E00
ENDCHAR
STARTCHAR 1ED6
ENCODING 7894
SWIDTH 480 0
DWIDTH 8 0
BBX 9 15 0 0
BITMAP
7C00
0000
7800
1000
3C00
7E00
7F00
7F00
E780
E780
F780
7F00
7F00
7F00
1E00
ENDCHAR
STARTCHAR 1ED7
ENCODING 7895
SWIDTH 480 0
DWIDTH 8 0
BBX 9 15 0 0
BITMAP
7C00
0000
7800
1000
3C00
7E00
7F00
7F00
E780
E780
F780
7F00
7F00
7F00
1E00
ENDCHAR
STARTCHAR 1ED8
ENCODING 7896
SWIDTH 480 0
DWIDTH 8 0
BBX 9 17 0 -3
BITMAP
3800
6C00
1000
3C00
7E00
7F00
7F00
E780
E780
F780
7F00
7F00
7F00
1E00
0000
0C00
0800
ENDCHAR
STARTCHAR 1ED9
ENCODING 7897
SWIDTH 480 0
DWIDTH 8 0
BBX 9 17 0 -3
BITMAP
3800
6C00
1000
3C00
7E00
7F00
7F00
E780
E780
F780
7F00
7F00
7F00
1E00
0000
0C00
0800
ENDCHAR
STARTCHAR 1EDA
ENCODING 7898
SWIDTH 540 0
DWIDTH 9 0
BBX 9 14 0 0
BITMAP
1C00
1800
1180
3D80
7E80
7F80
7F00
E780
E780
F780
7F00
7F00
7F00
1E00
ENDCHAR
STARTCHAR 1EDB
ENCODING 7899
SWIDTH 540 0
DWIDTH 9 0
BBX 9 14 0 0
BITMAP
1C00
1800
1180
3D80
7E80
7F80
7F00
E780
E780
F780
7F00
7F00
7F00
1E00
ENDCHAR
STARTCHAR 1EDC
ENCODING 7900
SWIDTH 540 0
DWIDTH 9 0
BBX 9 14 0 0
BITMAP
6000
3000
1180
3D80
7E80
7F80
7F00
E780
E780
F780
7F00
7F00
7F00
1E00
ENDCHAR
STARTCHAR 1EDD
ENCODING 7901
SWIDTH 540 0
DWIDTH 9 0
BBX 9 14 0 0
BITMAP
6000
3000
1180
3D80
7E80
7F80
7F00
E780
E780
F780
7F00
7F00
7F00
1E00
ENDCHAR
STARTCHAR 1EDE
ENCODING 7902
SWIDTH 540 0
DWIDTH 9 0
BBX 9 14 0 0
BITMAP
3C00
3800
1180
3D80
7E80
7F80
7F00
E780
E780
F780
7F00
7F00
7F00
1E00
ENDCHAR
STARTCHAR 1EDF
ENCODING 7903
SWIDTH 540 0
DWIDTH 9 0
BBX 9 14 0 0
BITMAP
3C00
3800
1180
3D80
7E80
7F80
7F00
E780
E780
F780
7F00
7F00
7F00
1E00
ENDCHAR
STARTCHAR 1EE0
ENCODING 7904
SWIDTH 540 0
DWIDTH 9 0
BBX 9 14 0 1
BITMAP
7C00
7800
1180
3D80
7E80
7F80
7F00
E780
E780
F780
7F00
7F00
7F00
1E00
ENDCHAR
STARTCHAR 1EE1
ENCODING 7905
SWIDTH 540 0
DWIDTH 9 0
BBX 9 14 0 1
BITMAP
7C00
7800
1180
3D80
7E80
7F80
7F00
E780
E780
F780
7F00
7F00
7F00
1E00
ENDCHAR
STARTCHAR 1EE2
ENCODING 7906
SWIDTH 540 0
DWIDTH 9 0
BBX 9 15 0 -3
BITMAP
1180
3D80
7E80
7F80
7F00
E780
E780
F780
7F00
7F00
7F00
1E00
0000
0C00
0800
ENDCHAR
STARTCHAR 1EE3
ENCODING 7907
SWIDTH 540 0
DWIDTH 9 0
BBX 9 15 0 -3
BITMAP
1180
3D80
7E80
7F80
7F00
E780
E780
F780
7F00
7F00
7F00
1E00
0000
0C00
0800
ENDCHAR
STARTCHAR 1EE4
ENCODING 7908
SWIDTH 540 0
DWIDTH 9 0
BBX 9 14 0 -3
BITMAP
7380
7380
6380
6380
E380
F380
FF80
7F00
7F00
7E00
1C00
0000
1800
0800
ENDCHAR
STARTCHAR 1EE5
ENCODING 7909
SWIDTH 540 0
DWIDTH 9 0
BBX 9 14 0 -3
BITMAP
7380
7380
6380
6380
E380
F380
FF80
7F00
7F00
7E00
1C00
0000
1800
0800
ENDCHAR
STARTCHAR 1EE6
ENCODING 7910
SWIDTH 540 0
DWIDTH 9 0
BBX 9 14 0 0
BITMAP
0E00
0E00
0000
7380
7380
6380
6380
E380
F380
FF80
7F00
7F00
7E00
1C00
ENDCHAR
STARTCHAR 1EE7
ENCODING 7911
SWIDTH 540 0
DWIDTH 9 0
BBX 9 14 0 0
BITMAP
0E00
0E00
0000
7380
7380
6380
6380
E380
F380
FF80
7F00
7F00
7E00
1C00
ENDCHAR
STARTCHAR 1EE8
ENCODING 7912
SWIDTH 600 0
DWIDTH 10 0
BBX 10 14 0 0
BITMAP
0C00
0C00
00C0
E6C0
E740
E7C0
E780
E700
E700
7F00
7F00
7F00
3E00
1C00
ENDCHAR
STARTCHAR 1EE9
ENCODING 7913
SWIDTH 600 0
DWIDTH 10 0
BBX 10 14 0 0
BITMAP
0C00
0C00
00C0
E6C0
E740
E7C0
E780
E700
E700
7F00
7F00
7F00
3E00
1C00
ENDCHAR
STARTCHAR 1EEA
ENCODING 7914
SWIDTH 600 0
DWIDTH 10 0
BBX 10 14 0 0
BITMAP
3000
1000
00C0
E6C0
E740
E7C0
E780
E700
E700
7F00
7F00
7F00
3E00
1C00
ENDCHAR
STARTCHAR 1EEB
ENCODING 7915
SWIDTH 600 0
DWIDTH 10 0
BBX 10 14 0 0
BITMAP
3000
1000
00C0
E6C0
E740
E7C0
E780
E700
E700
7F00
7F00
7F00
3E00
1C00
ENDCHAR
STARTCHAR 1EEC
ENCODING 7916
SWIDTH 600 0
DWIDTH 10 0
BBX 10 14 0 0
BITMAP
3C00
1C00
00C0
E6C0
E740
E7C0
E780
E700
E700
7F00
7F00
7F00
3E00
1C00
ENDCHAR
STARTCHAR 1EED
ENCODING 7917
SWIDTH 600 0
DWIDTH 10 0
BBX 10 14 0 0
BITMAP
3C00
1C00
00C0
E6C0
E740
E7C0
E780
E700
E700
7F00
7F00
7F00
3E00
1C00
ENDCHAR
STARTCHAR 1EEE
ENCODING 7918
SWIDTH 600 0
DWIDTH 10 0
BBX 10 14 0 0
BITMAP
3C00
7C00
00C0
E6C0
E740
E7C0
E780
E700
E700
7F00
7F00
7F00
3E00
1C00
ENDCHAR
STARTCHAR 1EEF
ENCODING 7919
SWIDTH 600 0
DWIDTH 10 0
BBX 10 14 0 0
BITMAP
3C00
7C00
00C0
E6C0
E740
E7C0
E780
E700
E700
7F00
7F00
7F00
3E00
1C00
ENDCHAR
STARTCHAR 1EF0
ENCODING 7920
SWIDTH 600 0
DWIDTH 10 0
BBX 10 15 0 -3
BITMAP
00C0
E6C0
E740
E7C0
E780
E700
E700
7F00
7F00
7F00
3E00
1C00
0000
0C00
0800
ENDCHAR
STARTCHAR 1EF1
ENCODING 7921
SWIDTH 600 0
DWIDTH 10 0
BBX 10 15 0 -3
BITMAP
00C0
E6C0
E740
E7C0
E780
E700
E700
7F00
7F00
7F00
3E00
1C00
0000
0C00
0800
ENDCHAR
STARTCHAR 1EF2
ENCODING 7922
SWIDTH 600 0
DWIDTH 10 0
BBX 10 14 0 0
BITMAP
1800
0C00
0000
61C0
F180
7380
3F00
3F00
1E00
1E00
0C00
0C00
0E00
0E00
ENDCHAR
STARTCHAR 1EF3
ENCODING 7923
SWIDTH 600 0
DWIDTH 10 0
BBX 10 14 0 0
BITMAP
1800
0C00
0000
61C0
F180
7380
3F00
3F00
1E00
1E00
0C00
0C00
0E00
0E00
ENDCHAR
STARTCHAR 1EF4
ENCODING 7924
SWIDTH 600 0
DWIDTH 10 0
BBX 10 14 0 -3
BITMAP
61C0
F180
7380
3F00
3F00
1E00
1E00
0C00
0C00
0E00
0E00
0000
0600
0400
ENDCHAR
STARTCHAR 1EF5
ENCODING 7925
SWIDTH 600 0
DWIDTH 10 0
BBX 10 14 0 -3
BITMAP
61C0
F180
7380
3F00
3F00
1E00
1E00
0C00
0C00
0E00
0E00
0000
0600
0400
ENDCHAR
STARTCHAR 1EF6
ENCODING 7926
SWIDTH 600 0
DWIDTH 10 0
BBX 10 14 0 0
BITMAP
1E00
0E00
0000
61C0
F180
7380
3F00
3F00
1E00
1E00
0C00
0C00
0E00
0E00
ENDCHAR
STARTCHAR 1EF7
ENCODING 7927
SWIDTH 600 0
DWIDTH 10 0
BBX 10 14 0 0
BITMAP
1E00
0E00
0000
61C0
F180
7380
3F00
3F00
1E00
1E00
0C00
0C00
0E00
0E00
ENDCHAR
STARTCHAR 1EF8
ENCODING 7928
SWIDTH 600 0
DWIDTH 10 0
BBX 10 14 0 0
BITMAP
1F00
1E00
0000
61C0
F180
7380
3F00
3F00
1E00
1E00
0C00
0C00
0E00
0E00
ENDCHAR
STARTCHAR 1EF9
ENCODING 7929
SWIDTH 600 0
DWIDTH 10 0
BBX 10 14 0 0
BITMAP
1F00
1E00
0000
61C0
F180
7380
3F00
3F00
1E00
1E00
0C00
0C00
0E00
0E00
ENDCHAR
STARTCHAR 1F70
ENCODING 8048
SWIDTH 600 0
DWIDTH 10 0
BBX 9 12 1 0
BITMAP
C000
6C00
1C00
1C00
1C00
3E00
3E00
6E00
7F00
FF00
E780
C780
ENDCHAR
STARTCHAR 1F72
ENCODING 8050
SWIDTH 600 0
DWIDTH 10 0
BBX 10 12 0 0
BITMAP
CE00
7F00
5F00
1F00
1C00
1F00
1F00
0C00
0FC0
0FC0
0FC0
0E00
ENDCHAR
STARTCHAR 1F74
ENCODING 8052
SWIDTH 600 0
DWIDTH 10 0
BBX 10 12 0 0
BITMAP
C000
5CC0
5DC0
1DC0
1DC0
3FC0
3FC0
3FC0
3DC0
3DC0
3DC0
3900
ENDCHAR
STARTCHAR 1F76
ENCODING 8054
SWIDTH 360 0
DWIDTH 6 0
BBX 6 12 0 0
BITMAP
C0
5C
5C
3C
3C
3C
3C
3C
3C
3C
38
38
ENDCHAR
STARTCHAR 1F78
ENCODING 8056
SWIDTH 540 0
DWIDTH 9 0
BBX 9 12 0 0
BITMAP
C800
5E00
7F00
3F00
7F80
7380
7380
7B80
7F80
3F80
3F80
1F00
ENDCHAR
STARTCHAR 1F7A
ENCODING 8058
SWIDTH 720 0
DWIDTH 12 0
BBX 11 12 0 0
BITMAP
C000
5860
7CE0
1CE0
1DC0
0FC0
0F80
0780
0700
0300
0300
0300
ENDCHAR
STARTCHAR 1F7C
ENCODING 8060
SWIDTH 660 0
DWIDTH 11 0
BBX 11 12 0 0
BITMAP
CE00
5F80
7FC0
3FE0
78E0
70E0
30E0
30E0
38C0
79E0
7DE0
7DE0
ENDCHAR
STARTCHAR 1FBA
ENCODING 8122
SWIDTH 600 0
DWIDTH 10 0
BBX 9 12 1 0
BITMAP
C000
6C00
1C00
1C00
1C00
3E00
3E00
6E00
7F00
FF00
E780
C780
ENDCHAR
STARTCHAR 1FC0
ENCODING 8128
SWIDTH 300 0
DWIDTH 5 0
BBX 5 2 0 12
BITMAP
F8
F8
ENDCHAR
STARTCHAR 1FC6
ENCODING 8134
SWIDTH 540 0
DWIDTH 9 0
BBX 9 14 0 0
BITMAP
1F00
1F00
0000
7B80
7B80
7B80
7B80
7F80
7F80
7F80
7380
7380
7780
F600
ENDCHAR
STARTCHAR 1FC8
ENCODING 8136
SWIDTH 600 0
DWIDTH 10 0
BBX 10 12 0 0
BITMAP
CE00
7F00
5F00
1F00
1C00
1F00
1F00
0C00
0FC0
0FC0
0FC0
0E00
ENDCHAR
STARTCHAR 1FCA
ENCODING 8138
SWIDTH 600 0
DWIDTH 10 0
BBX 10 12 0 0
BITMAP
C000
5CC0
5DC0
1DC0
1DC0
3FC0
3FC0
3FC0
3DC0
3DC0
3DC0
3900
ENDCHAR
STARTCHAR 1FDA
ENCODING 8154
SWIDTH 360 0
DWIDTH 6 0
BBX 6 12 0 0
BITMAP
C0
5C
5C
3C
3C
3C
3C
3C
3C
3C
38
38
ENDCHAR
STARTCHAR 1FEA
ENCODING 8170
SWIDTH 720 0
DWIDTH 12 0
BBX 11 12 0 0
BITMAP
C000
5860
7CE0
1CE0
1DC0
0FC0
0F80
0780
0700
0300
0300
0300
ENDCHAR
STARTCHAR 1FEF
ENCODING 8175
SWIDTH 120 0
DWIDTH 2 0
BBX 2 2 0 9
BITMAP
C0
40
ENDCHAR
STARTCHAR 1FF6
ENCODING 8182
SWIDTH 600 0
DWIDTH 10 0
BBX 10 14 0 0
BITMAP
3E00
3E00
1C00
7F00
7F80
7F80
F1C0
E1C0
61C0
61C0
7180
F3C0
F3C0
FBC0
ENDCHAR
STARTCHAR 1FF8
ENCODING 8184
SWIDTH 540 0
DWIDTH 9 0
BBX 9 12 0 0
BITMAP
C800
5E00
7F00
3F00
7F80
7380
7380
7B80
7F80
3F80
3F80
1F00
ENDCHAR
STARTCHAR 1FFA
ENCODING 8186
SWIDTH 660 0
DWIDTH 11 0
BBX 11 12 0 0
BITMAP
CE00
5F80
7FC0
3FE0
78E0
70E0
30E0
30E0
38C0
79E0
7DE0
7DE0
ENDCHAR
STARTCHAR 200B
ENCODING 8203
SWIDTH 0 0
DWIDTH 0 0
BBX 0 0 0 0
BITMAP
ENDCHAR
STARTCHAR 2010
ENCODING 8208
SWIDTH 300 0
DWIDTH 5 0
BBX 5 2 0 5
BITMAP
F8
F8
ENDCHAR
STARTCHAR 2011
ENCODING 8209
SWIDTH 360 0
DWIDTH 6 0
BBX 7 2 0 5
BITMAP
FE
FE
ENDCHAR
STARTCHAR 2012
ENCODING 8210
SWIDTH 480 0
DWIDTH 8 0
BBX 8 2 0 5
BITMAP
FF
FF
ENDCHAR
STARTCHAR 2013
ENCODING 8211
SWIDTH 480 0
DWIDTH 8 0
BBX 8 2 0 5
BITMAP
FF
FF
ENDCHAR
STARTCHAR 2014
ENCODING 8212
SWIDTH 540 0
DWIDTH 9 0
BBX 10 2 0 4
BITMAP
FFC0
FFC0
ENDCHAR
STARTCHAR 2015
ENCODING 8213
SWIDTH 660 0
DWIDTH 11 0
BBX 11 2 0 5
BITMAP
FFE0
FFE0
ENDCHAR
STARTCHAR 2016
ENCODING 8214
SWIDTH 240 0
DWIDTH 4 0
BBX 4 17 0 -3
BITMAP
D0
D0
D0
D0
D0
D0
D0
D0
D0
D0
D0
D0
D0
D0
D0
D0
90
ENDCHAR
STARTCHAR 2017
ENCODING 8215
SWIDTH 360 0
DWIDTH 6 0
BBX 6 4 0 -3
BITMAP
FC
FC
FC
FC
ENDCHAR
STARTCHAR 2018
ENCODING 8216
SWIDTH 180 0
DWIDTH 3 0
BBX 3 6 0 6
BITMAP
60
60
60
E0
E0
E0
ENDCHAR
STARTCHAR 2019
ENCODING 8217
SWIDTH 180 0
DWIDTH 3 0
BBX 3 6 0 6
BITMAP
60
60
60
E0
E0
40
ENDCHAR
STARTCHAR 201A
ENCODING 8218
SWIDTH 180 0
DWIDTH 3 0
BBX 3 6 0 -3
BITMAP
60
60
60
E0
E0
40
ENDCHAR
STARTCHAR 201B
ENCODING 8219
SWIDTH 180 0
DWIDTH 3 0
BBX 3 6 0 6
BITMAP
E0
E0
E0
60
60
20
ENDCHAR
STARTCHAR 201C
ENCODING 8220
SWIDTH 360 0
DWIDTH 6 0
BBX 6 6 0 6
BITMAP
6C
6C
6C
FC
FC
EC
ENDCHAR
STARTCHAR 201D
ENCODING 8221
SWIDTH 360 0
DWIDTH 6 0
BBX 6 6 0 6
BITMAP
6C
6C
6C
EC
FC
48
ENDCHAR
STARTCHAR 201E
ENCODING 8222
SWIDTH 360 0
DWIDTH 6 0
BBX 6 6 0 -3
BITMAP
6C
6C
6C
EC
FC
48
ENDCHAR
STARTCHAR 201F
ENCODING 8223
SWIDTH 360 0
DWIDTH 6 0
BBX 6 6 0 6
BITMAP
FC
FC
FC
6C
6C
24
ENDCHAR
STARTCHAR 2020
ENCODING 8224
SWIDTH 480 0
DWIDTH 8 0
BBX 8 16 0 -2
BITMAP
18
18
18
FF
FF
18
18
18
18
18
18
18
18
18
18
18
ENDCHAR
STARTCHAR 2021
ENCODING 8225
SWIDTH 480 0
DWIDTH 8 0
BBX 8 16 0 -2
BITMAP
18
18
18
FF
FF
18
18
18
18
18
18
FF
FF
F8
18
18
ENDCHAR
STARTCHAR 2022
ENCODING 8226
SWIDTH 300 0
DWIDTH 5 0
BBX 5 4 0 3
BITMAP
70
F8
F8
70
ENDCHAR
STARTCHAR 2023
ENCODING 8227
SWIDTH 300 0
DWIDTH 5 0
BBX 5 4 0 3
BITMAP
C0
F8
F8
E0
ENDCHAR
STARTCHAR 2024
ENCODING 8228
SWIDTH 180 0
DWIDTH 3 0
BBX 3 3 0 0
BITMAP
60
E0
60
ENDCHAR
STARTCHAR 2025
ENCODING 8229
SWIDTH 360 0
DWIDTH 6 0
BBX 6 3 0 0
BITMAP
6C
EC
6C
ENDCHAR
STARTCHAR 2026
ENCODING 8230
SWIDTH 540 0
DWIDTH 9 0
BBX 10 3 0 0
BITMAP
6D80
EDC0
ED80
ENDCHAR
STARTCHAR 2027
ENCODING 8231
SWIDTH 180 0
DWIDTH 3 0
BBX 3 3 0 4
BITMAP
E0
E0
60
ENDCHAR
STARTCHAR 202F
ENCODING 8239
SWIDTH 120 0
DWIDTH 2 0
BBX 0 0 0 0
BITMAP
ENDCHAR
STARTCHAR 2030
ENCODING 8240
SWIDTH 600 0
DWIDTH 10 0
BBX 10 11 0 1
BITMAP
7300
D300
D600
F600
6C00
0FC0
1FC0
3540
37C0
63C0
4000
ENDCHAR
STARTCHAR 2031
ENCODING 8241
SWIDTH 720 0
DWIDTH 12 0
BBX 12 11 0 1
BITMAP
7300
D300
D600
F600
6C00
0EA0
1FF0
3550
3770
62E0
4000
ENDCHAR
STARTCHAR 2039
ENCODING 8249
SWIDTH 240 0
DWIDTH 4 0
BBX 4 8 0 0
BITMAP
10
30
70
E0
E0
70
30
10
ENDCHAR
STARTCHAR 203A
ENCODING 8250
SWIDTH 240 0
DWIDTH 4 0
BBX 4 8 0 0
BITMAP
80
C0
E0
70
30
E0
C0
80
ENDCHAR
STARTCHAR 203C
ENCODING 8252
SWIDTH 480 0
DWIDTH 8 0
BBX 8 12 0 0
BITMAP
FF
FF
EE
E6
66
66
66
66
00
66
66
66
ENDCHAR
STARTCHAR 203E
ENCODING 8254
SWIDTH 360 0
DWIDTH 6 0
BBX 6 2 0 12
BITMAP
FC
FC
ENDCHAR
STARTCHAR 2043
ENCODING 8259
SWIDTH 300 0
DWIDTH 5 0
BBX 5 2 0 5
BITMAP
F8
F8
ENDCHAR
STARTCHAR 2044
ENCODING 8260
SWIDTH 360 0
DWIDTH 6 0
BBX 7 12 0 0
BITMAP
0E
0C
1C
1C
18
38
38
30
70
60
60
C0
ENDCHAR
STARTCHAR 2045
ENCODING 8261
SWIDTH 300 0
DWIDTH 5 0
BBX 6 15 0 -1
BITMAP
FC
FC
E0
E0
E0
E0
E0
FC
E0
E0
E0
E0
E0
FC
FC
ENDCHAR
STARTCHAR 2046
ENCODING 8262
SWIDTH 300 0
DWIDTH 5 0
BBX 6 16 0 -2
BITMAP
08
FC
FC
1C
1C
1C
1C
1C
FC
1C
1C
1C
18
1C
FC
FC
ENDCHAR
STARTCHAR 2047
ENCODING 8263
SWIDTH 660 0
DWIDTH 11 0
BBX 11 12 0 0
BITMAP
71E0
7BE0
FB60
0860
1860
38E0
31C0
2180
0000
2080
7180
2080
ENDCHAR
STARTCHAR 2048
ENCODING 8264
SWIDTH 540 0
DWIDTH 9 0
BBX 10 12 0 0
BITMAP
73C0
7B80
FB80
0B80
1B80
3980
3180
2180
0000
2180
7180
2180
ENDCHAR
STARTCHAR 2049
ENCODING 8265
SWIDTH 540 0
DWIDTH 9 0
BBX 10 12 0 0
BITMAP
F780
F780
EFC0
E0C0
6180
6380
6300
6200
0000
6200
6300
6200
ENDCHAR
STARTCHAR 204B
ENCODING 8267
SWIDTH 360 0
DWIDTH 6 0
BBX 6 13 0 -1
BITMAP
F8
FC
FC
DC
DC
DC
DC
D8
D0
D0
D0
D0
D0
ENDCHAR
STARTCHAR 204F
ENCODING 8271
SWIDTH 180 0
DWIDTH 3 0
BBX 4 11 0 -3
BITMAP
E0
E0
60
00
00
60
E0
E0
60
30
20
ENDCHAR
STARTCHAR 2052
ENCODING 8274
SWIDTH 480 0
DWIDTH 8 0
BBX 8 12 0 0
BITMAP
02
03
66
E6
6C
0C
18
32
37
67
40
C0
ENDCHAR
STARTCHAR 2070
ENCODING 8304
SWIDTH 180 0
DWIDTH 3 0
BBX 3 6 0 6
BITMAP
40
60
E0
E0
60
60
ENDCHAR
STARTCHAR 2074
ENCODING 8308
SWIDTH 180 0
DWIDTH 3 0
BBX 4 5 0 6
BITMAP
40
40
F0
20
60
ENDCHAR
STARTCHAR 2075
ENCODING 8309
SWIDTH 240 0
DWIDTH 4 0
BBX 4 5 0 6
BITMAP
60
60
30
10
F0
ENDCHAR
STARTCHAR 2076
ENCODING 8310
SWIDTH 240 0
DWIDTH 4 0
BBX 4 5 0 7
BITMAP
70
C0
F0
D0
70
ENDCHAR
STARTCHAR 2077
ENCODING 8311
SWIDTH 180 0
DWIDTH 3 0
BBX 3 5 0 6
BITMAP
E0
20
60
60
E0
ENDCHAR
STARTCHAR 2078
ENCODING 8312
SWIDTH 240 0
DWIDTH 4 0
BBX 4 6 0 6
BITMAP
60
60
60
D0
D0
70
ENDCHAR
STARTCHAR 2079
ENCODING 8313
SWIDTH 240 0
DWIDTH 4 0
BBX 4 5 0 6
BITMAP
F0
D0
70
10
70
ENDCHAR
STARTCHAR 2080
ENCODING 8320
SWIDTH 180 0
DWIDTH 3 0
BBX 3 6 0 0
BITMAP
40
60
E0
E0
60
60
ENDCHAR
STARTCHAR 2081
ENCODING 8321
SWIDTH 180 0
DWIDTH 3 0
BBX 3 6 0 0
BITMAP
20
E0
20
60
60
20
ENDCHAR
STARTCHAR 2082
ENCODING 8322
SWIDTH 240 0
DWIDTH 4 0
BBX 4 6 0 0
BITMAP
60
E0
20
20
70
60
ENDCHAR
STARTCHAR 2083
ENCODING 8323
SWIDTH 240 0
DWIDTH 4 0
BBX 3 6 1 0
BITMAP
C0
40
C0
20
20
C0
ENDCHAR
STARTCHAR 2084
ENCODING 8324
SWIDTH 180 0
DWIDTH 3 0
BBX 4 5 0 1
BITMAP
40
40
F0
20
60
ENDCHAR
STARTCHAR 2085
ENCODING 8325
SWIDTH 240 0
DWIDTH 4 0
BBX 4 6 0 0
BITMAP
70
40
60
30
90
F0
ENDCHAR
STARTCHAR 2086
ENCODING 8326
SWIDTH 240 0
DWIDTH 4 0
BBX 4 5 0 1
BITMAP
70
C0
F0
D0
70
ENDCHAR
STARTCHAR 2087
ENCODING 8327
SWIDTH 180 0
DWIDTH 3 0
BBX 3 6 0 0
BITMAP
E0
E0
20
60
60
80
ENDCHAR
STARTCHAR 2088
ENCODING 8328
SWIDTH 240 0
DWIDTH 4 0
BBX 4 6 0 0
BITMAP
60
60
60
D0
D0
70
ENDCHAR
STARTCHAR 2089
ENCODING 8329
SWIDTH 240 0
DWIDTH 4 0
BBX 4 6 0 0
BITMAP
60
F0
F0
30
B0
60
ENDCHAR
STARTCHAR 20A0
ENCODING 8352
SWIDTH 540 0
DWIDTH 9 0
BBX 9 12 0 0
BITMAP
1800
7C00
7C00
E000
CF80
EF80
EC00
7F00
3F00
0E00
0F80
0F80
ENDCHAR
STARTCHAR 20A4
ENCODING 8356
SWIDTH 540 0
DWIDTH 9 0
BBX 9 11 0 0
BITMAP
0F00
1F80
3B80
3800
FE00
3F00
FF00
FF00
FF80
FF80
7F80
ENDCHAR
STARTCHAR 20A6
ENCODING 8358
SWIDTH 480 0
DWIDTH 8 0
BBX 8 11 0 0
BITMAP
36
36
FF
76
7E
7E
7E
FF
FF
76
76
ENDCHAR
STARTCHAR 20A7
ENCODING 8359
SWIDTH 660 0
DWIDTH 11 0
BBX 12 11 0 0
BITMAP
F000
F800
D800
CF60
FFF0
FFC0
F260
E220
E270
E2E0
E2E0
ENDCHAR
STARTCHAR 20A8
ENCODING 8360
SWIDTH 600 0
DWIDTH 10 0
BBX 10 12 0 0
BITMAP
7000
FC00
CC00
CC00
EDC0
FBC0
FB00
FB80
F8C0
FFC0
EFC0
6F80
ENDCHAR
STARTCHAR 20A9
ENCODING 8361
SWIDTH 660 0
DWIDTH 11 0
BBX 11 12 0 0
BITMAP
3000
34C0
FFE0
FFE0
37C0
FFE0
FFE0
5F80
1B80
1B00
1900
1900
ENDCHAR
STARTCHAR 20AA
ENCODING 8362
SWIDTH 600 0
DWIDTH 10 0
BBX 10 12 0 0
BITMAP
00C0
7EC0
FEC0
E6C0
E6C0
DEC0
DEC0
D8C0
D8C0
DFC0
CFC0
C780
ENDCHAR
STARTCHAR 20AB
ENCODING 8363
SWIDTH 420 0
DWIDTH 7 0
BBX 8 12 0 0
BITMAP
0E
3F
3F
3E
7E
EE
CE
6E
7E
18
FF
FF
ENDCHAR
STARTCHAR 20AC
ENCODING 8364
SWIDTH 540 0
DWIDTH 9 0
BBX 9 12 0 0
BITMAP
0F00
1F80
3F80
3C00
FF00
FF00
7000
FF00
FF00
3C00
1F80
0F80
ENDCHAR
STARTCHAR 20AD
ENCODING 8365
SWIDTH 540 0
DWIDTH 9 0
BBX 9 12 0 0
BITMAP
0200
3700
3700
3E00
3C00
FF80
FF80
7C00
7E00
7700
7700
7200
ENDCHAR
STARTCHAR 20AE
ENCODING 8366
SWIDTH 420 0
DWIDTH 7 0
BBX 8 12 0 0
BITMAP
32
FF
FF
18
1E
7C
58
1E
78
18
18
18
ENDCHAR
STARTCHAR 20B2
ENCODING 8370
SWIDTH 480 0
DWIDTH 8 0
BBX 8 16 0 -2
BITMAP
10
18
18
1E
3F
78
78
7B
5F
FB
FF
FF
7E
38
18
18
ENDCHAR
STARTCHAR 20B4
ENCODING 8372
SWIDTH 480 0
DWIDTH 8 0
BBX 8 12 0 0
BITMAP
18
7E
7E
4E
FF
FF
38
FF
30
3E
3E
1E
ENDCHAR
STARTCHAR 20B5
ENCODING 8373
SWIDTH 480 0
DWIDTH 8 0
BBX 8 14 0 -2
BITMAP
0C
0C
1E
7F
7F
EC
EC
EC
ED
7F
7F
3F
1E
0C
ENDCHAR
STARTCHAR 20B8
ENCODING 8376
SWIDTH 420 0
DWIDTH 7 0
BBX 7 12 0 0
BITMAP
FE
FE
FC
00
FE
FE
38
38
38
38
38
38
ENDCHAR
STARTCHAR 20B9
ENCODING 8377
SWIDTH 540 0
DWIDTH 9 0
BBX 9 12 0 0
BITMAP
F800
FF80
0C00
FF80
FF80
1C00
FC00
3800
1800
1C00
0E00
0600
ENDCHAR
STARTCHAR 20BA
ENCODING 8378
SWIDTH 540 0
DWIDTH 9 0
BBX 9 12 0 0
BITMAP
3800
3800
3C00
F800
B800
3C00
F980
3980
3980
3B80
1F00
0E00
ENDCHAR
STARTCHAR 20BD
ENCODING 8381
SWIDTH 480 0
DWIDTH 8 0
BBX 8 12 0 0
BITMAP
18
7E
7E
72
77
FF
FE
70
FE
FE
70
70
ENDCHAR
STARTCHAR 20BF
ENCODING 8383
SWIDTH 540 0
DWIDTH 9 0
BBX 9 15 0 -2
BITMAP
3600
F600
FE00
FF00
3700
3300
3E00
3E00
3F00
3B80
FF80
FF00
FE00
3600
3600
ENDCHAR
STARTCHAR 20C0
ENCODING 8384
SWIDTH 480 0
DWIDTH 8 0
BBX 8 12 0 0
BITMAP
08
3F
7F
60
E0
60
7F
7F
3E
00
FF
FF
ENDCHAR
STARTCHAR 2116
ENCODING 8470
SWIDTH 660 0
DWIDTH 11 0
BBX 11 11 0 1
BITMAP
6C00
6C00
6C00
7DC0
7DC0
7D60
FD60
FDC0
EC00
EDE0
EDE0
ENDCHAR
STARTCHAR 2117
ENCODING 8471
SWIDTH 660 0
DWIDTH 11 0
BBX 11 10 0 1
BITMAP
3F00
7BC0
64C0
CF60
CD60
CE60
4C60
4CE0
71C0
1F80
ENDCHAR
STARTCHAR 2120
ENCODING 8480
SWIDTH 600 0
DWIDTH 10 0
BBX 10 6 0 6
BITMAP
2000
7240
72C0
77C0
16C0
F6C0
ENDCHAR
STARTCHAR 2122
ENCODING 8482
SWIDTH 600 0
DWIDTH 10 0
BBX 10 5 0 6
BITMAP
FA40
A2C0
27C0
26C0
26C0
ENDCHAR
STARTCHAR 2139
ENCODING 8505
SWIDTH 720 0
DWIDTH 12 0
BBX 12 12 0 0
BITMAP
7FF0
FFF0
F9F0
F9F0
FFF0
F9F0
E1F0
F9F0
F9F0
E070
FFF0
FFF0
ENDCHAR
STARTCHAR 2150
ENCODING 8528
SWIDTH 540 0
DWIDTH 9 0
BBX 8 11 1 1
BITMAP
C6
46
4C
CC
D8
1F
37
63
63
C6
84
ENDCHAR
STARTCHAR 2151
ENCODING 8529
SWIDTH 540 0
DWIDTH 9 0
BBX 8 11 1 1
BITMAP
C6
46
4C
CC
D8
1E
35
65
63
C5
87
ENDCHAR
STARTCHAR 2152
ENCODING 8530
SWIDTH 720 0
DWIDTH 12 0
BBX 11 11 1 1
BITMAP
C600
4600
4C00
CC00
D800
1EC0
3AC0
66A0
66A0
C6E0
8240
ENDCHAR
STARTCHAR 2153
ENCODING 8531
SWIDTH 540 0
DWIDTH 9 0
BBX 8 11 1 1
BITMAP
C6
46
4C
CC
D8
1E
32
67
61
C1
87
ENDCHAR
STARTCHAR 2154
ENCODING 8532
SWIDTH 540 0
DWIDTH 9 0
BBX 9 12 0 0
BITMAP
4000
E300
2300
2600
7600
FC00
0F00
1900
3380
3080
6080
4380
ENDCHAR
STARTCHAR 2155
ENCODING 8533
SWIDTH 540 0
DWIDTH 9 0
BBX 8 11 1 1
BITMAP
C6
46
4C
CC
D8
1F
34
66
61
C9
87
ENDCHAR
STARTCHAR 2156
ENCODING 8534
SWIDTH 540 0
DWIDTH 9 0
BBX 9 12 0 0
BITMAP
4000
E300
2300
2600
7600
FC00
0F80
1A00
3300
3080
6480
4380
ENDCHAR
STARTCHAR 2157
ENCODING 8535
SWIDTH 540 0
DWIDTH 9 0
BBX 9 11 0 1
BITMAP
6300
4300
7600
1600
FC00
0F80
1A00
3300
3080
6480
4380
ENDCHAR
STARTCHAR 2158
ENCODING 8536
SWIDTH 540 0
DWIDTH 9 0
BBX 9 11 0 1
BITMAP
4300
4300
F600
2600
6C00
0F80
1A00
3300
3080
6480
4380
ENDCHAR
STARTCHAR 2159
ENCODING 8537
SWIDTH 540 0
DWIDTH 9 0
BBX 8 11 1 1
BITMAP
C6
46
4C
CC
D8
18
37
6C
6F
CD
87
ENDCHAR
STARTCHAR 215A
ENCODING 8538
SWIDTH 540 0
DWIDTH 9 0
BBX 9 11 0 1
BITMAP
6300
6300
3600
1600
FC00
0C00
1B80
3600
3780
6680
4380
ENDCHAR
STARTCHAR 215B
ENCODING 8539
SWIDTH 540 0
DWIDTH 9 0
BBX 8 11 1 1
BITMAP
C6
46
4C
CC
D8
1E
36
66
6D
CD
87
ENDCHAR
STARTCHAR 215C
ENCODING 8540
SWIDTH 540 0
DWIDTH 9 0
BBX 9 11 0 1
BITMAP
6300
4300
7600
1600
FC00
0F00
1B00
3300
3680
6680
4380
ENDCHAR
STARTCHAR 215D
ENCODING 8541
SWIDTH 540 0
DWIDTH 9 0
BBX 9 11 0 1
BITMAP
6300
6300
3600
1600
FC00
0F00
1B00
3300
3680
6680
4380
ENDCHAR
STARTCHAR 215E
ENCODING 8542
SWIDTH 540 0
DWIDTH 9 0
BBX 9 11 0 1
BITMAP
E300
2300
6600
6600
EC00
0F00
1B00
3300
3680
6680
4380
ENDCHAR
STARTCHAR 215F
ENCODING 8543
SWIDTH 540 0
DWIDTH 9 0
BBX 7 11 1 1
BITMAP
C6
46
4C
CC
D8
18
30
60
60
C0
80
ENDCHAR
STARTCHAR 2189
ENCODING 8585
SWIDTH 540 0
DWIDTH 9 0
BBX 9 12 0 0
BITMAP
4000
6300
E300
E600
6600
6C00
0F00
1900
3380
3080
6080
4380
ENDCHAR
STARTCHAR 2190
ENCODING 8592
SWIDTH 660 0
DWIDTH 11 0
BBX 11 8 0 2
BITMAP
0800
1800
7800
FFE0
FFE0
7A80
3800
1800
ENDCHAR
STARTCHAR 2191
ENCODING 8593
SWIDTH 660 0
DWIDTH 11 0
BBX 8 11 2 0
BITMAP
18
3C
7E
FF
18
18
18
38
18
18
18
ENDCHAR
STARTCHAR 2192
ENCODING 8594
SWIDTH 660 0
DWIDTH 11 0
BBX 11 8 0 2
BITMAP
0100
0180
01C0
FFE0
FFE0
01E0
01C0
0100
ENDCHAR
STARTCHAR 2193
ENCODING 8595
SWIDTH 660 0
DWIDTH 11 0
BBX 8 11 2 0
BITMAP
18
18
18
18
18
18
FF
FE
7C
38
10
ENDCHAR
STARTCHAR 2194
ENCODING 8596
SWIDTH 660 0
DWIDTH 11 0
BBX 11 9 0 2
BITMAP
1080
30C0
70C0
FFE0
FFE0
74E0
30C0
1080
1000
ENDCHAR
STARTCHAR 2195
ENCODING 8597
SWIDTH 660 0
DWIDTH 11 0
BBX 9 11 1 0
BITMAP
1E00
3F00
7F80
0C00
0C00
0C00
0C00
FF80
3F00
1E00
0800
ENDCHAR
STARTCHAR 2196
ENCODING 8598
SWIDTH 660 0
DWIDTH 11 0
BBX 9 9 1 1
BITMAP
FE00
FC00
F800
7C00
7E00
4F00
0780
0380
0100
ENDCHAR
STARTCHAR 2197
ENCODING 8599
SWIDTH 660 0
DWIDTH 11 0
BBX 8 9 2 1
BITMAP
3F
3F
0F
1F
3F
71
E0
E0
40
ENDCHAR
STARTCHAR 2198
ENCODING 8600
SWIDTH 660 0
DWIDTH 11 0
BBX 8 9 2 1
BITMAP
C0
E0
71
3B
1F
0F
1F
3F
07
ENDCHAR
STARTCHAR 2199
ENCODING 8601
SWIDTH 660 0
DWIDTH 11 0
BBX 9 9 1 1
BITMAP
0380
0780
4F00
7E00
7C00
7800
FC00
FE00
7000
ENDCHAR
STARTCHAR 2212
ENCODING 8722
SWIDTH 480 0
DWIDTH 8 0
BBX 8 2 0 5
BITMAP
FF
FF
ENDCHAR
STARTCHAR 2213
ENCODING 8723
SWIDTH 420 0
DWIDTH 7 0
BBX 8 10 0 1
BITMAP
FF
FF
00
18
18
FF
FF
FF
18
18
ENDCHAR
STARTCHAR 2214
ENCODING 8724
SWIDTH 420 0
DWIDTH 7 0
BBX 8 10 0 2
BITMAP
18
18
18
18
18
FF
FF
18
18
18
ENDCHAR
STARTCHAR 2215
ENCODING 8725
SWIDTH 360 0
DWIDTH 6 0
BBX 7 12 0 0
BITMAP
0E
0C
1C
1C
18
38
38
30
70
60
60
C0
ENDCHAR
STARTCHAR 2216
ENCODING 8726
SWIDTH 360 0
DWIDTH 6 0
BBX 7 12 0 0
BITMAP
C0
60
60
70
30
30
38
18
1C
1C
1C
0E
ENDCHAR
STARTCHAR 2219
ENCODING 8729
SWIDTH 180 0
DWIDTH 3 0
BBX 3 3 0 4
BITMAP
E0
E0
60
ENDCHAR
STARTCHAR 221A
ENCODING 8730
SWIDTH 480 0
DWIDTH 8 0
BBX 8 12 0 0
BITMAP
03
03
06
06
E6
E4
6C
2C
28
38
30
10
ENDCHAR
STARTCHAR 2248
ENCODING 8776
SWIDTH 480 0
DWIDTH 8 0
BBX 8 8 0 2
BITMAP
77
FF
FE
CC
00
77
FF
FE
ENDCHAR
STARTCHAR 2260
ENCODING 8800
SWIDTH 480 0
DWIDTH 8 0
BBX 8 10 0 1
BITMAP
0C
0C
FF
FF
F8
18
FF
FF
30
20
ENDCHAR
STARTCHAR 2261
ENCODING 8801
SWIDTH 480 0
DWIDTH 8 0
BBX 8 9 0 2
BITMAP
FF
FF
00
FF
FF
00
0E
FF
FF
ENDCHAR
STARTCHAR 2310
ENCODING 8976
SWIDTH 480 0
DWIDTH 8 0
BBX 8 4 0 3
BITMAP
FF
FF
E0
E0
ENDCHAR
STARTCHAR 2319
ENCODING 8985
SWIDTH 480 0
DWIDTH 8 0
BBX 8 4 0 3
BITMAP
E0
E0
FF
FF
ENDCHAR
STARTCHAR 2609
ENCODING 9737
SWIDTH 660 0
DWIDTH 11 0
BBX 11 11 0 0
BITMAP
1F80
31C0
60C0
4460
CE60
CE60
C660
60C0
71C0
3F80
0C00
ENDCHAR
STARTCHAR 2615
ENCODING 9749
SWIDTH 540 0
DWIDTH 9 0
BBX 10 12 0 0
BITMAP
C000
C800
6800
1400
FE00
FF80
FEC0
FEC0
FF80
FF80
7E00
7E00
ENDCHAR
STARTCHAR 2621
ENCODING 9761
SWIDTH 600 0
DWIDTH 10 0
BBX 10 12 0 0
BITMAP
0400
0F00
0F00
1F00
1B00
1B00
3B00
3300
3300
73C0
73C0
F3C0
ENDCHAR
STARTCHAR 262E
ENCODING 9774
SWIDTH 660 0
DWIDTH 11 0
BBX 12 12 0 0
BITMAP
0600
3FC0
76E0
4660
C620
CF30
DFA0
F6E0
6660
66C0
3F80
0F00
ENDCHAR
STARTCHAR 2647
ENCODING 9799
SWIDTH 420 0
DWIDTH 7 0
BBX 7 12 0 0
BITMAP
30
FC
FE
E6
E6
EE
FE
FC
E0
FE
FE
FE
ENDCHAR
STARTCHAR 29EB
ENCODING 10731
SWIDTH 420 0
DWIDTH 7 0
BBX 7 16 0 -2
BITMAP
10
18
38
3C
3C
7E
7E
FE
FE
7E
7E
7C
3C
38
18
10
ENDCHAR
STARTCHAR 2E2E
ENCODING 11822
SWIDTH 420 0
DWIDTH 7 0
BBX 7 12 0 0
BITMAP
7C
FE
FE
E2
E0
78
3C
1C
00
08
1C
1C
ENDCHAR
STARTCHAR 2E38
ENCODING 11832
SWIDTH 480 0
DWIDTH 8 0
BBX 8 16 0 -2
BITMAP
18
18
18
18
18
18
18
18
18
18
18
FF
FF
1F
18
18
ENDCHAR
STARTCHAR 2E4B
ENCODING 11851
SWIDTH 480 0
DWIDTH 8 0
BBX 8 16 0 -2
BITMAP
18
18
18
FF
FF
18
18
FF
FF
18
18
FF
FF
F8
18
18
ENDCHAR
STARTCHAR 3012
ENCODING 12306
SWIDTH 540 0
DWIDTH 9 0
BBX 9 12 0 0
BITMAP
FF80
FF80
FF80
0000
7F80
FF80
FF80
0C00
0C00
0C00
0C00
0C00
ENDCHAR
STARTCHAR 3036
ENCODING 12342
SWIDTH 660 0
DWIDTH 11 0
BBX 11 11 0 0
BITMAP
1F80
71C0
40C0
DF60
DF60
DF60
C460
6440
71C0
3F80
0E00
ENDCHAR
STARTCHAR 4E00
ENCODING 19968
SWIDTH 660 0
DWIDTH 11 0
BBX 11 2 0 5
BITMAP
FFE0
FFE0
ENDCHAR
STARTCHAR 5186
ENCODING 20870
SWIDTH 660 0
DWIDTH 11 0
BBX 11 11 0 0
BITMAP
FFE0
FFE0
E660
E660
E660
FFE0
7FE0
60E0
60E0
E0E0
E0E0
ENDCHAR
STARTCHAR 8336
ENCODING 33590
SWIDTH 660 0
DWIDTH 11 0
BBX 11 12 0 0
BITMAP
30C0
FFE0
FFE0
3FC0
3F80
76E0
0600
3FC0
3FC0
1780
36C0
6660
ENDCHAR
STARTCHAR 9F99
ENCODING 40857
SWIDTH 660 0
DWIDTH 11 0
BBX 11 12 0 0
BITMAP
0900
0D80
0D80
FFE0
FFE0
1A00
1B40
33E0
33C0
7720
6FE0
43C0
ENDCHAR
STARTCHAR A78B
ENCODING 42891
SWIDTH 180 0
DWIDTH 3 0
BBX 4 9 0 3
BITMAP
E0
E0
E0
60
60
60
70
70
60
ENDCHAR
STARTCHAR A78C
ENCODING 42892
SWIDTH 180 0
DWIDTH 3 0
BBX 4 9 0 3
BITMAP
E0
E0
E0
60
60
60
70
70
60
ENDCHAR
STARTCHAR FFFD
ENCODING 65533
SWIDTH 420 0
DWIDTH 7 0
BBX 7 16 0 -2
BITMAP
08
18
1C
3C
3C
42
42
F2
F2
66
6E
7C
24
3C
18
18
ENDCHAR
ENDFONT
